<?xml version="1.0" encoding="utf-8"?><!-- Generator: Adobe Illustrator 17.0.0, SVG Export Plug-In . SVG Version: 6.00 Build 0)  -->
<!DOCTYPE svg PUBLIC "-//W3C//DTD SVG 1.1//EN" "http://www.w3.org/Graphics/SVG/1.1/DTD/svg11.dtd">
<svg version="1.1" id="Layer_1" xmlns="http://www.w3.org/2000/svg"
    xmlns:xlink="http://www.w3.org/1999/xlink" x="0px" y="0px" width="300px" height="300px"
    viewBox="0 0 300 300" enable-background="new 0 0 300 300" xml:space="preserve">
<g>
	<path fill="#33D33F" d="M196.859,83.708c-0.81-0.42-1.52-0.16-2.2,0.8l2.71,1.41C197.799,84.678,197.679,84.138,196.859,83.708z
		 M196.859,83.708c-0.81-0.42-1.52-0.16-2.2,0.8l2.71,1.41C197.799,84.678,197.679,84.138,196.859,83.708z M178.769,73.658
		c-0.39-0.61-0.98-1.06-1.64-1.25c-0.79-0.22-1.59-0.11-2.33,0.35c-0.8,0.51-1.6,1.79-2.02,3.26c-0.46,1.6-0.4,3.19,0.15,4.06
		c0.39,0.6,0.97,1.05,1.63,1.23c0.76,0.22,1.49,0.15,2.13-0.21c0.43-0.24,0.78-0.53,1.01-0.85c0.52-0.67,0.97-1.61,1.22-2.46
		C179.409,76.068,179.349,74.588,178.769,73.658z M196.859,83.708c-0.81-0.42-1.52-0.16-2.2,0.8l2.71,1.41
		C197.799,84.678,197.679,84.138,196.859,83.708z M178.769,73.658c-0.39-0.61-0.98-1.06-1.64-1.25c-0.79-0.22-1.59-0.11-2.33,0.35
		c-0.8,0.51-1.6,1.79-2.02,3.26c-0.46,1.6-0.4,3.19,0.15,4.06c0.39,0.6,0.97,1.05,1.63,1.23c0.76,0.22,1.49,0.15,2.13-0.21
		c0.43-0.24,0.78-0.53,1.01-0.85c0.52-0.67,0.97-1.61,1.22-2.46C179.409,76.068,179.349,74.588,178.769,73.658z M196.859,83.708
		c-0.81-0.42-1.52-0.16-2.2,0.8l2.71,1.41C197.799,84.678,197.679,84.138,196.859,83.708z M160.689,72.148
		c-1.13-0.16-2.01,0.84-2.24,2.51c-0.25,1.84,0.39,3.14,1.64,3.31c0.43,0.06,0.84-0.03,1.13-0.3c0.17-0.14,0.3-0.31,0.31-0.41
		l0.47-3.42C162.109,73.058,161.489,72.258,160.689,72.148z M178.769,73.658c-0.39-0.61-0.98-1.06-1.64-1.25
		c-0.79-0.22-1.59-0.11-2.33,0.35c-0.8,0.51-1.6,1.79-2.02,3.26c-0.46,1.6-0.4,3.19,0.15,4.06c0.39,0.6,0.97,1.05,1.63,1.23
		c0.76,0.22,1.49,0.15,2.13-0.21c0.43-0.24,0.78-0.53,1.01-0.85c0.52-0.67,0.97-1.61,1.22-2.46
		C179.409,76.068,179.349,74.588,178.769,73.658z M196.859,83.708c-0.81-0.42-1.52-0.16-2.2,0.8l2.71,1.41
		C197.799,84.678,197.679,84.138,196.859,83.708z M160.689,72.148c-1.13-0.16-2.01,0.84-2.24,2.51c-0.25,1.84,0.39,3.14,1.64,3.31
		c0.43,0.06,0.84-0.03,1.13-0.3c0.17-0.14,0.3-0.31,0.31-0.41l0.47-3.42C162.109,73.058,161.489,72.258,160.689,72.148z
		 M178.769,73.658c-0.39-0.61-0.98-1.06-1.64-1.25c-0.79-0.22-1.59-0.11-2.33,0.35c-0.8,0.51-1.6,1.79-2.02,3.26
		c-0.46,1.6-0.4,3.19,0.15,4.06c0.39,0.6,0.97,1.05,1.63,1.23c0.76,0.22,1.49,0.15,2.13-0.21c0.43-0.24,0.78-0.53,1.01-0.85
		c0.52-0.67,0.97-1.61,1.22-2.46C179.409,76.068,179.349,74.588,178.769,73.658z M196.859,83.708c-0.81-0.42-1.52-0.16-2.2,0.8
		l2.71,1.41C197.799,84.678,197.679,84.138,196.859,83.708z M146.269,71.138c-1.08-0.01-1.77,0.92-1.78,2.34
		c-0.01,1.07,0.22,2.12,0.64,2.9c0.31,0.6,0.86,0.97,1.45,0.97c1.12,0.01,1.8-0.99,1.81-2.7
		C148.409,72.598,147.529,71.148,146.269,71.138z M160.689,72.148c-1.13-0.16-2.01,0.84-2.24,2.51c-0.25,1.84,0.39,3.14,1.64,3.31
		c0.43,0.06,0.84-0.03,1.13-0.3c0.17-0.14,0.3-0.31,0.31-0.41l0.47-3.42C162.109,73.058,161.489,72.258,160.689,72.148z
		 M178.769,73.658c-0.39-0.61-0.98-1.06-1.64-1.25c-0.79-0.22-1.59-0.11-2.33,0.35c-0.8,0.51-1.6,1.79-2.02,3.26
		c-0.46,1.6-0.4,3.19,0.15,4.06c0.39,0.6,0.97,1.05,1.63,1.23c0.76,0.22,1.49,0.15,2.13-0.21c0.43-0.24,0.78-0.53,1.01-0.85
		c0.52-0.67,0.97-1.61,1.22-2.46C179.409,76.068,179.349,74.588,178.769,73.658z M196.859,83.708c-0.81-0.42-1.52-0.16-2.2,0.8
		l2.71,1.41C197.799,84.678,197.679,84.138,196.859,83.708z M146.269,71.138c-1.08-0.01-1.77,0.92-1.78,2.34
		c-0.01,1.07,0.22,2.12,0.64,2.9c0.31,0.6,0.86,0.97,1.45,0.97c1.12,0.01,1.8-0.99,1.81-2.7
		C148.409,72.598,147.529,71.148,146.269,71.138z M160.689,72.148c-1.13-0.16-2.01,0.84-2.24,2.51c-0.25,1.84,0.39,3.14,1.64,3.31
		c0.43,0.06,0.84-0.03,1.13-0.3c0.17-0.14,0.3-0.31,0.31-0.41l0.47-3.42C162.109,73.058,161.489,72.258,160.689,72.148z
		 M178.769,73.658c-0.39-0.61-0.98-1.06-1.64-1.25c-0.79-0.22-1.59-0.11-2.33,0.35c-0.8,0.51-1.6,1.79-2.02,3.26
		c-0.46,1.6-0.4,3.19,0.15,4.06c0.39,0.6,0.97,1.05,1.63,1.23c0.76,0.22,1.49,0.15,2.13-0.21c0.43-0.24,0.78-0.53,1.01-0.85
		c0.52-0.67,0.97-1.61,1.22-2.46C179.409,76.068,179.349,74.588,178.769,73.658z M196.859,83.708c-0.81-0.42-1.52-0.16-2.2,0.8
		l2.71,1.41C197.799,84.678,197.679,84.138,196.859,83.708z M146.269,71.138c-1.08-0.01-1.77,0.92-1.78,2.34
		c-0.01,1.07,0.22,2.12,0.64,2.9c0.31,0.6,0.86,0.97,1.45,0.97c1.12,0.01,1.8-0.99,1.81-2.7
		C148.409,72.598,147.529,71.148,146.269,71.138z M160.689,72.148c-1.13-0.16-2.01,0.84-2.24,2.51c-0.25,1.84,0.39,3.14,1.64,3.31
		c0.43,0.06,0.84-0.03,1.13-0.3c0.17-0.14,0.3-0.31,0.31-0.41l0.47-3.42C162.109,73.058,161.489,72.258,160.689,72.148z
		 M178.769,73.658c-0.39-0.61-0.98-1.06-1.64-1.25c-0.79-0.22-1.59-0.11-2.33,0.35c-0.8,0.51-1.6,1.79-2.02,3.26
		c-0.46,1.6-0.4,3.19,0.15,4.06c0.39,0.6,0.97,1.05,1.63,1.23c0.76,0.22,1.49,0.15,2.13-0.21c0.43-0.24,0.78-0.53,1.01-0.85
		c0.52-0.67,0.97-1.61,1.22-2.46C179.409,76.068,179.349,74.588,178.769,73.658z M196.859,83.708c-0.81-0.42-1.52-0.16-2.2,0.8
		l2.71,1.41C197.799,84.678,197.679,84.138,196.859,83.708z M146.269,71.138c-1.08-0.01-1.77,0.92-1.78,2.34
		c-0.01,1.07,0.22,2.12,0.64,2.9c0.31,0.6,0.86,0.97,1.45,0.97c1.12,0.01,1.8-0.99,1.81-2.7
		C148.409,72.598,147.529,71.148,146.269,71.138z M160.689,72.148c-1.13-0.16-2.01,0.84-2.24,2.51c-0.25,1.84,0.39,3.14,1.64,3.31
		c0.43,0.06,0.84-0.03,1.13-0.3c0.17-0.14,0.3-0.31,0.31-0.41l0.47-3.42C162.109,73.058,161.489,72.258,160.689,72.148z
		 M178.769,73.658c-0.39-0.61-0.98-1.06-1.64-1.25c-0.79-0.22-1.59-0.11-2.33,0.35c-0.8,0.51-1.6,1.79-2.02,3.26
		c-0.46,1.6-0.4,3.19,0.15,4.06c0.39,0.6,0.97,1.05,1.63,1.23c0.76,0.22,1.49,0.15,2.13-0.21c0.43-0.24,0.78-0.53,1.01-0.85
		c0.52-0.67,0.97-1.61,1.22-2.46C179.409,76.068,179.349,74.588,178.769,73.658z M196.859,83.708c-0.81-0.42-1.52-0.16-2.2,0.8
		l2.71,1.41C197.799,84.678,197.679,84.138,196.859,83.708z M146.269,71.138c-1.08-0.01-1.77,0.92-1.78,2.34
		c-0.01,1.07,0.22,2.12,0.64,2.9c0.31,0.6,0.86,0.97,1.45,0.97c1.12,0.01,1.8-0.99,1.81-2.7
		C148.409,72.598,147.529,71.148,146.269,71.138z M160.689,72.148c-1.13-0.16-2.01,0.84-2.24,2.51c-0.25,1.84,0.39,3.14,1.64,3.31
		c0.43,0.06,0.84-0.03,1.13-0.3c0.17-0.14,0.3-0.31,0.31-0.41l0.47-3.42C162.109,73.058,161.489,72.258,160.689,72.148z
		 M178.769,73.658c-0.39-0.61-0.98-1.06-1.64-1.25c-0.79-0.22-1.59-0.11-2.33,0.35c-0.8,0.51-1.6,1.79-2.02,3.26
		c-0.46,1.6-0.4,3.19,0.15,4.06c0.39,0.6,0.97,1.05,1.63,1.23c0.76,0.22,1.49,0.15,2.13-0.21c0.43-0.24,0.78-0.53,1.01-0.85
		c0.52-0.67,0.97-1.61,1.22-2.46C179.409,76.068,179.349,74.588,178.769,73.658z M196.859,83.708c-0.81-0.42-1.52-0.16-2.2,0.8
		l2.71,1.41C197.799,84.678,197.679,84.138,196.859,83.708z M146.269,71.138c-1.08-0.01-1.77,0.92-1.78,2.34
		c-0.01,1.07,0.22,2.12,0.64,2.9c0.31,0.6,0.86,0.97,1.45,0.97c1.12,0.01,1.8-0.99,1.81-2.7
		C148.409,72.598,147.529,71.148,146.269,71.138z M160.689,72.148c-1.13-0.16-2.01,0.84-2.24,2.51c-0.25,1.84,0.39,3.14,1.64,3.31
		c0.43,0.06,0.84-0.03,1.13-0.3c0.17-0.14,0.3-0.31,0.31-0.41l0.47-3.42C162.109,73.058,161.489,72.258,160.689,72.148z
		 M178.769,73.658c-0.39-0.61-0.98-1.06-1.64-1.25c-0.79-0.22-1.59-0.11-2.33,0.35c-0.8,0.51-1.6,1.79-2.02,3.26
		c-0.46,1.6-0.4,3.19,0.15,4.06c0.39,0.6,0.97,1.05,1.63,1.23c0.76,0.22,1.49,0.15,2.13-0.21c0.43-0.24,0.78-0.53,1.01-0.85
		c0.52-0.67,0.97-1.61,1.22-2.46C179.409,76.068,179.349,74.588,178.769,73.658z M196.859,83.708c-0.81-0.42-1.52-0.16-2.2,0.8
		l2.71,1.41C197.799,84.678,197.679,84.138,196.859,83.708z M146.269,71.138c-1.08-0.01-1.77,0.92-1.78,2.34
		c-0.01,1.07,0.22,2.12,0.64,2.9c0.31,0.6,0.86,0.97,1.45,0.97c1.12,0.01,1.8-0.99,1.81-2.7
		C148.409,72.598,147.529,71.148,146.269,71.138z M160.689,72.148c-1.13-0.16-2.01,0.84-2.24,2.51c-0.25,1.84,0.39,3.14,1.64,3.31
		c0.43,0.06,0.84-0.03,1.13-0.3c0.17-0.14,0.3-0.31,0.31-0.41l0.47-3.42C162.109,73.058,161.489,72.258,160.689,72.148z
		 M178.769,73.658c-0.39-0.61-0.98-1.06-1.64-1.25c-0.79-0.22-1.59-0.11-2.33,0.35c-0.8,0.51-1.6,1.79-2.02,3.26
		c-0.46,1.6-0.4,3.19,0.15,4.06c0.39,0.6,0.97,1.05,1.63,1.23c0.76,0.22,1.49,0.15,2.13-0.21c0.43-0.24,0.78-0.53,1.01-0.85
		c0.52-0.67,0.97-1.61,1.22-2.46C179.409,76.068,179.349,74.588,178.769,73.658z M196.859,83.708c-0.81-0.42-1.52-0.16-2.2,0.8
		l2.71,1.41C197.799,84.678,197.679,84.138,196.859,83.708z M146.269,71.138c-1.08-0.01-1.77,0.92-1.78,2.34
		c-0.01,1.07,0.22,2.12,0.64,2.9c0.31,0.6,0.86,0.97,1.45,0.97c1.12,0.01,1.8-0.99,1.81-2.7
		C148.409,72.598,147.529,71.148,146.269,71.138z M160.689,72.148c-1.13-0.16-2.01,0.84-2.24,2.51c-0.25,1.84,0.39,3.14,1.64,3.31
		c0.43,0.06,0.84-0.03,1.13-0.3c0.17-0.14,0.3-0.31,0.31-0.41l0.47-3.42C162.109,73.058,161.489,72.258,160.689,72.148z
		 M178.769,73.658c-0.39-0.61-0.98-1.06-1.64-1.25c-0.79-0.22-1.59-0.11-2.33,0.35c-0.8,0.51-1.6,1.79-2.02,3.26
		c-0.46,1.6-0.4,3.19,0.15,4.06c0.39,0.6,0.97,1.05,1.63,1.23c0.76,0.22,1.49,0.15,2.13-0.21c0.43-0.24,0.78-0.53,1.01-0.85
		c0.52-0.67,0.97-1.61,1.22-2.46C179.409,76.068,179.349,74.588,178.769,73.658z M196.859,83.708c-0.81-0.42-1.52-0.16-2.2,0.8
		l2.71,1.41C197.799,84.678,197.679,84.138,196.859,83.708z M146.269,71.138c-1.08-0.01-1.77,0.92-1.78,2.34
		c-0.01,1.07,0.22,2.12,0.64,2.9c0.31,0.6,0.86,0.97,1.45,0.97c1.12,0.01,1.8-0.99,1.81-2.7
		C148.409,72.598,147.529,71.148,146.269,71.138z M160.689,72.148c-1.13-0.16-2.01,0.84-2.24,2.51c-0.25,1.84,0.39,3.14,1.64,3.31
		c0.43,0.06,0.84-0.03,1.13-0.3c0.17-0.14,0.3-0.31,0.31-0.41l0.47-3.42C162.109,73.058,161.489,72.258,160.689,72.148z
		 M178.769,73.658c-0.39-0.61-0.98-1.06-1.64-1.25c-0.79-0.22-1.59-0.11-2.33,0.35c-0.8,0.51-1.6,1.79-2.02,3.26
		c-0.46,1.6-0.4,3.19,0.15,4.06c0.39,0.6,0.97,1.05,1.63,1.23c0.76,0.22,1.49,0.15,2.13-0.21c0.43-0.24,0.78-0.53,1.01-0.85
		c0.52-0.67,0.97-1.61,1.22-2.46C179.409,76.068,179.349,74.588,178.769,73.658z M196.859,83.708c-0.81-0.42-1.52-0.16-2.2,0.8
		l2.71,1.41C197.799,84.678,197.679,84.138,196.859,83.708z M146.269,71.138c-1.08-0.01-1.77,0.92-1.78,2.34
		c-0.01,1.07,0.22,2.12,0.64,2.9c0.31,0.6,0.86,0.97,1.45,0.97c1.12,0.01,1.8-0.99,1.81-2.7
		C148.409,72.598,147.529,71.148,146.269,71.138z M160.689,72.148c-1.13-0.16-2.01,0.84-2.24,2.51c-0.25,1.84,0.39,3.14,1.64,3.31
		c0.43,0.06,0.84-0.03,1.13-0.3c0.17-0.14,0.3-0.31,0.31-0.41l0.47-3.42C162.109,73.058,161.489,72.258,160.689,72.148z
		 M178.769,73.658c-0.39-0.61-0.98-1.06-1.64-1.25c-0.79-0.22-1.59-0.11-2.33,0.35c-0.8,0.51-1.6,1.79-2.02,3.26
		c-0.46,1.6-0.4,3.19,0.15,4.06c0.39,0.6,0.97,1.05,1.63,1.23c0.76,0.22,1.49,0.15,2.13-0.21c0.43-0.24,0.78-0.53,1.01-0.85
		c0.52-0.67,0.97-1.61,1.22-2.46C179.409,76.068,179.349,74.588,178.769,73.658z M196.859,83.708c-0.81-0.42-1.52-0.16-2.2,0.8
		l2.71,1.41C197.799,84.678,197.679,84.138,196.859,83.708z M146.269,71.138c-1.08-0.01-1.77,0.92-1.78,2.34
		c-0.01,1.07,0.22,2.12,0.64,2.9c0.31,0.6,0.86,0.97,1.45,0.97c1.12,0.01,1.8-0.99,1.81-2.7
		C148.409,72.598,147.529,71.148,146.269,71.138z M160.689,72.148c-1.13-0.16-2.01,0.84-2.24,2.51c-0.25,1.84,0.39,3.14,1.64,3.31
		c0.43,0.06,0.84-0.03,1.13-0.3c0.17-0.14,0.3-0.31,0.31-0.41l0.47-3.42C162.109,73.058,161.489,72.258,160.689,72.148z
		 M178.769,73.658c-0.39-0.61-0.98-1.06-1.64-1.25c-0.79-0.22-1.59-0.11-2.33,0.35c-0.8,0.51-1.6,1.79-2.02,3.26
		c-0.46,1.6-0.4,3.19,0.15,4.06c0.39,0.6,0.97,1.05,1.63,1.23c0.76,0.22,1.49,0.15,2.13-0.21c0.43-0.24,0.78-0.53,1.01-0.85
		c0.52-0.67,0.97-1.61,1.22-2.46C179.409,76.068,179.349,74.588,178.769,73.658z M196.859,83.708c-0.81-0.42-1.52-0.16-2.2,0.8
		l2.71,1.41C197.799,84.678,197.679,84.138,196.859,83.708z M146.269,71.138c-1.08-0.01-1.77,0.92-1.78,2.34
		c-0.01,1.07,0.22,2.12,0.64,2.9c0.31,0.6,0.86,0.97,1.45,0.97c1.12,0.01,1.8-0.99,1.81-2.7
		C148.409,72.598,147.529,71.148,146.269,71.138z M160.689,72.148c-1.13-0.16-2.01,0.84-2.24,2.51c-0.25,1.84,0.39,3.14,1.64,3.31
		c0.43,0.06,0.84-0.03,1.13-0.3c0.17-0.14,0.3-0.31,0.31-0.41l0.47-3.42C162.109,73.058,161.489,72.258,160.689,72.148z
		 M178.769,73.658c-0.39-0.61-0.98-1.06-1.64-1.25c-0.79-0.22-1.59-0.11-2.33,0.35c-0.8,0.51-1.6,1.79-2.02,3.26
		c-0.46,1.6-0.4,3.19,0.15,4.06c0.39,0.6,0.97,1.05,1.63,1.23c0.76,0.22,1.49,0.15,2.13-0.21c0.43-0.24,0.78-0.53,1.01-0.85
		c0.52-0.67,0.97-1.61,1.22-2.46C179.409,76.068,179.349,74.588,178.769,73.658z M196.859,83.708c-0.81-0.42-1.52-0.16-2.2,0.8
		l2.71,1.41C197.799,84.678,197.679,84.138,196.859,83.708z M146.269,71.138c-1.08-0.01-1.77,0.92-1.78,2.34
		c-0.01,1.07,0.22,2.12,0.64,2.9c0.31,0.6,0.86,0.97,1.45,0.97c1.12,0.01,1.8-0.99,1.81-2.7
		C148.409,72.598,147.529,71.148,146.269,71.138z M160.689,72.148c-1.13-0.16-2.01,0.84-2.24,2.51c-0.25,1.84,0.39,3.14,1.64,3.31
		c0.43,0.06,0.84-0.03,1.13-0.3c0.17-0.14,0.3-0.31,0.31-0.41l0.47-3.42C162.109,73.058,161.489,72.258,160.689,72.148z
		 M178.769,73.658c-0.39-0.61-0.98-1.06-1.64-1.25c-0.79-0.22-1.59-0.11-2.33,0.35c-0.8,0.51-1.6,1.79-2.02,3.26
		c-0.46,1.6-0.4,3.19,0.15,4.06c0.39,0.6,0.97,1.05,1.63,1.23c0.76,0.22,1.49,0.15,2.13-0.21c0.43-0.24,0.78-0.53,1.01-0.85
		c0.52-0.67,0.97-1.61,1.22-2.46C179.409,76.068,179.349,74.588,178.769,73.658z M196.859,83.708c-0.81-0.42-1.52-0.16-2.2,0.8
		l2.71,1.41C197.799,84.678,197.679,84.138,196.859,83.708z M146.269,71.138c-1.08-0.01-1.77,0.92-1.78,2.34
		c-0.01,1.07,0.22,2.12,0.64,2.9c0.31,0.6,0.86,0.97,1.45,0.97c1.12,0.01,1.8-0.99,1.81-2.7
		C148.409,72.598,147.529,71.148,146.269,71.138z M160.689,72.148c-1.13-0.16-2.01,0.84-2.24,2.51c-0.25,1.84,0.39,3.14,1.64,3.31
		c0.43,0.06,0.84-0.03,1.13-0.3c0.17-0.14,0.3-0.31,0.31-0.41l0.47-3.42C162.109,73.058,161.489,72.258,160.689,72.148z
		 M178.769,73.658c-0.39-0.61-0.98-1.06-1.64-1.25c-0.79-0.22-1.59-0.11-2.33,0.35c-0.8,0.51-1.6,1.79-2.02,3.26
		c-0.46,1.6-0.4,3.19,0.15,4.06c0.39,0.6,0.97,1.05,1.63,1.23c0.76,0.22,1.49,0.15,2.13-0.21c0.43-0.24,0.78-0.53,1.01-0.85
		c0.52-0.67,0.97-1.61,1.22-2.46C179.409,76.068,179.349,74.588,178.769,73.658z M196.859,83.708c-0.81-0.42-1.52-0.16-2.2,0.8
		l2.71,1.41C197.799,84.678,197.679,84.138,196.859,83.708z M138.669,248.708c-1.07-0.12-1.86,0.73-2.02,2.15
		c-0.12,1.06,0.01,2.13,0.34,2.95c0.24,0.63,0.75,1.05,1.34,1.12c1.11,0.12,1.9-0.8,2.09-2.5
		C140.639,250.378,139.919,248.848,138.669,248.708z M146.269,71.138c-1.08-0.01-1.77,0.92-1.78,2.34c-0.01,1.07,0.22,2.12,0.64,2.9
		c0.31,0.6,0.86,0.97,1.45,0.97c1.12,0.01,1.8-0.99,1.81-2.7C148.409,72.598,147.529,71.148,146.269,71.138z M160.689,72.148
		c-1.13-0.16-2.01,0.84-2.24,2.51c-0.25,1.84,0.39,3.14,1.64,3.31c0.43,0.06,0.84-0.03,1.13-0.3c0.17-0.14,0.3-0.31,0.31-0.41
		l0.47-3.42C162.109,73.058,161.489,72.258,160.689,72.148z M178.769,73.658c-0.39-0.61-0.98-1.06-1.64-1.25
		c-0.79-0.22-1.59-0.11-2.33,0.35c-0.8,0.51-1.6,1.79-2.02,3.26c-0.46,1.6-0.4,3.19,0.15,4.06c0.39,0.6,0.97,1.05,1.63,1.23
		c0.76,0.22,1.49,0.15,2.13-0.21c0.43-0.24,0.78-0.53,1.01-0.85c0.52-0.67,0.97-1.61,1.22-2.46
		C179.409,76.068,179.349,74.588,178.769,73.658z M196.859,83.708c-0.81-0.42-1.52-0.16-2.2,0.8l2.71,1.41
		C197.799,84.678,197.679,84.138,196.859,83.708z M138.669,248.708c-1.07-0.12-1.86,0.73-2.02,2.15c-0.12,1.06,0.01,2.13,0.34,2.95
		c0.24,0.63,0.75,1.05,1.34,1.12c1.11,0.12,1.9-0.8,2.09-2.5C140.639,250.378,139.919,248.848,138.669,248.708z M146.269,71.138
		c-1.08-0.01-1.77,0.92-1.78,2.34c-0.01,1.07,0.22,2.12,0.64,2.9c0.31,0.6,0.86,0.97,1.45,0.97c1.12,0.01,1.8-0.99,1.81-2.7
		C148.409,72.598,147.529,71.148,146.269,71.138z M160.689,72.148c-1.13-0.16-2.01,0.84-2.24,2.51c-0.25,1.84,0.39,3.14,1.64,3.31
		c0.43,0.06,0.84-0.03,1.13-0.3c0.17-0.14,0.3-0.31,0.31-0.41l0.47-3.42C162.109,73.058,161.489,72.258,160.689,72.148z
		 M178.769,73.658c-0.39-0.61-0.98-1.06-1.64-1.25c-0.79-0.22-1.59-0.11-2.33,0.35c-0.8,0.51-1.6,1.79-2.02,3.26
		c-0.46,1.6-0.4,3.19,0.15,4.06c0.39,0.6,0.97,1.05,1.63,1.23c0.76,0.22,1.49,0.15,2.13-0.21c0.43-0.24,0.78-0.53,1.01-0.85
		c0.52-0.67,0.97-1.61,1.22-2.46C179.409,76.068,179.349,74.588,178.769,73.658z M196.859,83.708c-0.81-0.42-1.52-0.16-2.2,0.8
		l2.71,1.41C197.799,84.678,197.679,84.138,196.859,83.708z M138.669,248.708c-1.07-0.12-1.86,0.73-2.02,2.15
		c-0.12,1.06,0.01,2.13,0.34,2.95c0.24,0.63,0.75,1.05,1.34,1.12c1.11,0.12,1.9-0.8,2.09-2.5
		C140.639,250.378,139.919,248.848,138.669,248.708z M146.269,71.138c-1.08-0.01-1.77,0.92-1.78,2.34c-0.01,1.07,0.22,2.12,0.64,2.9
		c0.31,0.6,0.86,0.97,1.45,0.97c1.12,0.01,1.8-0.99,1.81-2.7C148.409,72.598,147.529,71.148,146.269,71.138z M154.099,250.788
		c-0.01-0.79-0.74-1.48-1.55-1.47c-1.14,0.02-1.86,1.14-1.83,2.82c0.03,1.86,0.86,3.05,2.12,3.03c0.44-0.01,0.83-0.17,1.07-0.47
		c0.15-0.17,0.25-0.35,0.25-0.46L154.099,250.788z M160.689,72.148c-1.13-0.16-2.01,0.84-2.24,2.51c-0.25,1.84,0.39,3.14,1.64,3.31
		c0.43,0.06,0.84-0.03,1.13-0.3c0.17-0.14,0.3-0.31,0.31-0.41l0.47-3.42C162.109,73.058,161.489,72.258,160.689,72.148z
		 M178.769,73.658c-0.39-0.61-0.98-1.06-1.64-1.25c-0.79-0.22-1.59-0.11-2.33,0.35c-0.8,0.51-1.6,1.79-2.02,3.26
		c-0.46,1.6-0.4,3.19,0.15,4.06c0.39,0.6,0.97,1.05,1.63,1.23c0.76,0.22,1.49,0.15,2.13-0.21c0.43-0.24,0.78-0.53,1.01-0.85
		c0.52-0.67,0.97-1.61,1.22-2.46C179.409,76.068,179.349,74.588,178.769,73.658z M196.859,83.708c-0.81-0.42-1.52-0.16-2.2,0.8
		l2.71,1.41C197.799,84.678,197.679,84.138,196.859,83.708z M154.099,250.788c-0.01-0.79-0.74-1.48-1.55-1.47
		c-1.14,0.02-1.86,1.14-1.83,2.82c0.03,1.86,0.86,3.05,2.12,3.03c0.44-0.01,0.83-0.17,1.07-0.47c0.15-0.17,0.25-0.35,0.25-0.46
		L154.099,250.788z M138.669,248.708c-1.07-0.12-1.86,0.73-2.02,2.15c-0.12,1.06,0.01,2.13,0.34,2.95c0.24,0.63,0.75,1.05,1.34,1.12
		c1.11,0.12,1.9-0.8,2.09-2.5C140.639,250.378,139.919,248.848,138.669,248.708z M146.269,71.138c-1.08-0.01-1.77,0.92-1.78,2.34
		c-0.01,1.07,0.22,2.12,0.64,2.9c0.31,0.6,0.86,0.97,1.45,0.97c1.12,0.01,1.8-0.99,1.81-2.7
		C148.409,72.598,147.529,71.148,146.269,71.138z M160.689,72.148c-1.13-0.16-2.01,0.84-2.24,2.51c-0.25,1.84,0.39,3.14,1.64,3.31
		c0.43,0.06,0.84-0.03,1.13-0.3c0.17-0.14,0.3-0.31,0.31-0.41l0.47-3.42C162.109,73.058,161.489,72.258,160.689,72.148z
		 M178.769,73.658c-0.39-0.61-0.98-1.06-1.64-1.25c-0.79-0.22-1.59-0.11-2.33,0.35c-0.8,0.51-1.6,1.79-2.02,3.26
		c-0.46,1.6-0.4,3.19,0.15,4.06c0.39,0.6,0.97,1.05,1.63,1.23c0.76,0.22,1.49,0.15,2.13-0.21c0.43-0.24,0.78-0.53,1.01-0.85
		c0.52-0.67,0.97-1.61,1.22-2.46C179.409,76.068,179.349,74.588,178.769,73.658z M196.859,83.708c-0.81-0.42-1.52-0.16-2.2,0.8
		l2.71,1.41C197.799,84.678,197.679,84.138,196.859,83.708z M138.669,248.708c-1.07-0.12-1.86,0.73-2.02,2.15
		c-0.12,1.06,0.01,2.13,0.34,2.95c0.24,0.63,0.75,1.05,1.34,1.12c1.11,0.12,1.9-0.8,2.09-2.5
		C140.639,250.378,139.919,248.848,138.669,248.708z M146.269,71.138c-1.08-0.01-1.77,0.92-1.78,2.34c-0.01,1.07,0.22,2.12,0.64,2.9
		c0.31,0.6,0.86,0.97,1.45,0.97c1.12,0.01,1.8-0.99,1.81-2.7C148.409,72.598,147.529,71.148,146.269,71.138z M154.099,250.788
		c-0.01-0.79-0.74-1.48-1.55-1.47c-1.14,0.02-1.86,1.14-1.83,2.82c0.03,1.86,0.86,3.05,2.12,3.03c0.44-0.01,0.83-0.17,1.07-0.47
		c0.15-0.17,0.25-0.35,0.25-0.46L154.099,250.788z M160.689,72.148c-1.13-0.16-2.01,0.84-2.24,2.51c-0.25,1.84,0.39,3.14,1.64,3.31
		c0.43,0.06,0.84-0.03,1.13-0.3c0.17-0.14,0.3-0.31,0.31-0.41l0.47-3.42C162.109,73.058,161.489,72.258,160.689,72.148z
		 M171.129,248.738c-0.31-1.76-1.02-3.07-1.95-3.65c-0.62-0.37-1.35-0.51-2.02-0.39c-0.82,0.14-1.48,0.6-1.94,1.34
		c-0.5,0.8-0.65,2.31-0.38,3.82c0.3,1.64,1.05,3.04,1.93,3.58c0.61,0.36,1.33,0.51,2,0.39c0.79-0.14,1.4-0.53,1.83-1.14
		c0.27-0.4,0.46-0.81,0.53-1.21C171.299,250.658,171.289,249.608,171.129,248.738z M178.769,73.658c-0.39-0.61-0.98-1.06-1.64-1.25
		c-0.79-0.22-1.59-0.11-2.33,0.35c-0.8,0.51-1.6,1.79-2.02,3.26c-0.46,1.6-0.4,3.19,0.15,4.06c0.39,0.6,0.97,1.05,1.63,1.23
		c0.76,0.22,1.49,0.15,2.13-0.21c0.43-0.24,0.78-0.53,1.01-0.85c0.52-0.67,0.97-1.61,1.22-2.46
		C179.409,76.068,179.349,74.588,178.769,73.658z M196.859,83.708c-0.81-0.42-1.52-0.16-2.2,0.8l2.71,1.41
		C197.799,84.678,197.679,84.138,196.859,83.708z M171.129,248.738c-0.31-1.76-1.02-3.07-1.95-3.65c-0.62-0.37-1.35-0.51-2.02-0.39
		c-0.82,0.14-1.48,0.6-1.94,1.34c-0.5,0.8-0.65,2.31-0.38,3.82c0.3,1.64,1.05,3.04,1.93,3.58c0.61,0.36,1.33,0.51,2,0.39
		c0.79-0.14,1.4-0.53,1.83-1.14c0.27-0.4,0.46-0.81,0.53-1.21C171.299,250.658,171.289,249.608,171.129,248.738z M154.099,250.788
		c-0.01-0.79-0.74-1.48-1.55-1.47c-1.14,0.02-1.86,1.14-1.83,2.82c0.03,1.86,0.86,3.05,2.12,3.03c0.44-0.01,0.83-0.17,1.07-0.47
		c0.15-0.17,0.25-0.35,0.25-0.46L154.099,250.788z M138.669,248.708c-1.07-0.12-1.86,0.73-2.02,2.15c-0.12,1.06,0.01,2.13,0.34,2.95
		c0.24,0.63,0.75,1.05,1.34,1.12c1.11,0.12,1.9-0.8,2.09-2.5C140.639,250.378,139.919,248.848,138.669,248.708z M146.269,71.138
		c-1.08-0.01-1.77,0.92-1.78,2.34c-0.01,1.07,0.22,2.12,0.64,2.9c0.31,0.6,0.86,0.97,1.45,0.97c1.12,0.01,1.8-0.99,1.81-2.7
		C148.409,72.598,147.529,71.148,146.269,71.138z M160.689,72.148c-1.13-0.16-2.01,0.84-2.24,2.51c-0.25,1.84,0.39,3.14,1.64,3.31
		c0.43,0.06,0.84-0.03,1.13-0.3c0.17-0.14,0.3-0.31,0.31-0.41l0.47-3.42C162.109,73.058,161.489,72.258,160.689,72.148z
		 M178.769,73.658c-0.39-0.61-0.98-1.06-1.64-1.25c-0.79-0.22-1.59-0.11-2.33,0.35c-0.8,0.51-1.6,1.79-2.02,3.26
		c-0.46,1.6-0.4,3.19,0.15,4.06c0.39,0.6,0.97,1.05,1.63,1.23c0.76,0.22,1.49,0.15,2.13-0.21c0.43-0.24,0.78-0.53,1.01-0.85
		c0.52-0.67,0.97-1.61,1.22-2.46C179.409,76.068,179.349,74.588,178.769,73.658z M196.859,83.708c-0.81-0.42-1.52-0.16-2.2,0.8
		l2.71,1.41C197.799,84.678,197.679,84.138,196.859,83.708z M138.669,248.708c-1.07-0.12-1.86,0.73-2.02,2.15
		c-0.12,1.06,0.01,2.13,0.34,2.95c0.24,0.63,0.75,1.05,1.34,1.12c1.11,0.12,1.9-0.8,2.09-2.5
		C140.639,250.378,139.919,248.848,138.669,248.708z M146.269,71.138c-1.08-0.01-1.77,0.92-1.78,2.34c-0.01,1.07,0.22,2.12,0.64,2.9
		c0.31,0.6,0.86,0.97,1.45,0.97c1.12,0.01,1.8-0.99,1.81-2.7C148.409,72.598,147.529,71.148,146.269,71.138z M154.099,250.788
		c-0.01-0.79-0.74-1.48-1.55-1.47c-1.14,0.02-1.86,1.14-1.83,2.82c0.03,1.86,0.86,3.05,2.12,3.03c0.44-0.01,0.83-0.17,1.07-0.47
		c0.15-0.17,0.25-0.35,0.25-0.46L154.099,250.788z M160.689,72.148c-1.13-0.16-2.01,0.84-2.24,2.51c-0.25,1.84,0.39,3.14,1.64,3.31
		c0.43,0.06,0.84-0.03,1.13-0.3c0.17-0.14,0.3-0.31,0.31-0.41l0.47-3.42C162.109,73.058,161.489,72.258,160.689,72.148z
		 M171.129,248.738c-0.31-1.76-1.02-3.07-1.95-3.65c-0.62-0.37-1.35-0.51-2.02-0.39c-0.82,0.14-1.48,0.6-1.94,1.34
		c-0.5,0.8-0.65,2.31-0.38,3.82c0.3,1.64,1.05,3.04,1.93,3.58c0.61,0.36,1.33,0.51,2,0.39c0.79-0.14,1.4-0.53,1.83-1.14
		c0.27-0.4,0.46-0.81,0.53-1.21C171.299,250.658,171.289,249.608,171.129,248.738z M178.769,73.658c-0.39-0.61-0.98-1.06-1.64-1.25
		c-0.79-0.22-1.59-0.11-2.33,0.35c-0.8,0.51-1.6,1.79-2.02,3.26c-0.46,1.6-0.4,3.19,0.15,4.06c0.39,0.6,0.97,1.05,1.63,1.23
		c0.76,0.22,1.49,0.15,2.13-0.21c0.43-0.24,0.78-0.53,1.01-0.85c0.52-0.67,0.97-1.61,1.22-2.46
		C179.409,76.068,179.349,74.588,178.769,73.658z M188.159,241.858c-0.85,0.35-1.1,1.06-0.8,2.2l2.82-1.18
		C189.489,241.748,188.999,241.498,188.159,241.858z M196.859,83.708c-0.81-0.42-1.52-0.16-2.2,0.8l2.71,1.41
		C197.799,84.678,197.679,84.138,196.859,83.708z M188.159,241.858c-0.85,0.35-1.1,1.06-0.8,2.2l2.82-1.18
		C189.489,241.748,188.999,241.498,188.159,241.858z M171.129,248.738c-0.31-1.76-1.02-3.07-1.95-3.65
		c-0.62-0.37-1.35-0.51-2.02-0.39c-0.82,0.14-1.48,0.6-1.94,1.34c-0.5,0.8-0.65,2.31-0.38,3.82c0.3,1.64,1.05,3.04,1.93,3.58
		c0.61,0.36,1.33,0.51,2,0.39c0.79-0.14,1.4-0.53,1.83-1.14c0.27-0.4,0.46-0.81,0.53-1.21
		C171.299,250.658,171.289,249.608,171.129,248.738z M154.099,250.788c-0.01-0.79-0.74-1.48-1.55-1.47
		c-1.14,0.02-1.86,1.14-1.83,2.82c0.03,1.86,0.86,3.05,2.12,3.03c0.44-0.01,0.83-0.17,1.07-0.47c0.15-0.17,0.25-0.35,0.25-0.46
		L154.099,250.788z M138.669,248.708c-1.07-0.12-1.86,0.73-2.02,2.15c-0.12,1.06,0.01,2.13,0.34,2.95c0.24,0.63,0.75,1.05,1.34,1.12
		c1.11,0.12,1.9-0.8,2.09-2.5C140.639,250.378,139.919,248.848,138.669,248.708z M146.269,71.138c-1.08-0.01-1.77,0.92-1.78,2.34
		c-0.01,1.07,0.22,2.12,0.64,2.9c0.31,0.6,0.86,0.97,1.45,0.97c1.12,0.01,1.8-0.99,1.81-2.7
		C148.409,72.598,147.529,71.148,146.269,71.138z M160.689,72.148c-1.13-0.16-2.01,0.84-2.24,2.51c-0.25,1.84,0.39,3.14,1.64,3.31
		c0.43,0.06,0.84-0.03,1.13-0.3c0.17-0.14,0.3-0.31,0.31-0.41l0.47-3.42C162.109,73.058,161.489,72.258,160.689,72.148z
		 M178.769,73.658c-0.39-0.61-0.98-1.06-1.64-1.25c-0.79-0.22-1.59-0.11-2.33,0.35c-0.8,0.51-1.6,1.79-2.02,3.26
		c-0.46,1.6-0.4,3.19,0.15,4.06c0.39,0.6,0.97,1.05,1.63,1.23c0.76,0.22,1.49,0.15,2.13-0.21c0.43-0.24,0.78-0.53,1.01-0.85
		c0.52-0.67,0.97-1.61,1.22-2.46C179.409,76.068,179.349,74.588,178.769,73.658z M196.859,83.708c-0.81-0.42-1.52-0.16-2.2,0.8
		l2.71,1.41C197.799,84.678,197.679,84.138,196.859,83.708z M138.669,248.708c-1.07-0.12-1.86,0.73-2.02,2.15
		c-0.12,1.06,0.01,2.13,0.34,2.95c0.24,0.63,0.75,1.05,1.34,1.12c1.11,0.12,1.9-0.8,2.09-2.5
		C140.639,250.378,139.919,248.848,138.669,248.708z M146.269,71.138c-1.08-0.01-1.77,0.92-1.78,2.34c-0.01,1.07,0.22,2.12,0.64,2.9
		c0.31,0.6,0.86,0.97,1.45,0.97c1.12,0.01,1.8-0.99,1.81-2.7C148.409,72.598,147.529,71.148,146.269,71.138z M154.099,250.788
		c-0.01-0.79-0.74-1.48-1.55-1.47c-1.14,0.02-1.86,1.14-1.83,2.82c0.03,1.86,0.86,3.05,2.12,3.03c0.44-0.01,0.83-0.17,1.07-0.47
		c0.15-0.17,0.25-0.35,0.25-0.46L154.099,250.788z M160.689,72.148c-1.13-0.16-2.01,0.84-2.24,2.51c-0.25,1.84,0.39,3.14,1.64,3.31
		c0.43,0.06,0.84-0.03,1.13-0.3c0.17-0.14,0.3-0.31,0.31-0.41l0.47-3.42C162.109,73.058,161.489,72.258,160.689,72.148z
		 M171.129,248.738c-0.31-1.76-1.02-3.07-1.95-3.65c-0.62-0.37-1.35-0.51-2.02-0.39c-0.82,0.14-1.48,0.6-1.94,1.34
		c-0.5,0.8-0.65,2.31-0.38,3.82c0.3,1.64,1.05,3.04,1.93,3.58c0.61,0.36,1.33,0.51,2,0.39c0.79-0.14,1.4-0.53,1.83-1.14
		c0.27-0.4,0.46-0.81,0.53-1.21C171.299,250.658,171.289,249.608,171.129,248.738z M178.769,73.658c-0.39-0.61-0.98-1.06-1.64-1.25
		c-0.79-0.22-1.59-0.11-2.33,0.35c-0.8,0.51-1.6,1.79-2.02,3.26c-0.46,1.6-0.4,3.19,0.15,4.06c0.39,0.6,0.97,1.05,1.63,1.23
		c0.76,0.22,1.49,0.15,2.13-0.21c0.43-0.24,0.78-0.53,1.01-0.85c0.52-0.67,0.97-1.61,1.22-2.46
		C179.409,76.068,179.349,74.588,178.769,73.658z M188.159,241.858c-0.85,0.35-1.1,1.06-0.8,2.2l2.82-1.18
		C189.489,241.748,188.999,241.498,188.159,241.858z M196.859,83.708c-0.81-0.42-1.52-0.16-2.2,0.8l2.71,1.41
		C197.799,84.678,197.679,84.138,196.859,83.708z M188.159,241.858c-0.85,0.35-1.1,1.06-0.8,2.2l2.82-1.18
		C189.489,241.748,188.999,241.498,188.159,241.858z M171.129,248.738c-0.31-1.76-1.02-3.07-1.95-3.65
		c-0.62-0.37-1.35-0.51-2.02-0.39c-0.82,0.14-1.48,0.6-1.94,1.34c-0.5,0.8-0.65,2.31-0.38,3.82c0.3,1.64,1.05,3.04,1.93,3.58
		c0.61,0.36,1.33,0.51,2,0.39c0.79-0.14,1.4-0.53,1.83-1.14c0.27-0.4,0.46-0.81,0.53-1.21
		C171.299,250.658,171.289,249.608,171.129,248.738z M154.099,250.788c-0.01-0.79-0.74-1.48-1.55-1.47
		c-1.14,0.02-1.86,1.14-1.83,2.82c0.03,1.86,0.86,3.05,2.12,3.03c0.44-0.01,0.83-0.17,1.07-0.47c0.15-0.17,0.25-0.35,0.25-0.46
		L154.099,250.788z M138.669,248.708c-1.07-0.12-1.86,0.73-2.02,2.15c-0.12,1.06,0.01,2.13,0.34,2.95c0.24,0.63,0.75,1.05,1.34,1.12
		c1.11,0.12,1.9-0.8,2.09-2.5C140.639,250.378,139.919,248.848,138.669,248.708z M146.269,71.138c-1.08-0.01-1.77,0.92-1.78,2.34
		c-0.01,1.07,0.22,2.12,0.64,2.9c0.31,0.6,0.86,0.97,1.45,0.97c1.12,0.01,1.8-0.99,1.81-2.7
		C148.409,72.598,147.529,71.148,146.269,71.138z M160.689,72.148c-1.13-0.16-2.01,0.84-2.24,2.51c-0.25,1.84,0.39,3.14,1.64,3.31
		c0.43,0.06,0.84-0.03,1.13-0.3c0.17-0.14,0.3-0.31,0.31-0.41l0.47-3.42C162.109,73.058,161.489,72.258,160.689,72.148z
		 M178.769,73.658c-0.39-0.61-0.98-1.06-1.64-1.25c-0.79-0.22-1.59-0.11-2.33,0.35c-0.8,0.51-1.6,1.79-2.02,3.26
		c-0.46,1.6-0.4,3.19,0.15,4.06c0.39,0.6,0.97,1.05,1.63,1.23c0.76,0.22,1.49,0.15,2.13-0.21c0.43-0.24,0.78-0.53,1.01-0.85
		c0.52-0.67,0.97-1.61,1.22-2.46C179.409,76.068,179.349,74.588,178.769,73.658z M196.859,83.708c-0.81-0.42-1.52-0.16-2.2,0.8
		l2.71,1.41C197.799,84.678,197.679,84.138,196.859,83.708z M138.669,248.708c-1.07-0.12-1.86,0.73-2.02,2.15
		c-0.12,1.06,0.01,2.13,0.34,2.95c0.24,0.63,0.75,1.05,1.34,1.12c1.11,0.12,1.9-0.8,2.09-2.5
		C140.639,250.378,139.919,248.848,138.669,248.708z M146.269,71.138c-1.08-0.01-1.77,0.92-1.78,2.34c-0.01,1.07,0.22,2.12,0.64,2.9
		c0.31,0.6,0.86,0.97,1.45,0.97c1.12,0.01,1.8-0.99,1.81-2.7C148.409,72.598,147.529,71.148,146.269,71.138z M154.099,250.788
		c-0.01-0.79-0.74-1.48-1.55-1.47c-1.14,0.02-1.86,1.14-1.83,2.82c0.03,1.86,0.86,3.05,2.12,3.03c0.44-0.01,0.83-0.17,1.07-0.47
		c0.15-0.17,0.25-0.35,0.25-0.46L154.099,250.788z M160.689,72.148c-1.13-0.16-2.01,0.84-2.24,2.51c-0.25,1.84,0.39,3.14,1.64,3.31
		c0.43,0.06,0.84-0.03,1.13-0.3c0.17-0.14,0.3-0.31,0.31-0.41l0.47-3.42C162.109,73.058,161.489,72.258,160.689,72.148z
		 M171.129,248.738c-0.31-1.76-1.02-3.07-1.95-3.65c-0.62-0.37-1.35-0.51-2.02-0.39c-0.82,0.14-1.48,0.6-1.94,1.34
		c-0.5,0.8-0.65,2.31-0.38,3.82c0.3,1.64,1.05,3.04,1.93,3.58c0.61,0.36,1.33,0.51,2,0.39c0.79-0.14,1.4-0.53,1.83-1.14
		c0.27-0.4,0.46-0.81,0.53-1.21C171.299,250.658,171.289,249.608,171.129,248.738z M178.769,73.658c-0.39-0.61-0.98-1.06-1.64-1.25
		c-0.79-0.22-1.59-0.11-2.33,0.35c-0.8,0.51-1.6,1.79-2.02,3.26c-0.46,1.6-0.4,3.19,0.15,4.06c0.39,0.6,0.97,1.05,1.63,1.23
		c0.76,0.22,1.49,0.15,2.13-0.21c0.43-0.24,0.78-0.53,1.01-0.85c0.52-0.67,0.97-1.61,1.22-2.46
		C179.409,76.068,179.349,74.588,178.769,73.658z M188.159,241.858c-0.85,0.35-1.1,1.06-0.8,2.2l2.82-1.18
		C189.489,241.748,188.999,241.498,188.159,241.858z M196.859,83.708c-0.81-0.42-1.52-0.16-2.2,0.8l2.71,1.41
		C197.799,84.678,197.679,84.138,196.859,83.708z M188.159,241.858c-0.85,0.35-1.1,1.06-0.8,2.2l2.82-1.18
		C189.489,241.748,188.999,241.498,188.159,241.858z M171.129,248.738c-0.31-1.76-1.02-3.07-1.95-3.65
		c-0.62-0.37-1.35-0.51-2.02-0.39c-0.82,0.14-1.48,0.6-1.94,1.34c-0.5,0.8-0.65,2.31-0.38,3.82c0.3,1.64,1.05,3.04,1.93,3.58
		c0.61,0.36,1.33,0.51,2,0.39c0.79-0.14,1.4-0.53,1.83-1.14c0.27-0.4,0.46-0.81,0.53-1.21
		C171.299,250.658,171.289,249.608,171.129,248.738z M154.099,250.788c-0.01-0.79-0.74-1.48-1.55-1.47
		c-1.14,0.02-1.86,1.14-1.83,2.82c0.03,1.86,0.86,3.05,2.12,3.03c0.44-0.01,0.83-0.17,1.07-0.47c0.15-0.17,0.25-0.35,0.25-0.46
		L154.099,250.788z M138.669,248.708c-1.07-0.12-1.86,0.73-2.02,2.15c-0.12,1.06,0.01,2.13,0.34,2.95c0.24,0.63,0.75,1.05,1.34,1.12
		c1.11,0.12,1.9-0.8,2.09-2.5C140.639,250.378,139.919,248.848,138.669,248.708z M146.269,71.138c-1.08-0.01-1.77,0.92-1.78,2.34
		c-0.01,1.07,0.22,2.12,0.64,2.9c0.31,0.6,0.86,0.97,1.45,0.97c1.12,0.01,1.8-0.99,1.81-2.7
		C148.409,72.598,147.529,71.148,146.269,71.138z M160.689,72.148c-1.13-0.16-2.01,0.84-2.24,2.51c-0.25,1.84,0.39,3.14,1.64,3.31
		c0.43,0.06,0.84-0.03,1.13-0.3c0.17-0.14,0.3-0.31,0.31-0.41l0.47-3.42C162.109,73.058,161.489,72.258,160.689,72.148z
		 M178.769,73.658c-0.39-0.61-0.98-1.06-1.64-1.25c-0.79-0.22-1.59-0.11-2.33,0.35c-0.8,0.51-1.6,1.79-2.02,3.26
		c-0.46,1.6-0.4,3.19,0.15,4.06c0.39,0.6,0.97,1.05,1.63,1.23c0.76,0.22,1.49,0.15,2.13-0.21c0.43-0.24,0.78-0.53,1.01-0.85
		c0.52-0.67,0.97-1.61,1.22-2.46C179.409,76.068,179.349,74.588,178.769,73.658z M196.859,83.708c-0.81-0.42-1.52-0.16-2.2,0.8
		l2.71,1.41C197.799,84.678,197.679,84.138,196.859,83.708z M138.669,248.708c-1.07-0.12-1.86,0.73-2.02,2.15
		c-0.12,1.06,0.01,2.13,0.34,2.95c0.24,0.63,0.75,1.05,1.34,1.12c1.11,0.12,1.9-0.8,2.09-2.5
		C140.639,250.378,139.919,248.848,138.669,248.708z M146.269,71.138c-1.08-0.01-1.77,0.92-1.78,2.34c-0.01,1.07,0.22,2.12,0.64,2.9
		c0.31,0.6,0.86,0.97,1.45,0.97c1.12,0.01,1.8-0.99,1.81-2.7C148.409,72.598,147.529,71.148,146.269,71.138z M154.099,250.788
		c-0.01-0.79-0.74-1.48-1.55-1.47c-1.14,0.02-1.86,1.14-1.83,2.82c0.03,1.86,0.86,3.05,2.12,3.03c0.44-0.01,0.83-0.17,1.07-0.47
		c0.15-0.17,0.25-0.35,0.25-0.46L154.099,250.788z M160.689,72.148c-1.13-0.16-2.01,0.84-2.24,2.51c-0.25,1.84,0.39,3.14,1.64,3.31
		c0.43,0.06,0.84-0.03,1.13-0.3c0.17-0.14,0.3-0.31,0.31-0.41l0.47-3.42C162.109,73.058,161.489,72.258,160.689,72.148z
		 M171.129,248.738c-0.31-1.76-1.02-3.07-1.95-3.65c-0.62-0.37-1.35-0.51-2.02-0.39c-0.82,0.14-1.48,0.6-1.94,1.34
		c-0.5,0.8-0.65,2.31-0.38,3.82c0.3,1.64,1.05,3.04,1.93,3.58c0.61,0.36,1.33,0.51,2,0.39c0.79-0.14,1.4-0.53,1.83-1.14
		c0.27-0.4,0.46-0.81,0.53-1.21C171.299,250.658,171.289,249.608,171.129,248.738z M178.769,73.658c-0.39-0.61-0.98-1.06-1.64-1.25
		c-0.79-0.22-1.59-0.11-2.33,0.35c-0.8,0.51-1.6,1.79-2.02,3.26c-0.46,1.6-0.4,3.19,0.15,4.06c0.39,0.6,0.97,1.05,1.63,1.23
		c0.76,0.22,1.49,0.15,2.13-0.21c0.43-0.24,0.78-0.53,1.01-0.85c0.52-0.67,0.97-1.61,1.22-2.46
		C179.409,76.068,179.349,74.588,178.769,73.658z M188.159,241.858c-0.85,0.35-1.1,1.06-0.8,2.2l2.82-1.18
		C189.489,241.748,188.999,241.498,188.159,241.858z M196.859,83.708c-0.81-0.42-1.52-0.16-2.2,0.8l2.71,1.41
		C197.799,84.678,197.679,84.138,196.859,83.708z M188.159,241.858c-0.85,0.35-1.1,1.06-0.8,2.2l2.82-1.18
		C189.489,241.748,188.999,241.498,188.159,241.858z M171.129,248.738c-0.31-1.76-1.02-3.07-1.95-3.65
		c-0.62-0.37-1.35-0.51-2.02-0.39c-0.82,0.14-1.48,0.6-1.94,1.34c-0.5,0.8-0.65,2.31-0.38,3.82c0.3,1.64,1.05,3.04,1.93,3.58
		c0.61,0.36,1.33,0.51,2,0.39c0.79-0.14,1.4-0.53,1.83-1.14c0.27-0.4,0.46-0.81,0.53-1.21
		C171.299,250.658,171.289,249.608,171.129,248.738z M154.099,250.788c-0.01-0.79-0.74-1.48-1.55-1.47
		c-1.14,0.02-1.86,1.14-1.83,2.82c0.03,1.86,0.86,3.05,2.12,3.03c0.44-0.01,0.83-0.17,1.07-0.47c0.15-0.17,0.25-0.35,0.25-0.46
		L154.099,250.788z M138.669,248.708c-1.07-0.12-1.86,0.73-2.02,2.15c-0.12,1.06,0.01,2.13,0.34,2.95c0.24,0.63,0.75,1.05,1.34,1.12
		c1.11,0.12,1.9-0.8,2.09-2.5C140.639,250.378,139.919,248.848,138.669,248.708z M146.269,71.138c-1.08-0.01-1.77,0.92-1.78,2.34
		c-0.01,1.07,0.22,2.12,0.64,2.9c0.31,0.6,0.86,0.97,1.45,0.97c1.12,0.01,1.8-0.99,1.81-2.7
		C148.409,72.598,147.529,71.148,146.269,71.138z M160.689,72.148c-1.13-0.16-2.01,0.84-2.24,2.51c-0.25,1.84,0.39,3.14,1.64,3.31
		c0.43,0.06,0.84-0.03,1.13-0.3c0.17-0.14,0.3-0.31,0.31-0.41l0.47-3.42C162.109,73.058,161.489,72.258,160.689,72.148z
		 M178.769,73.658c-0.39-0.61-0.98-1.06-1.64-1.25c-0.79-0.22-1.59-0.11-2.33,0.35c-0.8,0.51-1.6,1.79-2.02,3.26
		c-0.46,1.6-0.4,3.19,0.15,4.06c0.39,0.6,0.97,1.05,1.63,1.23c0.76,0.22,1.49,0.15,2.13-0.21c0.43-0.24,0.78-0.53,1.01-0.85
		c0.52-0.67,0.97-1.61,1.22-2.46C179.409,76.068,179.349,74.588,178.769,73.658z M196.859,83.708c-0.81-0.42-1.52-0.16-2.2,0.8
		l2.71,1.41C197.799,84.678,197.679,84.138,196.859,83.708z M138.669,248.708c-1.07-0.12-1.86,0.73-2.02,2.15
		c-0.12,1.06,0.01,2.13,0.34,2.95c0.24,0.63,0.75,1.05,1.34,1.12c1.11,0.12,1.9-0.8,2.09-2.5
		C140.639,250.378,139.919,248.848,138.669,248.708z M146.269,71.138c-1.08-0.01-1.77,0.92-1.78,2.34c-0.01,1.07,0.22,2.12,0.64,2.9
		c0.31,0.6,0.86,0.97,1.45,0.97c1.12,0.01,1.8-0.99,1.81-2.7C148.409,72.598,147.529,71.148,146.269,71.138z M154.099,250.788
		c-0.01-0.79-0.74-1.48-1.55-1.47c-1.14,0.02-1.86,1.14-1.83,2.82c0.03,1.86,0.86,3.05,2.12,3.03c0.44-0.01,0.83-0.17,1.07-0.47
		c0.15-0.17,0.25-0.35,0.25-0.46L154.099,250.788z M160.689,72.148c-1.13-0.16-2.01,0.84-2.24,2.51c-0.25,1.84,0.39,3.14,1.64,3.31
		c0.43,0.06,0.84-0.03,1.13-0.3c0.17-0.14,0.3-0.31,0.31-0.41l0.47-3.42C162.109,73.058,161.489,72.258,160.689,72.148z
		 M171.129,248.738c-0.31-1.76-1.02-3.07-1.95-3.65c-0.62-0.37-1.35-0.51-2.02-0.39c-0.82,0.14-1.48,0.6-1.94,1.34
		c-0.5,0.8-0.65,2.31-0.38,3.82c0.3,1.64,1.05,3.04,1.93,3.58c0.61,0.36,1.33,0.51,2,0.39c0.79-0.14,1.4-0.53,1.83-1.14
		c0.27-0.4,0.46-0.81,0.53-1.21C171.299,250.658,171.289,249.608,171.129,248.738z M178.769,73.658c-0.39-0.61-0.98-1.06-1.64-1.25
		c-0.79-0.22-1.59-0.11-2.33,0.35c-0.8,0.51-1.6,1.79-2.02,3.26c-0.46,1.6-0.4,3.19,0.15,4.06c0.39,0.6,0.97,1.05,1.63,1.23
		c0.76,0.22,1.49,0.15,2.13-0.21c0.43-0.24,0.78-0.53,1.01-0.85c0.52-0.67,0.97-1.61,1.22-2.46
		C179.409,76.068,179.349,74.588,178.769,73.658z M188.159,241.858c-0.85,0.35-1.1,1.06-0.8,2.2l2.82-1.18
		C189.489,241.748,188.999,241.498,188.159,241.858z M196.859,83.708c-0.81-0.42-1.52-0.16-2.2,0.8l2.71,1.41
		C197.799,84.678,197.679,84.138,196.859,83.708z M188.159,241.858c-0.85,0.35-1.1,1.06-0.8,2.2l2.82-1.18
		C189.489,241.748,188.999,241.498,188.159,241.858z M171.129,248.738c-0.31-1.76-1.02-3.07-1.95-3.65
		c-0.62-0.37-1.35-0.51-2.02-0.39c-0.82,0.14-1.48,0.6-1.94,1.34c-0.5,0.8-0.65,2.31-0.38,3.82c0.3,1.64,1.05,3.04,1.93,3.58
		c0.61,0.36,1.33,0.51,2,0.39c0.79-0.14,1.4-0.53,1.83-1.14c0.27-0.4,0.46-0.81,0.53-1.21
		C171.299,250.658,171.289,249.608,171.129,248.738z M154.099,250.788c-0.01-0.79-0.74-1.48-1.55-1.47
		c-1.14,0.02-1.86,1.14-1.83,2.82c0.03,1.86,0.86,3.05,2.12,3.03c0.44-0.01,0.83-0.17,1.07-0.47c0.15-0.17,0.25-0.35,0.25-0.46
		L154.099,250.788z M138.669,248.708c-1.07-0.12-1.86,0.73-2.02,2.15c-0.12,1.06,0.01,2.13,0.34,2.95c0.24,0.63,0.75,1.05,1.34,1.12
		c1.11,0.12,1.9-0.8,2.09-2.5C140.639,250.378,139.919,248.848,138.669,248.708z M146.269,71.138c-1.08-0.01-1.77,0.92-1.78,2.34
		c-0.01,1.07,0.22,2.12,0.64,2.9c0.31,0.6,0.86,0.97,1.45,0.97c1.12,0.01,1.8-0.99,1.81-2.7
		C148.409,72.598,147.529,71.148,146.269,71.138z M160.689,72.148c-1.13-0.16-2.01,0.84-2.24,2.51c-0.25,1.84,0.39,3.14,1.64,3.31
		c0.43,0.06,0.84-0.03,1.13-0.3c0.17-0.14,0.3-0.31,0.31-0.41l0.47-3.42C162.109,73.058,161.489,72.258,160.689,72.148z
		 M178.769,73.658c-0.39-0.61-0.98-1.06-1.64-1.25c-0.79-0.22-1.59-0.11-2.33,0.35c-0.8,0.51-1.6,1.79-2.02,3.26
		c-0.46,1.6-0.4,3.19,0.15,4.06c0.39,0.6,0.97,1.05,1.63,1.23c0.76,0.22,1.49,0.15,2.13-0.21c0.43-0.24,0.78-0.53,1.01-0.85
		c0.52-0.67,0.97-1.61,1.22-2.46C179.409,76.068,179.349,74.588,178.769,73.658z M196.859,83.708c-0.81-0.42-1.52-0.16-2.2,0.8
		l2.71,1.41C197.799,84.678,197.679,84.138,196.859,83.708z M147.179,55.538c-58.18,0-105.34,47.16-105.34,105.33
		c0,58.17,47.16,105.33,105.34,105.33c58.17,0,105.33-47.16,105.33-105.33C252.509,102.698,205.349,55.538,147.179,55.538z
		 M199.549,91.018l1.94-3.21c0.35-0.57,0.35-0.84,0.03-1.04c-0.15-0.09-0.27-0.15-0.48-0.22l0.13-0.2c0.86,0.2,1.43,0.3,2.32,0.45
		l0.05,0.07l-0.72,1.18c1.2-0.54,1.73-0.6,2.27-0.28c0.44,0.27,0.55,0.69,0.3,1.11c-0.22,0.36-0.55,0.46-0.85,0.28
		c-0.17-0.1-0.29-0.26-0.36-0.57c-0.07-0.21-0.14-0.35-0.22-0.39c-0.36-0.22-1.29,0.09-1.53,0.5l-1.75,2.89
		c-0.44,0.77-0.34,1.08,0.5,1.62l-0.11,0.2l-3.08-1.87l0.11-0.19C198.999,91.698,199.119,91.668,199.549,91.018z M197.499,83.438
		c0.69,0.36,1.16,0.95,1.31,1.64c0.11,0.6,0.04,1.06-0.3,1.97l-4.1-2.13c-0.41,0.84-0.54,1.31-0.56,1.94
		c-0.01,0.96,0.36,1.65,1.12,2.04c0.85,0.45,1.63,0.36,2.79-0.32l0.17,0.2c-1.31,1.15-2.72,1.42-3.98,0.76
		c-1.53-0.8-1.9-2.44-0.94-4.28c0.57-1.09,1.42-1.85,2.33-2.07C196.079,82.998,196.829,83.088,197.499,83.438z M191.839,78.188
		c0.63-0.46,1.5-0.51,2.37-0.12c0.82,0.36,1.26,0.99,1.04,1.48c-0.14,0.32-0.49,0.45-0.82,0.31c-0.24-0.11-0.34-0.32-0.4-0.77
		c-0.07-0.51-0.19-0.72-0.49-0.86c-0.52-0.23-0.96,0.06-1.32,0.87l-0.71,1.59l1.68,0.75l-0.19,0.44l-1.67-0.75l-1.92,4.31
		c-0.46,1.02-0.38,1.24,0.73,1.79l-0.09,0.2l-3.57-1.59l0.1-0.21c0.99,0.4,1.19,0.31,1.68-0.71l1.92-4.3l-1.13-0.5l0.2-0.44
		l1.12,0.5C190.879,79.088,191.209,78.648,191.839,78.188z M180.909,83.428c1.01,0.34,1.21,0.24,1.63-0.81l1.67-4.4l-1.15-0.44
		l0.17-0.45l1.15,0.44c0.44-1.12,0.75-1.58,1.35-2.08c0.6-0.49,1.48-0.59,2.36-0.26c0.84,0.32,1.32,0.92,1.13,1.43
		c-0.12,0.32-0.47,0.48-0.81,0.35c-0.23-0.09-0.35-0.3-0.43-0.75c-0.1-0.5-0.23-0.71-0.54-0.82c-0.53-0.21-0.96,0.11-1.28,0.94
		l-0.61,1.63l1.72,0.65l-0.17,0.45l-1.71-0.65l-1.67,4.41c-0.4,1.05-0.3,1.27,0.84,1.74l-0.08,0.21l-3.65-1.38L180.909,83.428z
		 M171.139,75.518c0.84-2.91,3.38-4.41,6.14-3.63c1.38,0.4,2.45,1.26,3.07,2.52c0.55,1.07,0.61,2.43,0.21,3.86
		c-0.83,2.91-3.37,4.36-6.21,3.55c-1.27-0.36-2.39-1.29-2.97-2.44C170.839,78.338,170.759,76.878,171.139,75.518z M157.089,75.088
		c0.29-2.11,1.9-3.6,3.61-3.36c0.6,0.08,0.98,0.3,1.48,0.85l0.31-2.32c0.09-0.61-0.03-0.77-0.58-0.85c-0.13-0.02-0.2-0.03-0.33-0.03
		l0.04-0.24c1.01-0.12,1.54-0.21,2.27-0.35l0.07,0.04l-1.16,8.42c-0.09,0.69,0.02,0.87,0.54,0.94c0.06,0.01,0.15,0.02,0.35,0.03
		l-0.04,0.24l-2.29,0.47l-0.05-0.05l0.13-0.95c-0.6,0.63-1.21,0.85-2.04,0.74C157.749,78.438,156.829,76.988,157.089,75.088z
		 M151.469,77.538c0.93,0,1.16-0.19,1.23-1l0.51-7.14c0.05-0.7-0.08-0.92-0.56-0.96h-0.47l-0.09-0.01l0.02-0.23
		c1.08-0.18,1.64-0.31,2.42-0.49l0.06,0.03l-0.64,8.94c-0.04,0.84,0.11,1,1.05,1.11l-0.02,0.22l-3.53-0.25L151.469,77.538z
		 M146.469,70.718c1.92,0.01,3.29,1.43,3.28,3.41c-0.02,2.09-1.47,3.65-3.36,3.64c-1.89-0.01-3.27-1.52-3.26-3.56
		C143.149,72.138,144.509,70.708,146.469,70.718z M139.059,74.908c-0.42-0.54-1.24-1.08-2.36-1.58c-1.75-0.75-2.47-1.54-2.56-2.74
		c-0.06-0.78,0.16-1.43,0.65-1.93c0.46-0.47,1.1-0.78,1.73-0.82c0.49-0.04,1.05,0.04,1.62,0.2c0.27,0.1,0.53,0.14,0.68,0.13
		c0.25-0.02,0.4-0.21,0.44-0.54l0.31-0.03l0.57,3.16l-0.37,0.03c-0.31-0.86-0.55-1.23-1.05-1.68c-0.56-0.5-1.21-0.73-1.89-0.68
		c-0.92,0.07-1.51,0.67-1.45,1.49c0.07,0.83,0.75,1.44,2.38,2.17c2.06,0.93,2.95,1.82,3.05,3.05c0.12,1.55-1.11,2.83-2.84,2.97
		c-0.59,0.04-1.21-0.03-1.79-0.21c-0.3-0.09-0.56-0.13-0.72-0.11c-0.22,0.01-0.39,0.24-0.38,0.52l-0.33,0.03l-0.69-3.14l0.34-0.03
		c0.89,1.77,1.88,2.52,3.23,2.42c1.09-0.08,1.78-0.83,1.71-1.82C139.309,75.398,139.209,75.088,139.059,74.908z M123.099,73.218
		c0.38-0.33,0.72-0.92,1.34-2.32c0.08-0.01,0.11,0.03,0.14,0.17l0.33,1.71l1.48-0.28l0.09,0.47l-1.48,0.28l0.79,4.22
		c0.18,0.93,0.47,1.28,1.02,1.18c0.32-0.06,0.53-0.24,0.78-0.68l0.23,0.12c-0.34,0.86-0.84,1.32-1.56,1.46
		c-0.87,0.16-1.43-0.39-1.67-1.63l-0.83-4.43l-0.78,0.15c-0.05-0.03-0.07-0.05-0.08-0.1
		C122.879,73.458,122.949,73.348,123.099,73.218z M118.509,74.018c0.35-0.09,0.7-0.1,1.06-0.07c0.18,0.04,0.33,0.03,0.42,0.01
		c0.09-0.02,0.15-0.08,0.2-0.22l0.16-0.04l0.54,1.98l-0.21,0.06c-0.66-1.23-1.22-1.6-2.05-1.4c-0.67,0.17-1.02,0.67-0.87,1.27
		c0.09,0.39,0.4,0.69,0.87,0.83l1.8,0.55c1,0.31,1.47,0.7,1.65,1.43c0.25,1.02-0.46,2.09-1.6,2.37c-0.29,0.07-0.68,0.11-1.1,0.12
		c-0.35-0.01-0.54,0.01-0.7,0.04c-0.17,0.05-0.22,0.09-0.29,0.26l-0.19,0.05l-0.55-2.27l0.23-0.06c0.7,1.4,1.34,1.83,2.35,1.58
		c0.74-0.18,1.11-0.7,0.95-1.34c-0.11-0.45-0.45-0.74-1.03-0.91l-0.96-0.27c-1.41-0.4-2.02-0.86-2.22-1.68
		C116.709,75.258,117.359,74.298,118.509,74.018z M111.909,75.868h0.08l0.41,1.32c0.4-1.26,0.7-1.7,1.3-1.88
		c0.49-0.16,0.88,0.04,1.02,0.51c0.13,0.4-0.01,0.71-0.35,0.82c-0.19,0.06-0.38,0.04-0.67-0.11c-0.2-0.09-0.35-0.12-0.44-0.1
		c-0.4,0.13-0.77,1.03-0.63,1.49l1.01,3.22c0.29,0.84,0.58,0.96,1.55,0.69l0.06,0.22l-3.43,1.07l-0.07-0.21
		c0.86-0.44,0.91-0.56,0.71-1.31l-1.12-3.58c-0.19-0.63-0.39-0.82-0.75-0.71c-0.17,0.06-0.3,0.11-0.49,0.22l-0.07-0.23
		C110.749,76.788,111.209,76.428,111.909,75.868z M107.019,77.568l1.85,4.99c0.4,1.02,0.54,1.11,1.5,0.84l0.08,0.21l-3.34,1.24
		l-0.07-0.21c0.94-0.4,1.01-0.59,0.65-1.64l-1.21-3.26c-0.23-0.62-0.44-0.8-0.78-0.67c-0.14,0.05-0.3,0.13-0.46,0.22l-0.1,0.06
		l-0.08-0.22l1.89-1.58L107.019,77.568z M105.119,74.658c0.41-0.15,0.85,0.04,1,0.45c0.15,0.41-0.04,0.83-0.46,0.99
		c-0.4,0.14-0.82-0.05-0.97-0.46C104.539,75.248,104.739,74.798,105.119,74.658z M101.889,76.178l0.93,1.94l-0.34,0.15
		c-0.77-1.11-1.13-1.18-2.73-0.5l-1.86,0.84c-0.38,0.19-0.4,0.25-0.23,0.66l1.37,3.04l1.98-0.89c1.11-0.54,1.26-0.83,0.92-1.98
		l0.32-0.14l1.42,3.17l-0.31,0.14c-0.66-1.03-0.97-1.12-2.1-0.63l-1.98,0.89l1.34,2.98c0.47,1,0.75,1.1,1.8,0.67l0.12,0.26
		l-3.83,1.73l-0.12-0.26c1.01-0.54,1.08-0.75,0.57-1.92l-2.67-5.92c-0.47-0.97-0.71-1.08-1.74-0.7l-0.12-0.26L101.889,76.178z
		 M65.249,171.238l-6.74-4.89l-6.74,4.89l2.57-7.92l-6.74-4.9h8.33l2.58-7.92l2.58,7.92h8.33l-6.74,4.9L65.249,171.238z
		 M96.359,237.158c0.52-1.12,0.43-1.42-0.59-2.11l-1.82-1.2l-1.79,2.74c-0.59,0.92-0.53,1.21,0.4,1.87l-0.16,0.24l-3.51-2.3
		l0.16-0.24c0.99,0.56,1.21,0.51,1.92-0.55l3.57-5.43c0.56-0.92,0.52-1.18-0.35-1.85l0.15-0.23l6.66,4.37l-1.14,1.82l-0.31-0.21
		c0.53-1.25,0.39-1.59-1.04-2.57l-1.71-1.12c-0.36-0.22-0.42-0.2-0.68,0.17l-1.83,2.78l1.82,1.19c1.04,0.65,1.37,0.62,2.16-0.28
		l0.29,0.19l-1.91,2.9L96.359,237.158z M100.249,243.378l-3.11-1.73l0.11-0.2c0.91,0.46,1.1,0.39,1.67-0.56l1.7-3.04
		c0.32-0.58,0.32-0.85,0-1.03c-0.13-0.07-0.29-0.15-0.46-0.21l-0.12-0.04l0.11-0.2l2.44,0.41l0.03,0.07l-2.6,4.65
		c-0.52,0.97-0.49,1.13,0.33,1.68L100.249,243.378z M102.569,233.818c0.21-0.37,0.68-0.5,1.03-0.3c0.38,0.21,0.52,0.66,0.31,1.04
		c-0.21,0.39-0.66,0.51-1.05,0.29C102.489,234.648,102.359,234.198,102.569,233.818z M107.839,240.768
		c-0.09-0.2-0.18-0.33-0.26-0.37c-0.38-0.18-1.27,0.22-1.48,0.65l-1.47,3.04c-0.36,0.81-0.23,1.1,0.66,1.57l-0.1,0.2l-3.24-1.57
		l0.1-0.2c0.92,0.26,1.04,0.22,1.41-0.47l1.63-3.37c0.29-0.6,0.27-0.88-0.06-1.04c-0.17-0.08-0.29-0.12-0.5-0.17l0.1-0.22
		c0.87,0.12,1.45,0.17,2.35,0.24l0.06,0.06l-0.6,1.24c1.14-0.64,1.66-0.76,2.23-0.48c0.46,0.22,0.61,0.63,0.4,1.07
		c-0.19,0.38-0.5,0.51-0.82,0.35C108.069,241.218,107.939,241.068,107.839,240.768z M113.889,244.468l-0.21-0.09
		c0.19-1.38-0.05-2.01-0.84-2.33c-0.64-0.26-1.22-0.06-1.45,0.51c-0.15,0.38-0.08,0.8,0.21,1.19l1.14,1.5
		c0.63,0.84,0.78,1.43,0.5,2.13c-0.39,0.97-1.6,1.42-2.68,0.98c-0.28-0.11-0.62-0.31-0.96-0.55c-0.29-0.21-0.44-0.31-0.59-0.37
		c-0.17-0.07-0.24-0.06-0.39,0.04l-0.18-0.07l0.88-2.17l0.22,0.09c-0.26,1.54,0.02,2.27,0.98,2.66c0.7,0.29,1.31,0.08,1.56-0.53
		c0.17-0.43,0.07-0.86-0.3-1.34l-0.62-0.79c-0.92-1.14-1.13-1.88-0.82-2.66c0.41-1,1.49-1.4,2.59-0.95c0.33,0.13,0.63,0.33,0.9,0.57
		c0.12,0.13,0.25,0.22,0.34,0.25c0.08,0.04,0.17,0.02,0.28-0.06l0.15,0.06L113.889,244.468z M119.989,244.958l-1.43-0.48l-1.37,4.06
		c-0.3,0.89-0.22,1.35,0.31,1.53c0.31,0.1,0.58,0.05,1.02-0.21l0.13,0.22c-0.72,0.58-1.37,0.74-2.07,0.5
		c-0.84-0.28-1.06-1.04-0.66-2.23l1.45-4.27l-0.76-0.26c-0.03-0.04-0.04-0.07-0.02-0.12c0.03-0.08,0.14-0.14,0.33-0.19
		c0.5-0.1,1.08-0.44,2.31-1.35c0.07,0.02,0.09,0.07,0.04,0.21l-0.56,1.65l1.44,0.49L119.989,244.958z M133.099,247.488l-0.36-0.07
		c-0.06-0.92-0.19-1.34-0.55-1.9c-0.41-0.64-0.97-1.04-1.63-1.18c-0.91-0.18-1.64,0.24-1.8,1.04c-0.17,0.81,0.32,1.58,1.69,2.74
		c1.73,1.45,2.34,2.55,2.1,3.76c-0.31,1.53-1.84,2.42-3.55,2.08c-0.57-0.12-1.15-0.36-1.66-0.69c-0.26-0.16-0.5-0.27-0.66-0.3
		c-0.22-0.05-0.44,0.12-0.51,0.4l-0.32-0.07l0.19-3.2l0.34,0.07c0.37,1.94,1.11,2.93,2.44,3.2c1.07,0.22,1.94-0.31,2.14-1.28
		c0.07-0.37,0.06-0.69-0.03-0.91c-0.25-0.63-0.9-1.37-1.84-2.16c-1.47-1.2-1.95-2.16-1.71-3.33c0.15-0.77,0.54-1.33,1.15-1.68
		c0.57-0.33,1.27-0.45,1.89-0.32c0.48,0.1,1,0.32,1.5,0.64c0.23,0.17,0.47,0.28,0.61,0.31c0.25,0.05,0.45-0.1,0.58-0.41l0.3,0.07
		L133.099,247.488z M141.819,252.048c-0.23,2.08-1.84,3.48-3.72,3.27s-3.1-1.85-2.87-3.88c0.23-2.06,1.73-3.34,3.68-3.12
		C140.819,248.528,142.039,250.088,141.819,252.048z M147.279,255.818l-3.53-0.15l0.01-0.22c0.93-0.02,1.15-0.22,1.19-1.03l0.3-7.15
		c0.03-0.7-0.11-0.92-0.59-0.94c-0.12-0.01-0.3,0-0.47,0.01h-0.09l0.01-0.24c1.08-0.21,1.64-0.35,2.41-0.56l0.06,0.03l-0.37,8.94
		c-0.02,0.84,0.14,1,1.08,1.08L147.279,255.818z M156.439,255.098l-2.19,0.82l-0.06-0.04l-0.02-0.96c-0.49,0.71-1.06,1.02-1.9,1.04
		c-1.66,0.03-2.8-1.26-2.83-3.18c-0.04-2.13,1.33-3.85,3.05-3.88c0.6-0.01,1.01,0.15,1.59,0.62l-0.04-2.34
		c-0.01-0.62-0.15-0.76-0.71-0.75c-0.13,0-0.21,0-0.33,0.02v-0.24c0.99-0.28,1.49-0.45,2.19-0.7l0.08,0.03l0.15,8.5
		c0.01,0.69,0.15,0.85,0.67,0.85c0.06-0.01,0.15-0.01,0.35-0.03V255.098z M168.809,254.368c-1.3,0.23-2.72-0.1-3.74-0.88
		c-0.95-0.7-1.67-1.97-1.92-3.36c-0.54-2.98,1.09-5.46,3.91-5.96c1.42-0.26,2.75,0.05,3.87,0.9c0.97,0.72,1.62,1.91,1.89,3.38
		C173.359,251.428,171.719,253.838,168.809,254.368z M176.069,252.608l-0.06-0.22c1.02-0.33,1.12-0.53,0.85-1.62l-1.26-4.54
		l-1.19,0.33l-0.12-0.47l1.18-0.32c-0.3-1.16-0.33-1.72-0.14-2.47c0.2-0.76,0.84-1.36,1.76-1.61c0.86-0.24,1.6-0.04,1.75,0.48
		c0.09,0.34-0.1,0.67-0.45,0.76c-0.24,0.07-0.46-0.02-0.79-0.34c-0.38-0.34-0.6-0.44-0.92-0.35c-0.55,0.15-0.71,0.66-0.47,1.52
		l0.46,1.67l1.78-0.49l0.13,0.47l-1.76,0.48l1.25,4.54c0.3,1.09,0.5,1.2,1.7,0.92l0.06,0.22L176.069,252.608z M182.399,250.778
		l-0.07-0.21c0.99-0.39,1.08-0.6,0.74-1.67l-1.55-4.45l-1.16,0.4l-0.15-0.45l1.16-0.4c-0.38-1.14-0.44-1.69-0.3-2.46
		c0.15-0.76,0.76-1.4,1.65-1.71c0.85-0.29,1.6-0.14,1.78,0.37c0.11,0.33-0.06,0.67-0.4,0.79c-0.24,0.08-0.46,0-0.81-0.29
		c-0.4-0.32-0.63-0.4-0.94-0.29c-0.54,0.18-0.66,0.7-0.38,1.54l0.57,1.64l1.75-0.6l0.16,0.45l-1.73,0.6l1.54,4.45
		c0.36,1.06,0.57,1.16,1.75,0.8l0.07,0.22L182.399,250.778z M190.779,247.808c-1.59,0.67-3.08-0.1-3.89-2
		c-0.48-1.14-0.52-2.27-0.11-3.11c0.33-0.7,0.88-1.22,1.57-1.51c0.72-0.3,1.47-0.28,2.1,0.04c0.53,0.3,0.84,0.64,1.33,1.49
		l-4.26,1.8c0.39,0.84,0.67,1.24,1.14,1.66c0.74,0.62,1.5,0.77,2.29,0.44c0.88-0.37,1.3-1.02,1.53-2.35h0.26
		C192.789,246.008,192.089,247.258,190.779,247.808z M195.409,245.608l-0.1-0.2c0.77-0.58,0.81-0.7,0.48-1.41l-1.7-3.34
		c-0.29-0.59-0.52-0.75-0.86-0.58c-0.16,0.09-0.27,0.16-0.44,0.3l-0.11-0.22c0.63-0.62,1.02-1.05,1.62-1.72l0.08-0.01l0.62,1.23
		c0.18-1.3,0.41-1.79,0.97-2.07c0.45-0.23,0.87-0.11,1.09,0.33c0.19,0.38,0.11,0.71-0.21,0.87c-0.18,0.09-0.37,0.1-0.67,0
		c-0.22-0.06-0.37-0.06-0.45-0.02c-0.38,0.19-0.6,1.14-0.38,1.57l1.52,3.01c0.43,0.78,0.74,0.85,1.65,0.43l0.1,0.2L195.409,245.608z
		 M147.179,236.198c-41.61,0-75.34-33.72-75.34-75.33s33.73-75.33,75.34-75.33c41.6,0,75.33,33.72,75.33,75.33
		S188.779,236.198,147.179,236.198z M237.179,166.348l-6.75,4.89l2.58-7.92l-6.74-4.9h8.33l2.58-7.92l2.57,7.92h8.34l-6.75,4.9
		l2.58,7.92L237.179,166.348z M196.859,83.708c-0.81-0.42-1.52-0.16-2.2,0.8l2.71,1.41
		C197.799,84.678,197.679,84.138,196.859,83.708z M188.159,241.858c-0.85,0.35-1.1,1.06-0.8,2.2l2.82-1.18
		C189.489,241.748,188.999,241.498,188.159,241.858z M174.559,81.308c0.76,0.22,1.49,0.15,2.13-0.21c0.43-0.24,0.78-0.53,1.01-0.85
		c0.52-0.67,0.97-1.61,1.22-2.46c0.49-1.72,0.43-3.2-0.15-4.13c-0.39-0.61-0.98-1.06-1.64-1.25c-0.79-0.22-1.59-0.11-2.33,0.35
		c-0.8,0.51-1.6,1.79-2.02,3.26c-0.46,1.6-0.4,3.19,0.15,4.06C173.319,80.678,173.899,81.128,174.559,81.308z M169.179,245.088
		c-0.62-0.37-1.35-0.51-2.02-0.39c-0.82,0.14-1.48,0.6-1.94,1.34c-0.5,0.8-0.65,2.31-0.38,3.82c0.3,1.64,1.05,3.04,1.93,3.58
		c0.61,0.36,1.33,0.51,2,0.39c0.79-0.14,1.4-0.53,1.83-1.14c0.27-0.4,0.46-0.81,0.53-1.21c0.17-0.82,0.16-1.87,0-2.74
		C170.819,246.978,170.109,245.668,169.179,245.088z M160.089,77.968c0.43,0.06,0.84-0.03,1.13-0.3c0.17-0.14,0.3-0.31,0.31-0.41
		l0.47-3.42c0.11-0.78-0.51-1.58-1.31-1.69c-1.13-0.16-2.01,0.84-2.24,2.51C158.199,76.498,158.839,77.798,160.089,77.968z
		 M152.549,249.318c-1.14,0.02-1.86,1.14-1.83,2.82c0.03,1.86,0.86,3.05,2.12,3.03c0.44-0.01,0.83-0.17,1.07-0.47
		c0.15-0.17,0.25-0.35,0.25-0.46l-0.06-3.45C154.089,249.998,153.359,249.308,152.549,249.318z M146.579,77.348
		c1.12,0.01,1.8-0.99,1.81-2.7c0.02-2.05-0.86-3.5-2.12-3.51c-1.08-0.01-1.77,0.92-1.78,2.34c-0.01,1.07,0.22,2.12,0.64,2.9
		C145.439,76.978,145.989,77.348,146.579,77.348z M138.669,248.708c-1.07-0.12-1.86,0.73-2.02,2.15c-0.12,1.06,0.01,2.13,0.34,2.95
		c0.24,0.63,0.75,1.05,1.34,1.12c1.11,0.12,1.9-0.8,2.09-2.5C140.639,250.378,139.919,248.848,138.669,248.708z M196.859,83.708
		c-0.81-0.42-1.52-0.16-2.2,0.8l2.71,1.41C197.799,84.678,197.679,84.138,196.859,83.708z M178.769,73.658
		c-0.39-0.61-0.98-1.06-1.64-1.25c-0.79-0.22-1.59-0.11-2.33,0.35c-0.8,0.51-1.6,1.79-2.02,3.26c-0.46,1.6-0.4,3.19,0.15,4.06
		c0.39,0.6,0.97,1.05,1.63,1.23c0.76,0.22,1.49,0.15,2.13-0.21c0.43-0.24,0.78-0.53,1.01-0.85c0.52-0.67,0.97-1.61,1.22-2.46
		C179.409,76.068,179.349,74.588,178.769,73.658z M160.689,72.148c-1.13-0.16-2.01,0.84-2.24,2.51c-0.25,1.84,0.39,3.14,1.64,3.31
		c0.43,0.06,0.84-0.03,1.13-0.3c0.17-0.14,0.3-0.31,0.31-0.41l0.47-3.42C162.109,73.058,161.489,72.258,160.689,72.148z
		 M146.269,71.138c-1.08-0.01-1.77,0.92-1.78,2.34c-0.01,1.07,0.22,2.12,0.64,2.9c0.31,0.6,0.86,0.97,1.45,0.97
		c1.12,0.01,1.8-0.99,1.81-2.7C148.409,72.598,147.529,71.148,146.269,71.138z M138.669,248.708c-1.07-0.12-1.86,0.73-2.02,2.15
		c-0.12,1.06,0.01,2.13,0.34,2.95c0.24,0.63,0.75,1.05,1.34,1.12c1.11,0.12,1.9-0.8,2.09-2.5
		C140.639,250.378,139.919,248.848,138.669,248.708z M154.099,250.788c-0.01-0.79-0.74-1.48-1.55-1.47
		c-1.14,0.02-1.86,1.14-1.83,2.82c0.03,1.86,0.86,3.05,2.12,3.03c0.44-0.01,0.83-0.17,1.07-0.47c0.15-0.17,0.25-0.35,0.25-0.46
		L154.099,250.788z M171.129,248.738c-0.31-1.76-1.02-3.07-1.95-3.65c-0.62-0.37-1.35-0.51-2.02-0.39c-0.82,0.14-1.48,0.6-1.94,1.34
		c-0.5,0.8-0.65,2.31-0.38,3.82c0.3,1.64,1.05,3.04,1.93,3.58c0.61,0.36,1.33,0.51,2,0.39c0.79-0.14,1.4-0.53,1.83-1.14
		c0.27-0.4,0.46-0.81,0.53-1.21C171.299,250.658,171.289,249.608,171.129,248.738z M188.159,241.858c-0.85,0.35-1.1,1.06-0.8,2.2
		l2.82-1.18C189.489,241.748,188.999,241.498,188.159,241.858z M196.859,83.708c-0.81-0.42-1.52-0.16-2.2,0.8l2.71,1.41
		C197.799,84.678,197.679,84.138,196.859,83.708z M188.159,241.858c-0.85,0.35-1.1,1.06-0.8,2.2l2.82-1.18
		C189.489,241.748,188.999,241.498,188.159,241.858z M178.769,73.658c-0.39-0.61-0.98-1.06-1.64-1.25
		c-0.79-0.22-1.59-0.11-2.33,0.35c-0.8,0.51-1.6,1.79-2.02,3.26c-0.46,1.6-0.4,3.19,0.15,4.06c0.39,0.6,0.97,1.05,1.63,1.23
		c0.76,0.22,1.49,0.15,2.13-0.21c0.43-0.24,0.78-0.53,1.01-0.85c0.52-0.67,0.97-1.61,1.22-2.46
		C179.409,76.068,179.349,74.588,178.769,73.658z M171.129,248.738c-0.31-1.76-1.02-3.07-1.95-3.65c-0.62-0.37-1.35-0.51-2.02-0.39
		c-0.82,0.14-1.48,0.6-1.94,1.34c-0.5,0.8-0.65,2.31-0.38,3.82c0.3,1.64,1.05,3.04,1.93,3.58c0.61,0.36,1.33,0.51,2,0.39
		c0.79-0.14,1.4-0.53,1.83-1.14c0.27-0.4,0.46-0.81,0.53-1.21C171.299,250.658,171.289,249.608,171.129,248.738z M160.689,72.148
		c-1.13-0.16-2.01,0.84-2.24,2.51c-0.25,1.84,0.39,3.14,1.64,3.31c0.43,0.06,0.84-0.03,1.13-0.3c0.17-0.14,0.3-0.31,0.31-0.41
		l0.47-3.42C162.109,73.058,161.489,72.258,160.689,72.148z M154.099,250.788c-0.01-0.79-0.74-1.48-1.55-1.47
		c-1.14,0.02-1.86,1.14-1.83,2.82c0.03,1.86,0.86,3.05,2.12,3.03c0.44-0.01,0.83-0.17,1.07-0.47c0.15-0.17,0.25-0.35,0.25-0.46
		L154.099,250.788z M146.269,71.138c-1.08-0.01-1.77,0.92-1.78,2.34c-0.01,1.07,0.22,2.12,0.64,2.9c0.31,0.6,0.86,0.97,1.45,0.97
		c1.12,0.01,1.8-0.99,1.81-2.7C148.409,72.598,147.529,71.148,146.269,71.138z M138.669,248.708c-1.07-0.12-1.86,0.73-2.02,2.15
		c-0.12,1.06,0.01,2.13,0.34,2.95c0.24,0.63,0.75,1.05,1.34,1.12c1.11,0.12,1.9-0.8,2.09-2.5
		C140.639,250.378,139.919,248.848,138.669,248.708z M196.859,83.708c-0.81-0.42-1.52-0.16-2.2,0.8l2.71,1.41
		C197.799,84.678,197.679,84.138,196.859,83.708z M178.769,73.658c-0.39-0.61-0.98-1.06-1.64-1.25c-0.79-0.22-1.59-0.11-2.33,0.35
		c-0.8,0.51-1.6,1.79-2.02,3.26c-0.46,1.6-0.4,3.19,0.15,4.06c0.39,0.6,0.97,1.05,1.63,1.23c0.76,0.22,1.49,0.15,2.13-0.21
		c0.43-0.24,0.78-0.53,1.01-0.85c0.52-0.67,0.97-1.61,1.22-2.46C179.409,76.068,179.349,74.588,178.769,73.658z M160.689,72.148
		c-1.13-0.16-2.01,0.84-2.24,2.51c-0.25,1.84,0.39,3.14,1.64,3.31c0.43,0.06,0.84-0.03,1.13-0.3c0.17-0.14,0.3-0.31,0.31-0.41
		l0.47-3.42C162.109,73.058,161.489,72.258,160.689,72.148z M146.269,71.138c-1.08-0.01-1.77,0.92-1.78,2.34
		c-0.01,1.07,0.22,2.12,0.64,2.9c0.31,0.6,0.86,0.97,1.45,0.97c1.12,0.01,1.8-0.99,1.81-2.7
		C148.409,72.598,147.529,71.148,146.269,71.138z M138.669,248.708c-1.07-0.12-1.86,0.73-2.02,2.15c-0.12,1.06,0.01,2.13,0.34,2.95
		c0.24,0.63,0.75,1.05,1.34,1.12c1.11,0.12,1.9-0.8,2.09-2.5C140.639,250.378,139.919,248.848,138.669,248.708z M154.099,250.788
		c-0.01-0.79-0.74-1.48-1.55-1.47c-1.14,0.02-1.86,1.14-1.83,2.82c0.03,1.86,0.86,3.05,2.12,3.03c0.44-0.01,0.83-0.17,1.07-0.47
		c0.15-0.17,0.25-0.35,0.25-0.46L154.099,250.788z M171.129,248.738c-0.31-1.76-1.02-3.07-1.95-3.65c-0.62-0.37-1.35-0.51-2.02-0.39
		c-0.82,0.14-1.48,0.6-1.94,1.34c-0.5,0.8-0.65,2.31-0.38,3.82c0.3,1.64,1.05,3.04,1.93,3.58c0.61,0.36,1.33,0.51,2,0.39
		c0.79-0.14,1.4-0.53,1.83-1.14c0.27-0.4,0.46-0.81,0.53-1.21C171.299,250.658,171.289,249.608,171.129,248.738z M188.159,241.858
		c-0.85,0.35-1.1,1.06-0.8,2.2l2.82-1.18C189.489,241.748,188.999,241.498,188.159,241.858z M196.859,83.708
		c-0.81-0.42-1.52-0.16-2.2,0.8l2.71,1.41C197.799,84.678,197.679,84.138,196.859,83.708z M188.159,241.858
		c-0.85,0.35-1.1,1.06-0.8,2.2l2.82-1.18C189.489,241.748,188.999,241.498,188.159,241.858z M178.769,73.658
		c-0.39-0.61-0.98-1.06-1.64-1.25c-0.79-0.22-1.59-0.11-2.33,0.35c-0.8,0.51-1.6,1.79-2.02,3.26c-0.46,1.6-0.4,3.19,0.15,4.06
		c0.39,0.6,0.97,1.05,1.63,1.23c0.76,0.22,1.49,0.15,2.13-0.21c0.43-0.24,0.78-0.53,1.01-0.85c0.52-0.67,0.97-1.61,1.22-2.46
		C179.409,76.068,179.349,74.588,178.769,73.658z M171.129,248.738c-0.31-1.76-1.02-3.07-1.95-3.65c-0.62-0.37-1.35-0.51-2.02-0.39
		c-0.82,0.14-1.48,0.6-1.94,1.34c-0.5,0.8-0.65,2.31-0.38,3.82c0.3,1.64,1.05,3.04,1.93,3.58c0.61,0.36,1.33,0.51,2,0.39
		c0.79-0.14,1.4-0.53,1.83-1.14c0.27-0.4,0.46-0.81,0.53-1.21C171.299,250.658,171.289,249.608,171.129,248.738z M160.689,72.148
		c-1.13-0.16-2.01,0.84-2.24,2.51c-0.25,1.84,0.39,3.14,1.64,3.31c0.43,0.06,0.84-0.03,1.13-0.3c0.17-0.14,0.3-0.31,0.31-0.41
		l0.47-3.42C162.109,73.058,161.489,72.258,160.689,72.148z M154.099,250.788c-0.01-0.79-0.74-1.48-1.55-1.47
		c-1.14,0.02-1.86,1.14-1.83,2.82c0.03,1.86,0.86,3.05,2.12,3.03c0.44-0.01,0.83-0.17,1.07-0.47c0.15-0.17,0.25-0.35,0.25-0.46
		L154.099,250.788z M146.269,71.138c-1.08-0.01-1.77,0.92-1.78,2.34c-0.01,1.07,0.22,2.12,0.64,2.9c0.31,0.6,0.86,0.97,1.45,0.97
		c1.12,0.01,1.8-0.99,1.81-2.7C148.409,72.598,147.529,71.148,146.269,71.138z M138.669,248.708c-1.07-0.12-1.86,0.73-2.02,2.15
		c-0.12,1.06,0.01,2.13,0.34,2.95c0.24,0.63,0.75,1.05,1.34,1.12c1.11,0.12,1.9-0.8,2.09-2.5
		C140.639,250.378,139.919,248.848,138.669,248.708z M196.859,83.708c-0.81-0.42-1.52-0.16-2.2,0.8l2.71,1.41
		C197.799,84.678,197.679,84.138,196.859,83.708z M178.769,73.658c-0.39-0.61-0.98-1.06-1.64-1.25c-0.79-0.22-1.59-0.11-2.33,0.35
		c-0.8,0.51-1.6,1.79-2.02,3.26c-0.46,1.6-0.4,3.19,0.15,4.06c0.39,0.6,0.97,1.05,1.63,1.23c0.76,0.22,1.49,0.15,2.13-0.21
		c0.43-0.24,0.78-0.53,1.01-0.85c0.52-0.67,0.97-1.61,1.22-2.46C179.409,76.068,179.349,74.588,178.769,73.658z M160.689,72.148
		c-1.13-0.16-2.01,0.84-2.24,2.51c-0.25,1.84,0.39,3.14,1.64,3.31c0.43,0.06,0.84-0.03,1.13-0.3c0.17-0.14,0.3-0.31,0.31-0.41
		l0.47-3.42C162.109,73.058,161.489,72.258,160.689,72.148z M146.269,71.138c-1.08-0.01-1.77,0.92-1.78,2.34
		c-0.01,1.07,0.22,2.12,0.64,2.9c0.31,0.6,0.86,0.97,1.45,0.97c1.12,0.01,1.8-0.99,1.81-2.7
		C148.409,72.598,147.529,71.148,146.269,71.138z M138.669,248.708c-1.07-0.12-1.86,0.73-2.02,2.15c-0.12,1.06,0.01,2.13,0.34,2.95
		c0.24,0.63,0.75,1.05,1.34,1.12c1.11,0.12,1.9-0.8,2.09-2.5C140.639,250.378,139.919,248.848,138.669,248.708z M154.099,250.788
		c-0.01-0.79-0.74-1.48-1.55-1.47c-1.14,0.02-1.86,1.14-1.83,2.82c0.03,1.86,0.86,3.05,2.12,3.03c0.44-0.01,0.83-0.17,1.07-0.47
		c0.15-0.17,0.25-0.35,0.25-0.46L154.099,250.788z M171.129,248.738c-0.31-1.76-1.02-3.07-1.95-3.65c-0.62-0.37-1.35-0.51-2.02-0.39
		c-0.82,0.14-1.48,0.6-1.94,1.34c-0.5,0.8-0.65,2.31-0.38,3.82c0.3,1.64,1.05,3.04,1.93,3.58c0.61,0.36,1.33,0.51,2,0.39
		c0.79-0.14,1.4-0.53,1.83-1.14c0.27-0.4,0.46-0.81,0.53-1.21C171.299,250.658,171.289,249.608,171.129,248.738z M188.159,241.858
		c-0.85,0.35-1.1,1.06-0.8,2.2l2.82-1.18C189.489,241.748,188.999,241.498,188.159,241.858z M196.859,83.708
		c-0.81-0.42-1.52-0.16-2.2,0.8l2.71,1.41C197.799,84.678,197.679,84.138,196.859,83.708z M188.159,241.858
		c-0.85,0.35-1.1,1.06-0.8,2.2l2.82-1.18C189.489,241.748,188.999,241.498,188.159,241.858z M178.769,73.658
		c-0.39-0.61-0.98-1.06-1.64-1.25c-0.79-0.22-1.59-0.11-2.33,0.35c-0.8,0.51-1.6,1.79-2.02,3.26c-0.46,1.6-0.4,3.19,0.15,4.06
		c0.39,0.6,0.97,1.05,1.63,1.23c0.76,0.22,1.49,0.15,2.13-0.21c0.43-0.24,0.78-0.53,1.01-0.85c0.52-0.67,0.97-1.61,1.22-2.46
		C179.409,76.068,179.349,74.588,178.769,73.658z M171.129,248.738c-0.31-1.76-1.02-3.07-1.95-3.65c-0.62-0.37-1.35-0.51-2.02-0.39
		c-0.82,0.14-1.48,0.6-1.94,1.34c-0.5,0.8-0.65,2.31-0.38,3.82c0.3,1.64,1.05,3.04,1.93,3.58c0.61,0.36,1.33,0.51,2,0.39
		c0.79-0.14,1.4-0.53,1.83-1.14c0.27-0.4,0.46-0.81,0.53-1.21C171.299,250.658,171.289,249.608,171.129,248.738z M160.689,72.148
		c-1.13-0.16-2.01,0.84-2.24,2.51c-0.25,1.84,0.39,3.14,1.64,3.31c0.43,0.06,0.84-0.03,1.13-0.3c0.17-0.14,0.3-0.31,0.31-0.41
		l0.47-3.42C162.109,73.058,161.489,72.258,160.689,72.148z M154.099,250.788c-0.01-0.79-0.74-1.48-1.55-1.47
		c-1.14,0.02-1.86,1.14-1.83,2.82c0.03,1.86,0.86,3.05,2.12,3.03c0.44-0.01,0.83-0.17,1.07-0.47c0.15-0.17,0.25-0.35,0.25-0.46
		L154.099,250.788z M146.269,71.138c-1.08-0.01-1.77,0.92-1.78,2.34c-0.01,1.07,0.22,2.12,0.64,2.9c0.31,0.6,0.86,0.97,1.45,0.97
		c1.12,0.01,1.8-0.99,1.81-2.7C148.409,72.598,147.529,71.148,146.269,71.138z M138.669,248.708c-1.07-0.12-1.86,0.73-2.02,2.15
		c-0.12,1.06,0.01,2.13,0.34,2.95c0.24,0.63,0.75,1.05,1.34,1.12c1.11,0.12,1.9-0.8,2.09-2.5
		C140.639,250.378,139.919,248.848,138.669,248.708z M196.859,83.708c-0.81-0.42-1.52-0.16-2.2,0.8l2.71,1.41
		C197.799,84.678,197.679,84.138,196.859,83.708z M178.769,73.658c-0.39-0.61-0.98-1.06-1.64-1.25c-0.79-0.22-1.59-0.11-2.33,0.35
		c-0.8,0.51-1.6,1.79-2.02,3.26c-0.46,1.6-0.4,3.19,0.15,4.06c0.39,0.6,0.97,1.05,1.63,1.23c0.76,0.22,1.49,0.15,2.13-0.21
		c0.43-0.24,0.78-0.53,1.01-0.85c0.52-0.67,0.97-1.61,1.22-2.46C179.409,76.068,179.349,74.588,178.769,73.658z M160.689,72.148
		c-1.13-0.16-2.01,0.84-2.24,2.51c-0.25,1.84,0.39,3.14,1.64,3.31c0.43,0.06,0.84-0.03,1.13-0.3c0.17-0.14,0.3-0.31,0.31-0.41
		l0.47-3.42C162.109,73.058,161.489,72.258,160.689,72.148z M146.269,71.138c-1.08-0.01-1.77,0.92-1.78,2.34
		c-0.01,1.07,0.22,2.12,0.64,2.9c0.31,0.6,0.86,0.97,1.45,0.97c1.12,0.01,1.8-0.99,1.81-2.7
		C148.409,72.598,147.529,71.148,146.269,71.138z M138.669,248.708c-1.07-0.12-1.86,0.73-2.02,2.15c-0.12,1.06,0.01,2.13,0.34,2.95
		c0.24,0.63,0.75,1.05,1.34,1.12c1.11,0.12,1.9-0.8,2.09-2.5C140.639,250.378,139.919,248.848,138.669,248.708z M154.099,250.788
		c-0.01-0.79-0.74-1.48-1.55-1.47c-1.14,0.02-1.86,1.14-1.83,2.82c0.03,1.86,0.86,3.05,2.12,3.03c0.44-0.01,0.83-0.17,1.07-0.47
		c0.15-0.17,0.25-0.35,0.25-0.46L154.099,250.788z M171.129,248.738c-0.31-1.76-1.02-3.07-1.95-3.65c-0.62-0.37-1.35-0.51-2.02-0.39
		c-0.82,0.14-1.48,0.6-1.94,1.34c-0.5,0.8-0.65,2.31-0.38,3.82c0.3,1.64,1.05,3.04,1.93,3.58c0.61,0.36,1.33,0.51,2,0.39
		c0.79-0.14,1.4-0.53,1.83-1.14c0.27-0.4,0.46-0.81,0.53-1.21C171.299,250.658,171.289,249.608,171.129,248.738z M188.159,241.858
		c-0.85,0.35-1.1,1.06-0.8,2.2l2.82-1.18C189.489,241.748,188.999,241.498,188.159,241.858z M196.859,83.708
		c-0.81-0.42-1.52-0.16-2.2,0.8l2.71,1.41C197.799,84.678,197.679,84.138,196.859,83.708z M188.159,241.858
		c-0.85,0.35-1.1,1.06-0.8,2.2l2.82-1.18C189.489,241.748,188.999,241.498,188.159,241.858z M178.769,73.658
		c-0.39-0.61-0.98-1.06-1.64-1.25c-0.79-0.22-1.59-0.11-2.33,0.35c-0.8,0.51-1.6,1.79-2.02,3.26c-0.46,1.6-0.4,3.19,0.15,4.06
		c0.39,0.6,0.97,1.05,1.63,1.23c0.76,0.22,1.49,0.15,2.13-0.21c0.43-0.24,0.78-0.53,1.01-0.85c0.52-0.67,0.97-1.61,1.22-2.46
		C179.409,76.068,179.349,74.588,178.769,73.658z M171.129,248.738c-0.31-1.76-1.02-3.07-1.95-3.65c-0.62-0.37-1.35-0.51-2.02-0.39
		c-0.82,0.14-1.48,0.6-1.94,1.34c-0.5,0.8-0.65,2.31-0.38,3.82c0.3,1.64,1.05,3.04,1.93,3.58c0.61,0.36,1.33,0.51,2,0.39
		c0.79-0.14,1.4-0.53,1.83-1.14c0.27-0.4,0.46-0.81,0.53-1.21C171.299,250.658,171.289,249.608,171.129,248.738z M160.689,72.148
		c-1.13-0.16-2.01,0.84-2.24,2.51c-0.25,1.84,0.39,3.14,1.64,3.31c0.43,0.06,0.84-0.03,1.13-0.3c0.17-0.14,0.3-0.31,0.31-0.41
		l0.47-3.42C162.109,73.058,161.489,72.258,160.689,72.148z M154.099,250.788c-0.01-0.79-0.74-1.48-1.55-1.47
		c-1.14,0.02-1.86,1.14-1.83,2.82c0.03,1.86,0.86,3.05,2.12,3.03c0.44-0.01,0.83-0.17,1.07-0.47c0.15-0.17,0.25-0.35,0.25-0.46
		L154.099,250.788z M146.269,71.138c-1.08-0.01-1.77,0.92-1.78,2.34c-0.01,1.07,0.22,2.12,0.64,2.9c0.31,0.6,0.86,0.97,1.45,0.97
		c1.12,0.01,1.8-0.99,1.81-2.7C148.409,72.598,147.529,71.148,146.269,71.138z M138.669,248.708c-1.07-0.12-1.86,0.73-2.02,2.15
		c-0.12,1.06,0.01,2.13,0.34,2.95c0.24,0.63,0.75,1.05,1.34,1.12c1.11,0.12,1.9-0.8,2.09-2.5
		C140.639,250.378,139.919,248.848,138.669,248.708z M196.859,83.708c-0.81-0.42-1.52-0.16-2.2,0.8l2.71,1.41
		C197.799,84.678,197.679,84.138,196.859,83.708z M178.769,73.658c-0.39-0.61-0.98-1.06-1.64-1.25c-0.79-0.22-1.59-0.11-2.33,0.35
		c-0.8,0.51-1.6,1.79-2.02,3.26c-0.46,1.6-0.4,3.19,0.15,4.06c0.39,0.6,0.97,1.05,1.63,1.23c0.76,0.22,1.49,0.15,2.13-0.21
		c0.43-0.24,0.78-0.53,1.01-0.85c0.52-0.67,0.97-1.61,1.22-2.46C179.409,76.068,179.349,74.588,178.769,73.658z M160.689,72.148
		c-1.13-0.16-2.01,0.84-2.24,2.51c-0.25,1.84,0.39,3.14,1.64,3.31c0.43,0.06,0.84-0.03,1.13-0.3c0.17-0.14,0.3-0.31,0.31-0.41
		l0.47-3.42C162.109,73.058,161.489,72.258,160.689,72.148z M146.269,71.138c-1.08-0.01-1.77,0.92-1.78,2.34
		c-0.01,1.07,0.22,2.12,0.64,2.9c0.31,0.6,0.86,0.97,1.45,0.97c1.12,0.01,1.8-0.99,1.81-2.7
		C148.409,72.598,147.529,71.148,146.269,71.138z M138.669,248.708c-1.07-0.12-1.86,0.73-2.02,2.15c-0.12,1.06,0.01,2.13,0.34,2.95
		c0.24,0.63,0.75,1.05,1.34,1.12c1.11,0.12,1.9-0.8,2.09-2.5C140.639,250.378,139.919,248.848,138.669,248.708z M154.099,250.788
		c-0.01-0.79-0.74-1.48-1.55-1.47c-1.14,0.02-1.86,1.14-1.83,2.82c0.03,1.86,0.86,3.05,2.12,3.03c0.44-0.01,0.83-0.17,1.07-0.47
		c0.15-0.17,0.25-0.35,0.25-0.46L154.099,250.788z M171.129,248.738c-0.31-1.76-1.02-3.07-1.95-3.65c-0.62-0.37-1.35-0.51-2.02-0.39
		c-0.82,0.14-1.48,0.6-1.94,1.34c-0.5,0.8-0.65,2.31-0.38,3.82c0.3,1.64,1.05,3.04,1.93,3.58c0.61,0.36,1.33,0.51,2,0.39
		c0.79-0.14,1.4-0.53,1.83-1.14c0.27-0.4,0.46-0.81,0.53-1.21C171.299,250.658,171.289,249.608,171.129,248.738z M196.859,83.708
		c-0.81-0.42-1.52-0.16-2.2,0.8l2.71,1.41C197.799,84.678,197.679,84.138,196.859,83.708z M178.769,73.658
		c-0.39-0.61-0.98-1.06-1.64-1.25c-0.79-0.22-1.59-0.11-2.33,0.35c-0.8,0.51-1.6,1.79-2.02,3.26c-0.46,1.6-0.4,3.19,0.15,4.06
		c0.39,0.6,0.97,1.05,1.63,1.23c0.76,0.22,1.49,0.15,2.13-0.21c0.43-0.24,0.78-0.53,1.01-0.85c0.52-0.67,0.97-1.61,1.22-2.46
		C179.409,76.068,179.349,74.588,178.769,73.658z M171.129,248.738c-0.31-1.76-1.02-3.07-1.95-3.65c-0.62-0.37-1.35-0.51-2.02-0.39
		c-0.82,0.14-1.48,0.6-1.94,1.34c-0.5,0.8-0.65,2.31-0.38,3.82c0.3,1.64,1.05,3.04,1.93,3.58c0.61,0.36,1.33,0.51,2,0.39
		c0.79-0.14,1.4-0.53,1.83-1.14c0.27-0.4,0.46-0.81,0.53-1.21C171.299,250.658,171.289,249.608,171.129,248.738z M160.689,72.148
		c-1.13-0.16-2.01,0.84-2.24,2.51c-0.25,1.84,0.39,3.14,1.64,3.31c0.43,0.06,0.84-0.03,1.13-0.3c0.17-0.14,0.3-0.31,0.31-0.41
		l0.47-3.42C162.109,73.058,161.489,72.258,160.689,72.148z M154.099,250.788c-0.01-0.79-0.74-1.48-1.55-1.47
		c-1.14,0.02-1.86,1.14-1.83,2.82c0.03,1.86,0.86,3.05,2.12,3.03c0.44-0.01,0.83-0.17,1.07-0.47c0.15-0.17,0.25-0.35,0.25-0.46
		L154.099,250.788z M146.269,71.138c-1.08-0.01-1.77,0.92-1.78,2.34c-0.01,1.07,0.22,2.12,0.64,2.9c0.31,0.6,0.86,0.97,1.45,0.97
		c1.12,0.01,1.8-0.99,1.81-2.7C148.409,72.598,147.529,71.148,146.269,71.138z M138.669,248.708c-1.07-0.12-1.86,0.73-2.02,2.15
		c-0.12,1.06,0.01,2.13,0.34,2.95c0.24,0.63,0.75,1.05,1.34,1.12c1.11,0.12,1.9-0.8,2.09-2.5
		C140.639,250.378,139.919,248.848,138.669,248.708z M196.859,83.708c-0.81-0.42-1.52-0.16-2.2,0.8l2.71,1.41
		C197.799,84.678,197.679,84.138,196.859,83.708z M178.769,73.658c-0.39-0.61-0.98-1.06-1.64-1.25c-0.79-0.22-1.59-0.11-2.33,0.35
		c-0.8,0.51-1.6,1.79-2.02,3.26c-0.46,1.6-0.4,3.19,0.15,4.06c0.39,0.6,0.97,1.05,1.63,1.23c0.76,0.22,1.49,0.15,2.13-0.21
		c0.43-0.24,0.78-0.53,1.01-0.85c0.52-0.67,0.97-1.61,1.22-2.46C179.409,76.068,179.349,74.588,178.769,73.658z M160.689,72.148
		c-1.13-0.16-2.01,0.84-2.24,2.51c-0.25,1.84,0.39,3.14,1.64,3.31c0.43,0.06,0.84-0.03,1.13-0.3c0.17-0.14,0.3-0.31,0.31-0.41
		l0.47-3.42C162.109,73.058,161.489,72.258,160.689,72.148z M146.269,71.138c-1.08-0.01-1.77,0.92-1.78,2.34
		c-0.01,1.07,0.22,2.12,0.64,2.9c0.31,0.6,0.86,0.97,1.45,0.97c1.12,0.01,1.8-0.99,1.81-2.7
		C148.409,72.598,147.529,71.148,146.269,71.138z M138.669,248.708c-1.07-0.12-1.86,0.73-2.02,2.15c-0.12,1.06,0.01,2.13,0.34,2.95
		c0.24,0.63,0.75,1.05,1.34,1.12c1.11,0.12,1.9-0.8,2.09-2.5C140.639,250.378,139.919,248.848,138.669,248.708z M154.099,250.788
		c-0.01-0.79-0.74-1.48-1.55-1.47c-1.14,0.02-1.86,1.14-1.83,2.82c0.03,1.86,0.86,3.05,2.12,3.03c0.44-0.01,0.83-0.17,1.07-0.47
		c0.15-0.17,0.25-0.35,0.25-0.46L154.099,250.788z M171.129,248.738c-0.31-1.76-1.02-3.07-1.95-3.65c-0.62-0.37-1.35-0.51-2.02-0.39
		c-0.82,0.14-1.48,0.6-1.94,1.34c-0.5,0.8-0.65,2.31-0.38,3.82c0.3,1.64,1.05,3.04,1.93,3.58c0.61,0.36,1.33,0.51,2,0.39
		c0.79-0.14,1.4-0.53,1.83-1.14c0.27-0.4,0.46-0.81,0.53-1.21C171.299,250.658,171.289,249.608,171.129,248.738z M196.859,83.708
		c-0.81-0.42-1.52-0.16-2.2,0.8l2.71,1.41C197.799,84.678,197.679,84.138,196.859,83.708z M178.769,73.658
		c-0.39-0.61-0.98-1.06-1.64-1.25c-0.79-0.22-1.59-0.11-2.33,0.35c-0.8,0.51-1.6,1.79-2.02,3.26c-0.46,1.6-0.4,3.19,0.15,4.06
		c0.39,0.6,0.97,1.05,1.63,1.23c0.76,0.22,1.49,0.15,2.13-0.21c0.43-0.24,0.78-0.53,1.01-0.85c0.52-0.67,0.97-1.61,1.22-2.46
		C179.409,76.068,179.349,74.588,178.769,73.658z M171.129,248.738c-0.31-1.76-1.02-3.07-1.95-3.65c-0.62-0.37-1.35-0.51-2.02-0.39
		c-0.82,0.14-1.48,0.6-1.94,1.34c-0.5,0.8-0.65,2.31-0.38,3.82c0.3,1.64,1.05,3.04,1.93,3.58c0.61,0.36,1.33,0.51,2,0.39
		c0.79-0.14,1.4-0.53,1.83-1.14c0.27-0.4,0.46-0.81,0.53-1.21C171.299,250.658,171.289,249.608,171.129,248.738z M160.689,72.148
		c-1.13-0.16-2.01,0.84-2.24,2.51c-0.25,1.84,0.39,3.14,1.64,3.31c0.43,0.06,0.84-0.03,1.13-0.3c0.17-0.14,0.3-0.31,0.31-0.41
		l0.47-3.42C162.109,73.058,161.489,72.258,160.689,72.148z M154.099,250.788c-0.01-0.79-0.74-1.48-1.55-1.47
		c-1.14,0.02-1.86,1.14-1.83,2.82c0.03,1.86,0.86,3.05,2.12,3.03c0.44-0.01,0.83-0.17,1.07-0.47c0.15-0.17,0.25-0.35,0.25-0.46
		L154.099,250.788z M146.269,71.138c-1.08-0.01-1.77,0.92-1.78,2.34c-0.01,1.07,0.22,2.12,0.64,2.9c0.31,0.6,0.86,0.97,1.45,0.97
		c1.12,0.01,1.8-0.99,1.81-2.7C148.409,72.598,147.529,71.148,146.269,71.138z M138.669,248.708c-1.07-0.12-1.86,0.73-2.02,2.15
		c-0.12,1.06,0.01,2.13,0.34,2.95c0.24,0.63,0.75,1.05,1.34,1.12c1.11,0.12,1.9-0.8,2.09-2.5
		C140.639,250.378,139.919,248.848,138.669,248.708z M196.859,83.708c-0.81-0.42-1.52-0.16-2.2,0.8l2.71,1.41
		C197.799,84.678,197.679,84.138,196.859,83.708z M178.769,73.658c-0.39-0.61-0.98-1.06-1.64-1.25c-0.79-0.22-1.59-0.11-2.33,0.35
		c-0.8,0.51-1.6,1.79-2.02,3.26c-0.46,1.6-0.4,3.19,0.15,4.06c0.39,0.6,0.97,1.05,1.63,1.23c0.76,0.22,1.49,0.15,2.13-0.21
		c0.43-0.24,0.78-0.53,1.01-0.85c0.52-0.67,0.97-1.61,1.22-2.46C179.409,76.068,179.349,74.588,178.769,73.658z M160.689,72.148
		c-1.13-0.16-2.01,0.84-2.24,2.51c-0.25,1.84,0.39,3.14,1.64,3.31c0.43,0.06,0.84-0.03,1.13-0.3c0.17-0.14,0.3-0.31,0.31-0.41
		l0.47-3.42C162.109,73.058,161.489,72.258,160.689,72.148z M146.269,71.138c-1.08-0.01-1.77,0.92-1.78,2.34
		c-0.01,1.07,0.22,2.12,0.64,2.9c0.31,0.6,0.86,0.97,1.45,0.97c1.12,0.01,1.8-0.99,1.81-2.7
		C148.409,72.598,147.529,71.148,146.269,71.138z M138.669,248.708c-1.07-0.12-1.86,0.73-2.02,2.15c-0.12,1.06,0.01,2.13,0.34,2.95
		c0.24,0.63,0.75,1.05,1.34,1.12c1.11,0.12,1.9-0.8,2.09-2.5C140.639,250.378,139.919,248.848,138.669,248.708z M196.859,83.708
		c-0.81-0.42-1.52-0.16-2.2,0.8l2.71,1.41C197.799,84.678,197.679,84.138,196.859,83.708z M178.769,73.658
		c-0.39-0.61-0.98-1.06-1.64-1.25c-0.79-0.22-1.59-0.11-2.33,0.35c-0.8,0.51-1.6,1.79-2.02,3.26c-0.46,1.6-0.4,3.19,0.15,4.06
		c0.39,0.6,0.97,1.05,1.63,1.23c0.76,0.22,1.49,0.15,2.13-0.21c0.43-0.24,0.78-0.53,1.01-0.85c0.52-0.67,0.97-1.61,1.22-2.46
		C179.409,76.068,179.349,74.588,178.769,73.658z M160.689,72.148c-1.13-0.16-2.01,0.84-2.24,2.51c-0.25,1.84,0.39,3.14,1.64,3.31
		c0.43,0.06,0.84-0.03,1.13-0.3c0.17-0.14,0.3-0.31,0.31-0.41l0.47-3.42C162.109,73.058,161.489,72.258,160.689,72.148z
		 M146.269,71.138c-1.08-0.01-1.77,0.92-1.78,2.34c-0.01,1.07,0.22,2.12,0.64,2.9c0.31,0.6,0.86,0.97,1.45,0.97
		c1.12,0.01,1.8-0.99,1.81-2.7C148.409,72.598,147.529,71.148,146.269,71.138z M138.669,248.708c-1.07-0.12-1.86,0.73-2.02,2.15
		c-0.12,1.06,0.01,2.13,0.34,2.95c0.24,0.63,0.75,1.05,1.34,1.12c1.11,0.12,1.9-0.8,2.09-2.5
		C140.639,250.378,139.919,248.848,138.669,248.708z M196.859,83.708c-0.81-0.42-1.52-0.16-2.2,0.8l2.71,1.41
		C197.799,84.678,197.679,84.138,196.859,83.708z M178.769,73.658c-0.39-0.61-0.98-1.06-1.64-1.25c-0.79-0.22-1.59-0.11-2.33,0.35
		c-0.8,0.51-1.6,1.79-2.02,3.26c-0.46,1.6-0.4,3.19,0.15,4.06c0.39,0.6,0.97,1.05,1.63,1.23c0.76,0.22,1.49,0.15,2.13-0.21
		c0.43-0.24,0.78-0.53,1.01-0.85c0.52-0.67,0.97-1.61,1.22-2.46C179.409,76.068,179.349,74.588,178.769,73.658z M160.689,72.148
		c-1.13-0.16-2.01,0.84-2.24,2.51c-0.25,1.84,0.39,3.14,1.64,3.31c0.43,0.06,0.84-0.03,1.13-0.3c0.17-0.14,0.3-0.31,0.31-0.41
		l0.47-3.42C162.109,73.058,161.489,72.258,160.689,72.148z M146.269,71.138c-1.08-0.01-1.77,0.92-1.78,2.34
		c-0.01,1.07,0.22,2.12,0.64,2.9c0.31,0.6,0.86,0.97,1.45,0.97c1.12,0.01,1.8-0.99,1.81-2.7
		C148.409,72.598,147.529,71.148,146.269,71.138z M196.859,83.708c-0.81-0.42-1.52-0.16-2.2,0.8l2.71,1.41
		C197.799,84.678,197.679,84.138,196.859,83.708z M178.769,73.658c-0.39-0.61-0.98-1.06-1.64-1.25c-0.79-0.22-1.59-0.11-2.33,0.35
		c-0.8,0.51-1.6,1.79-2.02,3.26c-0.46,1.6-0.4,3.19,0.15,4.06c0.39,0.6,0.97,1.05,1.63,1.23c0.76,0.22,1.49,0.15,2.13-0.21
		c0.43-0.24,0.78-0.53,1.01-0.85c0.52-0.67,0.97-1.61,1.22-2.46C179.409,76.068,179.349,74.588,178.769,73.658z M160.689,72.148
		c-1.13-0.16-2.01,0.84-2.24,2.51c-0.25,1.84,0.39,3.14,1.64,3.31c0.43,0.06,0.84-0.03,1.13-0.3c0.17-0.14,0.3-0.31,0.31-0.41
		l0.47-3.42C162.109,73.058,161.489,72.258,160.689,72.148z M146.269,71.138c-1.08-0.01-1.77,0.92-1.78,2.34
		c-0.01,1.07,0.22,2.12,0.64,2.9c0.31,0.6,0.86,0.97,1.45,0.97c1.12,0.01,1.8-0.99,1.81-2.7
		C148.409,72.598,147.529,71.148,146.269,71.138z M196.859,83.708c-0.81-0.42-1.52-0.16-2.2,0.8l2.71,1.41
		C197.799,84.678,197.679,84.138,196.859,83.708z M178.769,73.658c-0.39-0.61-0.98-1.06-1.64-1.25c-0.79-0.22-1.59-0.11-2.33,0.35
		c-0.8,0.51-1.6,1.79-2.02,3.26c-0.46,1.6-0.4,3.19,0.15,4.06c0.39,0.6,0.97,1.05,1.63,1.23c0.76,0.22,1.49,0.15,2.13-0.21
		c0.43-0.24,0.78-0.53,1.01-0.85c0.52-0.67,0.97-1.61,1.22-2.46C179.409,76.068,179.349,74.588,178.769,73.658z M160.689,72.148
		c-1.13-0.16-2.01,0.84-2.24,2.51c-0.25,1.84,0.39,3.14,1.64,3.31c0.43,0.06,0.84-0.03,1.13-0.3c0.17-0.14,0.3-0.31,0.31-0.41
		l0.47-3.42C162.109,73.058,161.489,72.258,160.689,72.148z M146.269,71.138c-1.08-0.01-1.77,0.92-1.78,2.34
		c-0.01,1.07,0.22,2.12,0.64,2.9c0.31,0.6,0.86,0.97,1.45,0.97c1.12,0.01,1.8-0.99,1.81-2.7
		C148.409,72.598,147.529,71.148,146.269,71.138z M196.859,83.708c-0.81-0.42-1.52-0.16-2.2,0.8l2.71,1.41
		C197.799,84.678,197.679,84.138,196.859,83.708z M178.769,73.658c-0.39-0.61-0.98-1.06-1.64-1.25c-0.79-0.22-1.59-0.11-2.33,0.35
		c-0.8,0.51-1.6,1.79-2.02,3.26c-0.46,1.6-0.4,3.19,0.15,4.06c0.39,0.6,0.97,1.05,1.63,1.23c0.76,0.22,1.49,0.15,2.13-0.21
		c0.43-0.24,0.78-0.53,1.01-0.85c0.52-0.67,0.97-1.61,1.22-2.46C179.409,76.068,179.349,74.588,178.769,73.658z M160.689,72.148
		c-1.13-0.16-2.01,0.84-2.24,2.51c-0.25,1.84,0.39,3.14,1.64,3.31c0.43,0.06,0.84-0.03,1.13-0.3c0.17-0.14,0.3-0.31,0.31-0.41
		l0.47-3.42C162.109,73.058,161.489,72.258,160.689,72.148z M146.269,71.138c-1.08-0.01-1.77,0.92-1.78,2.34
		c-0.01,1.07,0.22,2.12,0.64,2.9c0.31,0.6,0.86,0.97,1.45,0.97c1.12,0.01,1.8-0.99,1.81-2.7
		C148.409,72.598,147.529,71.148,146.269,71.138z M196.859,83.708c-0.81-0.42-1.52-0.16-2.2,0.8l2.71,1.41
		C197.799,84.678,197.679,84.138,196.859,83.708z M178.769,73.658c-0.39-0.61-0.98-1.06-1.64-1.25c-0.79-0.22-1.59-0.11-2.33,0.35
		c-0.8,0.51-1.6,1.79-2.02,3.26c-0.46,1.6-0.4,3.19,0.15,4.06c0.39,0.6,0.97,1.05,1.63,1.23c0.76,0.22,1.49,0.15,2.13-0.21
		c0.43-0.24,0.78-0.53,1.01-0.85c0.52-0.67,0.97-1.61,1.22-2.46C179.409,76.068,179.349,74.588,178.769,73.658z M160.689,72.148
		c-1.13-0.16-2.01,0.84-2.24,2.51c-0.25,1.84,0.39,3.14,1.64,3.31c0.43,0.06,0.84-0.03,1.13-0.3c0.17-0.14,0.3-0.31,0.31-0.41
		l0.47-3.42C162.109,73.058,161.489,72.258,160.689,72.148z M146.269,71.138c-1.08-0.01-1.77,0.92-1.78,2.34
		c-0.01,1.07,0.22,2.12,0.64,2.9c0.31,0.6,0.86,0.97,1.45,0.97c1.12,0.01,1.8-0.99,1.81-2.7
		C148.409,72.598,147.529,71.148,146.269,71.138z M196.859,83.708c-0.81-0.42-1.52-0.16-2.2,0.8l2.71,1.41
		C197.799,84.678,197.679,84.138,196.859,83.708z M178.769,73.658c-0.39-0.61-0.98-1.06-1.64-1.25c-0.79-0.22-1.59-0.11-2.33,0.35
		c-0.8,0.51-1.6,1.79-2.02,3.26c-0.46,1.6-0.4,3.19,0.15,4.06c0.39,0.6,0.97,1.05,1.63,1.23c0.76,0.22,1.49,0.15,2.13-0.21
		c0.43-0.24,0.78-0.53,1.01-0.85c0.52-0.67,0.97-1.61,1.22-2.46C179.409,76.068,179.349,74.588,178.769,73.658z M160.689,72.148
		c-1.13-0.16-2.01,0.84-2.24,2.51c-0.25,1.84,0.39,3.14,1.64,3.31c0.43,0.06,0.84-0.03,1.13-0.3c0.17-0.14,0.3-0.31,0.31-0.41
		l0.47-3.42C162.109,73.058,161.489,72.258,160.689,72.148z M146.269,71.138c-1.08-0.01-1.77,0.92-1.78,2.34
		c-0.01,1.07,0.22,2.12,0.64,2.9c0.31,0.6,0.86,0.97,1.45,0.97c1.12,0.01,1.8-0.99,1.81-2.7
		C148.409,72.598,147.529,71.148,146.269,71.138z M196.859,83.708c-0.81-0.42-1.52-0.16-2.2,0.8l2.71,1.41
		C197.799,84.678,197.679,84.138,196.859,83.708z M178.769,73.658c-0.39-0.61-0.98-1.06-1.64-1.25c-0.79-0.22-1.59-0.11-2.33,0.35
		c-0.8,0.51-1.6,1.79-2.02,3.26c-0.46,1.6-0.4,3.19,0.15,4.06c0.39,0.6,0.97,1.05,1.63,1.23c0.76,0.22,1.49,0.15,2.13-0.21
		c0.43-0.24,0.78-0.53,1.01-0.85c0.52-0.67,0.97-1.61,1.22-2.46C179.409,76.068,179.349,74.588,178.769,73.658z M160.689,72.148
		c-1.13-0.16-2.01,0.84-2.24,2.51c-0.25,1.84,0.39,3.14,1.64,3.31c0.43,0.06,0.84-0.03,1.13-0.3c0.17-0.14,0.3-0.31,0.31-0.41
		l0.47-3.42C162.109,73.058,161.489,72.258,160.689,72.148z M146.269,71.138c-1.08-0.01-1.77,0.92-1.78,2.34
		c-0.01,1.07,0.22,2.12,0.64,2.9c0.31,0.6,0.86,0.97,1.45,0.97c1.12,0.01,1.8-0.99,1.81-2.7
		C148.409,72.598,147.529,71.148,146.269,71.138z M196.859,83.708c-0.81-0.42-1.52-0.16-2.2,0.8l2.71,1.41
		C197.799,84.678,197.679,84.138,196.859,83.708z M178.769,73.658c-0.39-0.61-0.98-1.06-1.64-1.25c-0.79-0.22-1.59-0.11-2.33,0.35
		c-0.8,0.51-1.6,1.79-2.02,3.26c-0.46,1.6-0.4,3.19,0.15,4.06c0.39,0.6,0.97,1.05,1.63,1.23c0.76,0.22,1.49,0.15,2.13-0.21
		c0.43-0.24,0.78-0.53,1.01-0.85c0.52-0.67,0.97-1.61,1.22-2.46C179.409,76.068,179.349,74.588,178.769,73.658z M160.689,72.148
		c-1.13-0.16-2.01,0.84-2.24,2.51c-0.25,1.84,0.39,3.14,1.64,3.31c0.43,0.06,0.84-0.03,1.13-0.3c0.17-0.14,0.3-0.31,0.31-0.41
		l0.47-3.42C162.109,73.058,161.489,72.258,160.689,72.148z M146.269,71.138c-1.08-0.01-1.77,0.92-1.78,2.34
		c-0.01,1.07,0.22,2.12,0.64,2.9c0.31,0.6,0.86,0.97,1.45,0.97c1.12,0.01,1.8-0.99,1.81-2.7
		C148.409,72.598,147.529,71.148,146.269,71.138z M196.859,83.708c-0.81-0.42-1.52-0.16-2.2,0.8l2.71,1.41
		C197.799,84.678,197.679,84.138,196.859,83.708z M178.769,73.658c-0.39-0.61-0.98-1.06-1.64-1.25c-0.79-0.22-1.59-0.11-2.33,0.35
		c-0.8,0.51-1.6,1.79-2.02,3.26c-0.46,1.6-0.4,3.19,0.15,4.06c0.39,0.6,0.97,1.05,1.63,1.23c0.76,0.22,1.49,0.15,2.13-0.21
		c0.43-0.24,0.78-0.53,1.01-0.85c0.52-0.67,0.97-1.61,1.22-2.46C179.409,76.068,179.349,74.588,178.769,73.658z M160.689,72.148
		c-1.13-0.16-2.01,0.84-2.24,2.51c-0.25,1.84,0.39,3.14,1.64,3.31c0.43,0.06,0.84-0.03,1.13-0.3c0.17-0.14,0.3-0.31,0.31-0.41
		l0.47-3.42C162.109,73.058,161.489,72.258,160.689,72.148z M146.269,71.138c-1.08-0.01-1.77,0.92-1.78,2.34
		c-0.01,1.07,0.22,2.12,0.64,2.9c0.31,0.6,0.86,0.97,1.45,0.97c1.12,0.01,1.8-0.99,1.81-2.7
		C148.409,72.598,147.529,71.148,146.269,71.138z M196.859,83.708c-0.81-0.42-1.52-0.16-2.2,0.8l2.71,1.41
		C197.799,84.678,197.679,84.138,196.859,83.708z M178.769,73.658c-0.39-0.61-0.98-1.06-1.64-1.25c-0.79-0.22-1.59-0.11-2.33,0.35
		c-0.8,0.51-1.6,1.79-2.02,3.26c-0.46,1.6-0.4,3.19,0.15,4.06c0.39,0.6,0.97,1.05,1.63,1.23c0.76,0.22,1.49,0.15,2.13-0.21
		c0.43-0.24,0.78-0.53,1.01-0.85c0.52-0.67,0.97-1.61,1.22-2.46C179.409,76.068,179.349,74.588,178.769,73.658z M160.689,72.148
		c-1.13-0.16-2.01,0.84-2.24,2.51c-0.25,1.84,0.39,3.14,1.64,3.31c0.43,0.06,0.84-0.03,1.13-0.3c0.17-0.14,0.3-0.31,0.31-0.41
		l0.47-3.42C162.109,73.058,161.489,72.258,160.689,72.148z M146.269,71.138c-1.08-0.01-1.77,0.92-1.78,2.34
		c-0.01,1.07,0.22,2.12,0.64,2.9c0.31,0.6,0.86,0.97,1.45,0.97c1.12,0.01,1.8-0.99,1.81-2.7
		C148.409,72.598,147.529,71.148,146.269,71.138z M196.859,83.708c-0.81-0.42-1.52-0.16-2.2,0.8l2.71,1.41
		C197.799,84.678,197.679,84.138,196.859,83.708z M178.769,73.658c-0.39-0.61-0.98-1.06-1.64-1.25c-0.79-0.22-1.59-0.11-2.33,0.35
		c-0.8,0.51-1.6,1.79-2.02,3.26c-0.46,1.6-0.4,3.19,0.15,4.06c0.39,0.6,0.97,1.05,1.63,1.23c0.76,0.22,1.49,0.15,2.13-0.21
		c0.43-0.24,0.78-0.53,1.01-0.85c0.52-0.67,0.97-1.61,1.22-2.46C179.409,76.068,179.349,74.588,178.769,73.658z M160.689,72.148
		c-1.13-0.16-2.01,0.84-2.24,2.51c-0.25,1.84,0.39,3.14,1.64,3.31c0.43,0.06,0.84-0.03,1.13-0.3c0.17-0.14,0.3-0.31,0.31-0.41
		l0.47-3.42C162.109,73.058,161.489,72.258,160.689,72.148z M146.269,71.138c-1.08-0.01-1.77,0.92-1.78,2.34
		c-0.01,1.07,0.22,2.12,0.64,2.9c0.31,0.6,0.86,0.97,1.45,0.97c1.12,0.01,1.8-0.99,1.81-2.7
		C148.409,72.598,147.529,71.148,146.269,71.138z M196.859,83.708c-0.81-0.42-1.52-0.16-2.2,0.8l2.71,1.41
		C197.799,84.678,197.679,84.138,196.859,83.708z M178.769,73.658c-0.39-0.61-0.98-1.06-1.64-1.25c-0.79-0.22-1.59-0.11-2.33,0.35
		c-0.8,0.51-1.6,1.79-2.02,3.26c-0.46,1.6-0.4,3.19,0.15,4.06c0.39,0.6,0.97,1.05,1.63,1.23c0.76,0.22,1.49,0.15,2.13-0.21
		c0.43-0.24,0.78-0.53,1.01-0.85c0.52-0.67,0.97-1.61,1.22-2.46C179.409,76.068,179.349,74.588,178.769,73.658z M160.689,72.148
		c-1.13-0.16-2.01,0.84-2.24,2.51c-0.25,1.84,0.39,3.14,1.64,3.31c0.43,0.06,0.84-0.03,1.13-0.3c0.17-0.14,0.3-0.31,0.31-0.41
		l0.47-3.42C162.109,73.058,161.489,72.258,160.689,72.148z M146.269,71.138c-1.08-0.01-1.77,0.92-1.78,2.34
		c-0.01,1.07,0.22,2.12,0.64,2.9c0.31,0.6,0.86,0.97,1.45,0.97c1.12,0.01,1.8-0.99,1.81-2.7
		C148.409,72.598,147.529,71.148,146.269,71.138z M196.859,83.708c-0.81-0.42-1.52-0.16-2.2,0.8l2.71,1.41
		C197.799,84.678,197.679,84.138,196.859,83.708z M178.769,73.658c-0.39-0.61-0.98-1.06-1.64-1.25c-0.79-0.22-1.59-0.11-2.33,0.35
		c-0.8,0.51-1.6,1.79-2.02,3.26c-0.46,1.6-0.4,3.19,0.15,4.06c0.39,0.6,0.97,1.05,1.63,1.23c0.76,0.22,1.49,0.15,2.13-0.21
		c0.43-0.24,0.78-0.53,1.01-0.85c0.52-0.67,0.97-1.61,1.22-2.46C179.409,76.068,179.349,74.588,178.769,73.658z M160.689,72.148
		c-1.13-0.16-2.01,0.84-2.24,2.51c-0.25,1.84,0.39,3.14,1.64,3.31c0.43,0.06,0.84-0.03,1.13-0.3c0.17-0.14,0.3-0.31,0.31-0.41
		l0.47-3.42C162.109,73.058,161.489,72.258,160.689,72.148z M146.269,71.138c-1.08-0.01-1.77,0.92-1.78,2.34
		c-0.01,1.07,0.22,2.12,0.64,2.9c0.31,0.6,0.86,0.97,1.45,0.97c1.12,0.01,1.8-0.99,1.81-2.7
		C148.409,72.598,147.529,71.148,146.269,71.138z M196.859,83.708c-0.81-0.42-1.52-0.16-2.2,0.8l2.71,1.41
		C197.799,84.678,197.679,84.138,196.859,83.708z M178.769,73.658c-0.39-0.61-0.98-1.06-1.64-1.25c-0.79-0.22-1.59-0.11-2.33,0.35
		c-0.8,0.51-1.6,1.79-2.02,3.26c-0.46,1.6-0.4,3.19,0.15,4.06c0.39,0.6,0.97,1.05,1.63,1.23c0.76,0.22,1.49,0.15,2.13-0.21
		c0.43-0.24,0.78-0.53,1.01-0.85c0.52-0.67,0.97-1.61,1.22-2.46C179.409,76.068,179.349,74.588,178.769,73.658z M160.689,72.148
		c-1.13-0.16-2.01,0.84-2.24,2.51c-0.25,1.84,0.39,3.14,1.64,3.31c0.43,0.06,0.84-0.03,1.13-0.3c0.17-0.14,0.3-0.31,0.31-0.41
		l0.47-3.42C162.109,73.058,161.489,72.258,160.689,72.148z M146.269,71.138c-1.08-0.01-1.77,0.92-1.78,2.34
		c-0.01,1.07,0.22,2.12,0.64,2.9c0.31,0.6,0.86,0.97,1.45,0.97c1.12,0.01,1.8-0.99,1.81-2.7
		C148.409,72.598,147.529,71.148,146.269,71.138z M196.859,83.708c-0.81-0.42-1.52-0.16-2.2,0.8l2.71,1.41
		C197.799,84.678,197.679,84.138,196.859,83.708z M178.769,73.658c-0.39-0.61-0.98-1.06-1.64-1.25c-0.79-0.22-1.59-0.11-2.33,0.35
		c-0.8,0.51-1.6,1.79-2.02,3.26c-0.46,1.6-0.4,3.19,0.15,4.06c0.39,0.6,0.97,1.05,1.63,1.23c0.76,0.22,1.49,0.15,2.13-0.21
		c0.43-0.24,0.78-0.53,1.01-0.85c0.52-0.67,0.97-1.61,1.22-2.46C179.409,76.068,179.349,74.588,178.769,73.658z M160.689,72.148
		c-1.13-0.16-2.01,0.84-2.24,2.51c-0.25,1.84,0.39,3.14,1.64,3.31c0.43,0.06,0.84-0.03,1.13-0.3c0.17-0.14,0.3-0.31,0.31-0.41
		l0.47-3.42C162.109,73.058,161.489,72.258,160.689,72.148z M146.269,71.138c-1.08-0.01-1.77,0.92-1.78,2.34
		c-0.01,1.07,0.22,2.12,0.64,2.9c0.31,0.6,0.86,0.97,1.45,0.97c1.12,0.01,1.8-0.99,1.81-2.7
		C148.409,72.598,147.529,71.148,146.269,71.138z M196.859,83.708c-0.81-0.42-1.52-0.16-2.2,0.8l2.71,1.41
		C197.799,84.678,197.679,84.138,196.859,83.708z M178.769,73.658c-0.39-0.61-0.98-1.06-1.64-1.25c-0.79-0.22-1.59-0.11-2.33,0.35
		c-0.8,0.51-1.6,1.79-2.02,3.26c-0.46,1.6-0.4,3.19,0.15,4.06c0.39,0.6,0.97,1.05,1.63,1.23c0.76,0.22,1.49,0.15,2.13-0.21
		c0.43-0.24,0.78-0.53,1.01-0.85c0.52-0.67,0.97-1.61,1.22-2.46C179.409,76.068,179.349,74.588,178.769,73.658z M160.689,72.148
		c-1.13-0.16-2.01,0.84-2.24,2.51c-0.25,1.84,0.39,3.14,1.64,3.31c0.43,0.06,0.84-0.03,1.13-0.3c0.17-0.14,0.3-0.31,0.31-0.41
		l0.47-3.42C162.109,73.058,161.489,72.258,160.689,72.148z M146.269,71.138c-1.08-0.01-1.77,0.92-1.78,2.34
		c-0.01,1.07,0.22,2.12,0.64,2.9c0.31,0.6,0.86,0.97,1.45,0.97c1.12,0.01,1.8-0.99,1.81-2.7
		C148.409,72.598,147.529,71.148,146.269,71.138z M196.859,83.708c-0.81-0.42-1.52-0.16-2.2,0.8l2.71,1.41
		C197.799,84.678,197.679,84.138,196.859,83.708z M178.769,73.658c-0.39-0.61-0.98-1.06-1.64-1.25c-0.79-0.22-1.59-0.11-2.33,0.35
		c-0.8,0.51-1.6,1.79-2.02,3.26c-0.46,1.6-0.4,3.19,0.15,4.06c0.39,0.6,0.97,1.05,1.63,1.23c0.76,0.22,1.49,0.15,2.13-0.21
		c0.43-0.24,0.78-0.53,1.01-0.85c0.52-0.67,0.97-1.61,1.22-2.46C179.409,76.068,179.349,74.588,178.769,73.658z M160.689,72.148
		c-1.13-0.16-2.01,0.84-2.24,2.51c-0.25,1.84,0.39,3.14,1.64,3.31c0.43,0.06,0.84-0.03,1.13-0.3c0.17-0.14,0.3-0.31,0.31-0.41
		l0.47-3.42C162.109,73.058,161.489,72.258,160.689,72.148z M196.859,83.708c-0.81-0.42-1.52-0.16-2.2,0.8l2.71,1.41
		C197.799,84.678,197.679,84.138,196.859,83.708z M178.769,73.658c-0.39-0.61-0.98-1.06-1.64-1.25c-0.79-0.22-1.59-0.11-2.33,0.35
		c-0.8,0.51-1.6,1.79-2.02,3.26c-0.46,1.6-0.4,3.19,0.15,4.06c0.39,0.6,0.97,1.05,1.63,1.23c0.76,0.22,1.49,0.15,2.13-0.21
		c0.43-0.24,0.78-0.53,1.01-0.85c0.52-0.67,0.97-1.61,1.22-2.46C179.409,76.068,179.349,74.588,178.769,73.658z M160.689,72.148
		c-1.13-0.16-2.01,0.84-2.24,2.51c-0.25,1.84,0.39,3.14,1.64,3.31c0.43,0.06,0.84-0.03,1.13-0.3c0.17-0.14,0.3-0.31,0.31-0.41
		l0.47-3.42C162.109,73.058,161.489,72.258,160.689,72.148z M196.859,83.708c-0.81-0.42-1.52-0.16-2.2,0.8l2.71,1.41
		C197.799,84.678,197.679,84.138,196.859,83.708z M196.859,83.708c-0.81-0.42-1.52-0.16-2.2,0.8l2.71,1.41
		C197.799,84.678,197.679,84.138,196.859,83.708z M196.859,83.708c-0.81-0.42-1.52-0.16-2.2,0.8l2.71,1.41
		C197.799,84.678,197.679,84.138,196.859,83.708z M196.859,83.708c-0.81-0.42-1.52-0.16-2.2,0.8l2.71,1.41
		C197.799,84.678,197.679,84.138,196.859,83.708z" />
    <path fill="#BCBCBC" d="M147.179,85.538c-41.61,0-75.34,33.72-75.34,75.33s33.73,75.33,75.34,75.33c41.6,0,75.33-33.72,75.33-75.33
		S188.779,85.538,147.179,85.538z M161.819,195.848h-28.56v-1.55c7.86-0.1,9.62-1.55,9.83-8.07v-46.89c0-3.31-0.93-4.86-3.11-4.86
		c-0.93,0-3.41,0.72-7.45,2.27v-1.44l18.63-9.42l0.83,0.2v62.1c0.1,4.97,1.86,6.11,9.83,6.11V195.848z" />
</g>
</svg>
