<?xml version="1.0" encoding="utf-8"?><!-- Generator: Adobe Illustrator 17.0.0, SVG Export Plug-In . SVG Version: 6.00 Build 0)  -->
<!DOCTYPE svg PUBLIC "-//W3C//DTD SVG 1.1//EN" "http://www.w3.org/Graphics/SVG/1.1/DTD/svg11.dtd">
<svg version="1.1" id="Layer_1" xmlns="http://www.w3.org/2000/svg"
    xmlns:xlink="http://www.w3.org/1999/xlink" x="0px" y="0px" width="300px" height="300px"
    viewBox="0 0 300 300" enable-background="new 0 0 300 300" xml:space="preserve">
<g>
	<g>
		<path fill="#FFE000" d="M133.5,105.171c-6.19,0-9.29,5.71-9.29,12.08c0,6.19,3.36,11.74,9.25,11.74c5.93,0,9.29-5.46,9.29-12.04
			C142.75,111.191,139.74,105.171,133.5,105.171z M133.5,105.171c-6.19,0-9.29,5.71-9.29,12.08c0,6.19,3.36,11.74,9.25,11.74
			c5.93,0,9.29-5.46,9.29-12.04C142.75,111.191,139.74,105.171,133.5,105.171z M133.5,105.171c-6.19,0-9.29,5.71-9.29,12.08
			c0,6.19,3.36,11.74,9.25,11.74c5.93,0,9.29-5.46,9.29-12.04C142.75,111.191,139.74,105.171,133.5,105.171z M179.98,105.341
			c-1.93,0-3.39,0.17-4.38,0.38v22.88c0.94,0.17,2.32,0.22,3.78,0.22c8,0,12.34-4.48,12.34-12.3
			C191.76,109.681,187.9,105.341,179.98,105.341z M179.98,105.341c-1.93,0-3.39,0.17-4.38,0.38v22.88c0.94,0.17,2.32,0.22,3.78,0.22
			c8,0,12.34-4.48,12.34-12.3C191.76,109.681,187.9,105.341,179.98,105.341z M133.5,105.171c-6.19,0-9.29,5.71-9.29,12.08
			c0,6.19,3.36,11.74,9.25,11.74c5.93,0,9.29-5.46,9.29-12.04C142.75,111.191,139.74,105.171,133.5,105.171z M133.5,105.171
			c-6.19,0-9.29,5.71-9.29,12.08c0,6.19,3.36,11.74,9.25,11.74c5.93,0,9.29-5.46,9.29-12.04
			C142.75,111.191,139.74,105.171,133.5,105.171z M179.98,105.341c-1.93,0-3.39,0.17-4.38,0.38v22.88c0.94,0.17,2.32,0.22,3.78,0.22
			c8,0,12.34-4.48,12.34-12.3C191.76,109.681,187.9,105.341,179.98,105.341z M179.98,105.341c-1.93,0-3.39,0.17-4.38,0.38v22.88
			c0.94,0.17,2.32,0.22,3.78,0.22c8,0,12.34-4.48,12.34-12.3C191.76,109.681,187.9,105.341,179.98,105.341z M133.5,105.171
			c-6.19,0-9.29,5.71-9.29,12.08c0,6.19,3.36,11.74,9.25,11.74c5.93,0,9.29-5.46,9.29-12.04
			C142.75,111.191,139.74,105.171,133.5,105.171z M133.5,105.171c-6.19,0-9.29,5.71-9.29,12.08c0,6.19,3.36,11.74,9.25,11.74
			c5.93,0,9.29-5.46,9.29-12.04C142.75,111.191,139.74,105.171,133.5,105.171z M179.98,105.341c-1.93,0-3.39,0.17-4.38,0.38v22.88
			c0.94,0.17,2.32,0.22,3.78,0.22c8,0,12.34-4.48,12.34-12.3C191.76,109.681,187.9,105.341,179.98,105.341z M179.98,105.341
			c-1.93,0-3.39,0.17-4.38,0.38v22.88c0.94,0.17,2.32,0.22,3.78,0.22c8,0,12.34-4.48,12.34-12.3
			C191.76,109.681,187.9,105.341,179.98,105.341z M133.5,105.171c-6.19,0-9.29,5.71-9.29,12.08c0,6.19,3.36,11.74,9.25,11.74
			c5.93,0,9.29-5.46,9.29-12.04C142.75,111.191,139.74,105.171,133.5,105.171z M133.5,105.171c-6.19,0-9.29,5.71-9.29,12.08
			c0,6.19,3.36,11.74,9.25,11.74c5.93,0,9.29-5.46,9.29-12.04C142.75,111.191,139.74,105.171,133.5,105.171z M179.98,105.341
			c-1.93,0-3.39,0.17-4.38,0.38v22.88c0.94,0.17,2.32,0.22,3.78,0.22c8,0,12.34-4.48,12.34-12.3
			C191.76,109.681,187.9,105.341,179.98,105.341z M179.98,105.341c-1.93,0-3.39,0.17-4.38,0.38v22.88c0.94,0.17,2.32,0.22,3.78,0.22
			c8,0,12.34-4.48,12.34-12.3C191.76,109.681,187.9,105.341,179.98,105.341z M133.5,105.171c-6.19,0-9.29,5.71-9.29,12.08
			c0,6.19,3.36,11.74,9.25,11.74c5.93,0,9.29-5.46,9.29-12.04C142.75,111.191,139.74,105.171,133.5,105.171z M133.5,105.171
			c-6.19,0-9.29,5.71-9.29,12.08c0,6.19,3.36,11.74,9.25,11.74c5.93,0,9.29-5.46,9.29-12.04
			C142.75,111.191,139.74,105.171,133.5,105.171z M179.98,105.341c-1.93,0-3.39,0.17-4.38,0.38v22.88c0.94,0.17,2.32,0.22,3.78,0.22
			c8,0,12.34-4.48,12.34-12.3C191.76,109.681,187.9,105.341,179.98,105.341z M179.98,105.341c-1.93,0-3.39,0.17-4.38,0.38v22.88
			c0.94,0.17,2.32,0.22,3.78,0.22c8,0,12.34-4.48,12.34-12.3C191.76,109.681,187.9,105.341,179.98,105.341z M133.5,105.171
			c-6.19,0-9.29,5.71-9.29,12.08c0,6.19,3.36,11.74,9.25,11.74c5.93,0,9.29-5.46,9.29-12.04
			C142.75,111.191,139.74,105.171,133.5,105.171z M133.5,105.171c-6.19,0-9.29,5.71-9.29,12.08c0,6.19,3.36,11.74,9.25,11.74
			c5.93,0,9.29-5.46,9.29-12.04C142.75,111.191,139.74,105.171,133.5,105.171z M179.98,105.341c-1.93,0-3.39,0.17-4.38,0.38v22.88
			c0.94,0.17,2.32,0.22,3.78,0.22c8,0,12.34-4.48,12.34-12.3C191.76,109.681,187.9,105.341,179.98,105.341z M179.98,105.341
			c-1.93,0-3.39,0.17-4.38,0.38v22.88c0.94,0.17,2.32,0.22,3.78,0.22c8,0,12.34-4.48,12.34-12.3
			C191.76,109.681,187.9,105.341,179.98,105.341z M133.5,105.171c-6.19,0-9.29,5.71-9.29,12.08c0,6.19,3.36,11.74,9.25,11.74
			c5.93,0,9.29-5.46,9.29-12.04C142.75,111.191,139.74,105.171,133.5,105.171z M133.5,105.171c-6.19,0-9.29,5.71-9.29,12.08
			c0,6.19,3.36,11.74,9.25,11.74c5.93,0,9.29-5.46,9.29-12.04C142.75,111.191,139.74,105.171,133.5,105.171z M179.98,105.341
			c-1.93,0-3.39,0.17-4.38,0.38v22.88c0.94,0.17,2.32,0.22,3.78,0.22c8,0,12.34-4.48,12.34-12.3
			C191.76,109.681,187.9,105.341,179.98,105.341z M179.98,105.341c-1.93,0-3.39,0.17-4.38,0.38v22.88c0.94,0.17,2.32,0.22,3.78,0.22
			c8,0,12.34-4.48,12.34-12.3C191.76,109.681,187.9,105.341,179.98,105.341z M133.5,105.171c-6.19,0-9.29,5.71-9.29,12.08
			c0,6.19,3.36,11.74,9.25,11.74c5.93,0,9.29-5.46,9.29-12.04C142.75,111.191,139.74,105.171,133.5,105.171z M133.5,105.171
			c-6.19,0-9.29,5.71-9.29,12.08c0,6.19,3.36,11.74,9.25,11.74c5.93,0,9.29-5.46,9.29-12.04
			C142.75,111.191,139.74,105.171,133.5,105.171z M179.98,105.341c-1.93,0-3.39,0.17-4.38,0.38v22.88c0.94,0.17,2.32,0.22,3.78,0.22
			c8,0,12.34-4.48,12.34-12.3C191.76,109.681,187.9,105.341,179.98,105.341z M179.98,105.341c-1.93,0-3.39,0.17-4.38,0.38v22.88
			c0.94,0.17,2.32,0.22,3.78,0.22c8,0,12.34-4.48,12.34-12.3C191.76,109.681,187.9,105.341,179.98,105.341z M133.5,105.171
			c-6.19,0-9.29,5.71-9.29,12.08c0,6.19,3.36,11.74,9.25,11.74c5.93,0,9.29-5.46,9.29-12.04
			C142.75,111.191,139.74,105.171,133.5,105.171z M133.5,105.171c-6.19,0-9.29,5.71-9.29,12.08c0,6.19,3.36,11.74,9.25,11.74
			c5.93,0,9.29-5.46,9.29-12.04C142.75,111.191,139.74,105.171,133.5,105.171z M179.98,105.341c-1.93,0-3.39,0.17-4.38,0.38v22.88
			c0.94,0.17,2.32,0.22,3.78,0.22c8,0,12.34-4.48,12.34-12.3C191.76,109.681,187.9,105.341,179.98,105.341z M179.98,105.341
			c-1.93,0-3.39,0.17-4.38,0.38v22.88c0.94,0.17,2.32,0.22,3.78,0.22c8,0,12.34-4.48,12.34-12.3
			C191.76,109.681,187.9,105.341,179.98,105.341z M133.5,105.171c-6.19,0-9.29,5.71-9.29,12.08c0,6.19,3.36,11.74,9.25,11.74
			c5.93,0,9.29-5.46,9.29-12.04C142.75,111.191,139.74,105.171,133.5,105.171z M133.5,105.171c-6.19,0-9.29,5.71-9.29,12.08
			c0,6.19,3.36,11.74,9.25,11.74c5.93,0,9.29-5.46,9.29-12.04C142.75,111.191,139.74,105.171,133.5,105.171z M179.98,105.341
			c-1.93,0-3.39,0.17-4.38,0.38v22.88c0.94,0.17,2.32,0.22,3.78,0.22c8,0,12.34-4.48,12.34-12.3
			C191.76,109.681,187.9,105.341,179.98,105.341z M179.98,105.341c-1.93,0-3.39,0.17-4.38,0.38v22.88c0.94,0.17,2.32,0.22,3.78,0.22
			c8,0,12.34-4.48,12.34-12.3C191.76,109.681,187.9,105.341,179.98,105.341z M133.5,105.171c-6.19,0-9.29,5.71-9.29,12.08
			c0,6.19,3.36,11.74,9.25,11.74c5.93,0,9.29-5.46,9.29-12.04C142.75,111.191,139.74,105.171,133.5,105.171z M133.5,105.171
			c-6.19,0-9.29,5.71-9.29,12.08c0,6.19,3.36,11.74,9.25,11.74c5.93,0,9.29-5.46,9.29-12.04
			C142.75,111.191,139.74,105.171,133.5,105.171z M179.98,105.341c-1.93,0-3.39,0.17-4.38,0.38v22.88c0.94,0.17,2.32,0.22,3.78,0.22
			c8,0,12.34-4.48,12.34-12.3C191.76,109.681,187.9,105.341,179.98,105.341z M179.98,105.341c-1.93,0-3.39,0.17-4.38,0.38v22.88
			c0.94,0.17,2.32,0.22,3.78,0.22c8,0,12.34-4.48,12.34-12.3C191.76,109.681,187.9,105.341,179.98,105.341z M133.5,105.171
			c-6.19,0-9.29,5.71-9.29,12.08c0,6.19,3.36,11.74,9.25,11.74c5.93,0,9.29-5.46,9.29-12.04
			C142.75,111.191,139.74,105.171,133.5,105.171z M133.5,105.171c-6.19,0-9.29,5.71-9.29,12.08c0,6.19,3.36,11.74,9.25,11.74
			c5.93,0,9.29-5.46,9.29-12.04C142.75,111.191,139.74,105.171,133.5,105.171z M179.98,105.341c-1.93,0-3.39,0.17-4.38,0.38v22.88
			c0.94,0.17,2.32,0.22,3.78,0.22c8,0,12.34-4.48,12.34-12.3C191.76,109.681,187.9,105.341,179.98,105.341z M179.98,105.341
			c-1.93,0-3.39,0.17-4.38,0.38v22.88c0.94,0.17,2.32,0.22,3.78,0.22c8,0,12.34-4.48,12.34-12.3
			C191.76,109.681,187.9,105.341,179.98,105.341z M133.5,105.171c-6.19,0-9.29,5.71-9.29,12.08c0,6.19,3.36,11.74,9.25,11.74
			c5.93,0,9.29-5.46,9.29-12.04C142.75,111.191,139.74,105.171,133.5,105.171z M133.5,105.171c-6.19,0-9.29,5.71-9.29,12.08
			c0,6.19,3.36,11.74,9.25,11.74c5.93,0,9.29-5.46,9.29-12.04C142.75,111.191,139.74,105.171,133.5,105.171z M179.98,105.341
			c-1.93,0-3.39,0.17-4.38,0.38v22.88c0.94,0.17,2.32,0.22,3.78,0.22c8,0,12.34-4.48,12.34-12.3
			C191.76,109.681,187.9,105.341,179.98,105.341z M179.98,105.341c-1.93,0-3.39,0.17-4.38,0.38v22.88c0.94,0.17,2.32,0.22,3.78,0.22
			c8,0,12.34-4.48,12.34-12.3C191.76,109.681,187.9,105.341,179.98,105.341z M133.5,105.171c-6.19,0-9.29,5.71-9.29,12.08
			c0,6.19,3.36,11.74,9.25,11.74c5.93,0,9.29-5.46,9.29-12.04C142.75,111.191,139.74,105.171,133.5,105.171z M133.5,105.171
			c-6.19,0-9.29,5.71-9.29,12.08c0,6.19,3.36,11.74,9.25,11.74c5.93,0,9.29-5.46,9.29-12.04
			C142.75,111.191,139.74,105.171,133.5,105.171z M179.98,105.341c-1.93,0-3.39,0.17-4.38,0.38v22.88c0.94,0.17,2.32,0.22,3.78,0.22
			c8,0,12.34-4.48,12.34-12.3C191.76,109.681,187.9,105.341,179.98,105.341z M179.98,105.341c-1.93,0-3.39,0.17-4.38,0.38v22.88
			c0.94,0.17,2.32,0.22,3.78,0.22c8,0,12.34-4.48,12.34-12.3C191.76,109.681,187.9,105.341,179.98,105.341z M133.5,105.171
			c-6.19,0-9.29,5.71-9.29,12.08c0,6.19,3.36,11.74,9.25,11.74c5.93,0,9.29-5.46,9.29-12.04
			C142.75,111.191,139.74,105.171,133.5,105.171z M133.5,105.171c-6.19,0-9.29,5.71-9.29,12.08c0,6.19,3.36,11.74,9.25,11.74
			c5.93,0,9.29-5.46,9.29-12.04C142.75,111.191,139.74,105.171,133.5,105.171z M179.98,105.341c-1.93,0-3.39,0.17-4.38,0.38v22.88
			c0.94,0.17,2.32,0.22,3.78,0.22c8,0,12.34-4.48,12.34-12.3C191.76,109.681,187.9,105.341,179.98,105.341z M179.98,105.341
			c-1.93,0-3.39,0.17-4.38,0.38v22.88c0.94,0.17,2.32,0.22,3.78,0.22c8,0,12.34-4.48,12.34-12.3
			C191.76,109.681,187.9,105.341,179.98,105.341z M133.5,105.171c-6.19,0-9.29,5.71-9.29,12.08c0,6.19,3.36,11.74,9.25,11.74
			c5.93,0,9.29-5.46,9.29-12.04C142.75,111.191,139.74,105.171,133.5,105.171z M133.5,105.171c-6.19,0-9.29,5.71-9.29,12.08
			c0,6.19,3.36,11.74,9.25,11.74c5.93,0,9.29-5.46,9.29-12.04C142.75,111.191,139.74,105.171,133.5,105.171z M179.98,105.341
			c-1.93,0-3.39,0.17-4.38,0.38v22.88c0.94,0.17,2.32,0.22,3.78,0.22c8,0,12.34-4.48,12.34-12.3
			C191.76,109.681,187.9,105.341,179.98,105.341z M133.5,105.171c-6.19,0-9.29,5.71-9.29,12.08c0,6.19,3.36,11.74,9.25,11.74
			c5.93,0,9.29-5.46,9.29-12.04C142.75,111.191,139.74,105.171,133.5,105.171z M179.98,105.341c-1.93,0-3.39,0.17-4.38,0.38v22.88
			c0.94,0.17,2.32,0.22,3.78,0.22c8,0,12.34-4.48,12.34-12.3C191.76,109.681,187.9,105.341,179.98,105.341z M168.82,69.151
			c-6.05,0.21-12.31,0.34-18.73,0.38c-1.56-0.1-3.13-0.15-4.71-0.15s-3.15,0.05-4.71,0.15c-6.42-0.04-12.69-0.17-18.75-0.38
			c-31.49,9.76-54.56,38.66-55.61,73.11c0,0.32-0.01,0.64-0.01,0.96c-0.03,0.49-0.03,0.99-0.03,1.49c0,6.83,0.87,13.46,2.5,19.79
			c0.05,0.22,0.11,0.45,0.18,0.67c9.01,33.76,39.82,58.63,76.43,58.63c36.64,0,67.46-24.93,76.44-58.74
			c0.06-0.18,0.1-0.37,0.15-0.56c0.03-0.11,0.06-0.23,0.09-0.34c0.1-0.39,0.19-0.77,0.28-1.16c1.39-5.87,2.13-11.99,2.13-18.29
			C224.47,109.191,201.05,79.141,168.82,69.151z M167.69,128.431v3.14h-16.13v-28.98h3.74v25.84H167.69z M159.44,154.551
			c2.01-0.12,2.37-0.51,2.44-2.52v-12.44c-0.07-2.01-0.4-2.38-2.44-2.52v-0.53h14.86l0.08,4.01h-0.7c-0.44-2.5-1.01-2.89-4.24-2.94
			h-3.78c-0.79,0-0.91,0.11-0.93,0.95v6.21h4.31c2.35-0.05,2.75-0.39,3.07-2.66h0.65v6.5h-0.65c-0.36-2.3-0.72-2.63-3.07-2.69h-4.31
			v6.92c0,1.09,0.02,1.12,2.94,1.2h0.76c3.99-0.03,5.25-0.73,6.61-3.69h0.77l-1.26,4.73h-15.11V154.551z M186.54,154.551v0.53h-7.75
			v-0.53c2.09-0.17,2.34-0.45,2.38-2.83v-12.13c-0.04-2.04-0.31-2.29-2.38-2.52v-0.53h7.72c2.6,0,4.96,0.73,6.03,1.88
			c0.71,0.81,1.08,1.85,1.08,3.05c0,2.58-1.51,3.98-5.07,4.68l5.77,7.08c0.81,0.95,1.37,1.23,2.43,1.32v0.53h-4.51l-6.66-8.63
			l-1.57,0.06v5.52C184.05,154.071,184.38,154.411,186.54,154.551z M191.46,127.651c-2.71,2.71-7.18,4.18-12.81,4.18
			c-2.67,0-4.9-0.13-6.79-0.35v-28.51c2.28-0.34,4.98-0.6,7.95-0.6c5.38,0,9.2,1.25,11.74,3.61c2.58,2.37,4.08,5.72,4.08,10.41
			C195.63,121.121,194.17,124.991,191.46,127.651z M156.57,136.541v0.53c-2.2,0.2-2.57,0.68-2.65,3.59v14.73h-0.48l-12.38-15.4
			v10.97c0.07,2.89,0.49,3.47,2.63,3.59v0.53h-6.57v-0.53c2.3-0.14,2.65-0.62,2.71-3.59v-12.35c-1.11-1.31-1.51-1.54-2.71-1.54
			v-0.53h4.79l10.78,13.55v-9.43c-0.08-2.97-0.45-3.45-2.69-3.59v-0.53H156.57z M107.57,128.771c2.45,0,4.13-0.34,4.99-0.77v-8.64
			h-5.89v-3.01h9.55v13.93c-1.68,0.6-4.99,1.59-8.91,1.59c-4.38,0-7.99-1.12-10.83-3.83c-2.5-2.41-4.04-6.28-4.04-10.79
			c0.04-8.64,5.97-14.96,15.69-14.96c3.36,0,5.98,0.73,7.23,1.33l-0.91,3.05c-1.55-0.69-3.48-1.25-6.4-1.25
			c-7.06,0-11.66,4.39-11.66,11.66C96.39,124.431,100.82,128.771,107.57,128.771z M124.57,136.151c2.69,0,5.05,1.01,6.81,2.94
			c1.54,1.65,2.36,4.06,2.36,6.83c0,5.66-3.81,9.55-9.33,9.55c-2.47,0-4.96-1.09-6.59-2.86c-1.51-1.59-2.4-4.17-2.4-6.8
			C115.42,140.151,119.23,136.151,124.57,136.151z M101.68,137.611c-3.23,0.08-4.24,0.89-4.71,3.72h-0.73l0.56-4.79h14.72v0.42
			l-12.08,17.05h7.19c3.03-0.11,3.98-0.86,4.81-3.86h0.64l-0.66,4.93H95.63v-0.42l12.23-17.05H101.68z M146.7,116.781
			c0,9.97-6.06,15.26-13.46,15.26c-7.65,0-13.03-5.93-13.03-14.71c0-9.2,5.72-15.22,13.46-15.22
			C141.58,102.111,146.7,108.181,146.7,116.781z M179.98,105.341c-1.93,0-3.39,0.17-4.38,0.38v22.88c0.94,0.17,2.32,0.22,3.78,0.22
			c8,0,12.34-4.48,12.34-12.3C191.76,109.681,187.9,105.341,179.98,105.341z M124.21,117.251c0,6.19,3.36,11.74,9.25,11.74
			c5.93,0,9.29-5.46,9.29-12.04c0-5.76-3.01-11.78-9.25-11.78C127.31,105.171,124.21,110.881,124.21,117.251z M133.5,105.171
			c-6.19,0-9.29,5.71-9.29,12.08c0,6.19,3.36,11.74,9.25,11.74c5.93,0,9.29-5.46,9.29-12.04
			C142.75,111.191,139.74,105.171,133.5,105.171z M179.98,105.341c-1.93,0-3.39,0.17-4.38,0.38v22.88c0.94,0.17,2.32,0.22,3.78,0.22
			c8,0,12.34-4.48,12.34-12.3C191.76,109.681,187.9,105.341,179.98,105.341z M179.98,105.341c-1.93,0-3.39,0.17-4.38,0.38v22.88
			c0.94,0.17,2.32,0.22,3.78,0.22c8,0,12.34-4.48,12.34-12.3C191.76,109.681,187.9,105.341,179.98,105.341z M133.5,105.171
			c-6.19,0-9.29,5.71-9.29,12.08c0,6.19,3.36,11.74,9.25,11.74c5.93,0,9.29-5.46,9.29-12.04
			C142.75,111.191,139.74,105.171,133.5,105.171z M133.5,105.171c-6.19,0-9.29,5.71-9.29,12.08c0,6.19,3.36,11.74,9.25,11.74
			c5.93,0,9.29-5.46,9.29-12.04C142.75,111.191,139.74,105.171,133.5,105.171z M179.98,105.341c-1.93,0-3.39,0.17-4.38,0.38v22.88
			c0.94,0.17,2.32,0.22,3.78,0.22c8,0,12.34-4.48,12.34-12.3C191.76,109.681,187.9,105.341,179.98,105.341z M179.98,105.341
			c-1.93,0-3.39,0.17-4.38,0.38v22.88c0.94,0.17,2.32,0.22,3.78,0.22c8,0,12.34-4.48,12.34-12.3
			C191.76,109.681,187.9,105.341,179.98,105.341z M133.5,105.171c-6.19,0-9.29,5.71-9.29,12.08c0,6.19,3.36,11.74,9.25,11.74
			c5.93,0,9.29-5.46,9.29-12.04C142.75,111.191,139.74,105.171,133.5,105.171z M133.5,105.171c-6.19,0-9.29,5.71-9.29,12.08
			c0,6.19,3.36,11.74,9.25,11.74c5.93,0,9.29-5.46,9.29-12.04C142.75,111.191,139.74,105.171,133.5,105.171z M179.98,105.341
			c-1.93,0-3.39,0.17-4.38,0.38v22.88c0.94,0.17,2.32,0.22,3.78,0.22c8,0,12.34-4.48,12.34-12.3
			C191.76,109.681,187.9,105.341,179.98,105.341z M179.98,105.341c-1.93,0-3.39,0.17-4.38,0.38v22.88c0.94,0.17,2.32,0.22,3.78,0.22
			c8,0,12.34-4.48,12.34-12.3C191.76,109.681,187.9,105.341,179.98,105.341z M133.5,105.171c-6.19,0-9.29,5.71-9.29,12.08
			c0,6.19,3.36,11.74,9.25,11.74c5.93,0,9.29-5.46,9.29-12.04C142.75,111.191,139.74,105.171,133.5,105.171z M133.5,105.171
			c-6.19,0-9.29,5.71-9.29,12.08c0,6.19,3.36,11.74,9.25,11.74c5.93,0,9.29-5.46,9.29-12.04
			C142.75,111.191,139.74,105.171,133.5,105.171z M179.98,105.341c-1.93,0-3.39,0.17-4.38,0.38v22.88c0.94,0.17,2.32,0.22,3.78,0.22
			c8,0,12.34-4.48,12.34-12.3C191.76,109.681,187.9,105.341,179.98,105.341z M179.98,105.341c-1.93,0-3.39,0.17-4.38,0.38v22.88
			c0.94,0.17,2.32,0.22,3.78,0.22c8,0,12.34-4.48,12.34-12.3C191.76,109.681,187.9,105.341,179.98,105.341z M133.5,105.171
			c-6.19,0-9.29,5.71-9.29,12.08c0,6.19,3.36,11.74,9.25,11.74c5.93,0,9.29-5.46,9.29-12.04
			C142.75,111.191,139.74,105.171,133.5,105.171z M133.5,105.171c-6.19,0-9.29,5.71-9.29,12.08c0,6.19,3.36,11.74,9.25,11.74
			c5.93,0,9.29-5.46,9.29-12.04C142.75,111.191,139.74,105.171,133.5,105.171z M179.98,105.341c-1.93,0-3.39,0.17-4.38,0.38v22.88
			c0.94,0.17,2.32,0.22,3.78,0.22c8,0,12.34-4.48,12.34-12.3C191.76,109.681,187.9,105.341,179.98,105.341z M179.98,105.341
			c-1.93,0-3.39,0.17-4.38,0.38v22.88c0.94,0.17,2.32,0.22,3.78,0.22c8,0,12.34-4.48,12.34-12.3
			C191.76,109.681,187.9,105.341,179.98,105.341z M133.5,105.171c-6.19,0-9.29,5.71-9.29,12.08c0,6.19,3.36,11.74,9.25,11.74
			c5.93,0,9.29-5.46,9.29-12.04C142.75,111.191,139.74,105.171,133.5,105.171z M133.5,105.171c-6.19,0-9.29,5.71-9.29,12.08
			c0,6.19,3.36,11.74,9.25,11.74c5.93,0,9.29-5.46,9.29-12.04C142.75,111.191,139.74,105.171,133.5,105.171z M179.98,105.341
			c-1.93,0-3.39,0.17-4.38,0.38v22.88c0.94,0.17,2.32,0.22,3.78,0.22c8,0,12.34-4.48,12.34-12.3
			C191.76,109.681,187.9,105.341,179.98,105.341z M179.98,105.341c-1.93,0-3.39,0.17-4.38,0.38v22.88c0.94,0.17,2.32,0.22,3.78,0.22
			c8,0,12.34-4.48,12.34-12.3C191.76,109.681,187.9,105.341,179.98,105.341z M133.5,105.171c-6.19,0-9.29,5.71-9.29,12.08
			c0,6.19,3.36,11.74,9.25,11.74c5.93,0,9.29-5.46,9.29-12.04C142.75,111.191,139.74,105.171,133.5,105.171z M133.5,105.171
			c-6.19,0-9.29,5.71-9.29,12.08c0,6.19,3.36,11.74,9.25,11.74c5.93,0,9.29-5.46,9.29-12.04
			C142.75,111.191,139.74,105.171,133.5,105.171z M179.98,105.341c-1.93,0-3.39,0.17-4.38,0.38v22.88c0.94,0.17,2.32,0.22,3.78,0.22
			c8,0,12.34-4.48,12.34-12.3C191.76,109.681,187.9,105.341,179.98,105.341z M179.98,105.341c-1.93,0-3.39,0.17-4.38,0.38v22.88
			c0.94,0.17,2.32,0.22,3.78,0.22c8,0,12.34-4.48,12.34-12.3C191.76,109.681,187.9,105.341,179.98,105.341z M133.5,105.171
			c-6.19,0-9.29,5.71-9.29,12.08c0,6.19,3.36,11.74,9.25,11.74c5.93,0,9.29-5.46,9.29-12.04
			C142.75,111.191,139.74,105.171,133.5,105.171z M133.5,105.171c-6.19,0-9.29,5.71-9.29,12.08c0,6.19,3.36,11.74,9.25,11.74
			c5.93,0,9.29-5.46,9.29-12.04C142.75,111.191,139.74,105.171,133.5,105.171z M179.98,105.341c-1.93,0-3.39,0.17-4.38,0.38v22.88
			c0.94,0.17,2.32,0.22,3.78,0.22c8,0,12.34-4.48,12.34-12.3C191.76,109.681,187.9,105.341,179.98,105.341z M179.98,105.341
			c-1.93,0-3.39,0.17-4.38,0.38v22.88c0.94,0.17,2.32,0.22,3.78,0.22c8,0,12.34-4.48,12.34-12.3
			C191.76,109.681,187.9,105.341,179.98,105.341z M133.5,105.171c-6.19,0-9.29,5.71-9.29,12.08c0,6.19,3.36,11.74,9.25,11.74
			c5.93,0,9.29-5.46,9.29-12.04C142.75,111.191,139.74,105.171,133.5,105.171z M133.5,105.171c-6.19,0-9.29,5.71-9.29,12.08
			c0,6.19,3.36,11.74,9.25,11.74c5.93,0,9.29-5.46,9.29-12.04C142.75,111.191,139.74,105.171,133.5,105.171z M179.98,105.341
			c-1.93,0-3.39,0.17-4.38,0.38v22.88c0.94,0.17,2.32,0.22,3.78,0.22c8,0,12.34-4.48,12.34-12.3
			C191.76,109.681,187.9,105.341,179.98,105.341z M179.98,105.341c-1.93,0-3.39,0.17-4.38,0.38v22.88c0.94,0.17,2.32,0.22,3.78,0.22
			c8,0,12.34-4.48,12.34-12.3C191.76,109.681,187.9,105.341,179.98,105.341z M133.5,105.171c-6.19,0-9.29,5.71-9.29,12.08
			c0,6.19,3.36,11.74,9.25,11.74c5.93,0,9.29-5.46,9.29-12.04C142.75,111.191,139.74,105.171,133.5,105.171z M133.5,105.171
			c-6.19,0-9.29,5.71-9.29,12.08c0,6.19,3.36,11.74,9.25,11.74c5.93,0,9.29-5.46,9.29-12.04
			C142.75,111.191,139.74,105.171,133.5,105.171z M179.98,105.341c-1.93,0-3.39,0.17-4.38,0.38v22.88c0.94,0.17,2.32,0.22,3.78,0.22
			c8,0,12.34-4.48,12.34-12.3C191.76,109.681,187.9,105.341,179.98,105.341z M179.98,105.341c-1.93,0-3.39,0.17-4.38,0.38v22.88
			c0.94,0.17,2.32,0.22,3.78,0.22c8,0,12.34-4.48,12.34-12.3C191.76,109.681,187.9,105.341,179.98,105.341z M133.5,105.171
			c-6.19,0-9.29,5.71-9.29,12.08c0,6.19,3.36,11.74,9.25,11.74c5.93,0,9.29-5.46,9.29-12.04
			C142.75,111.191,139.74,105.171,133.5,105.171z M133.5,105.171c-6.19,0-9.29,5.71-9.29,12.08c0,6.19,3.36,11.74,9.25,11.74
			c5.93,0,9.29-5.46,9.29-12.04C142.75,111.191,139.74,105.171,133.5,105.171z M179.98,105.341c-1.93,0-3.39,0.17-4.38,0.38v22.88
			c0.94,0.17,2.32,0.22,3.78,0.22c8,0,12.34-4.48,12.34-12.3C191.76,109.681,187.9,105.341,179.98,105.341z M179.98,105.341
			c-1.93,0-3.39,0.17-4.38,0.38v22.88c0.94,0.17,2.32,0.22,3.78,0.22c8,0,12.34-4.48,12.34-12.3
			C191.76,109.681,187.9,105.341,179.98,105.341z M133.5,105.171c-6.19,0-9.29,5.71-9.29,12.08c0,6.19,3.36,11.74,9.25,11.74
			c5.93,0,9.29-5.46,9.29-12.04C142.75,111.191,139.74,105.171,133.5,105.171z M133.5,105.171c-6.19,0-9.29,5.71-9.29,12.08
			c0,6.19,3.36,11.74,9.25,11.74c5.93,0,9.29-5.46,9.29-12.04C142.75,111.191,139.74,105.171,133.5,105.171z M179.98,105.341
			c-1.93,0-3.39,0.17-4.38,0.38v22.88c0.94,0.17,2.32,0.22,3.78,0.22c8,0,12.34-4.48,12.34-12.3
			C191.76,109.681,187.9,105.341,179.98,105.341z M179.98,105.341c-1.93,0-3.39,0.17-4.38,0.38v22.88c0.94,0.17,2.32,0.22,3.78,0.22
			c8,0,12.34-4.48,12.34-12.3C191.76,109.681,187.9,105.341,179.98,105.341z M133.5,105.171c-6.19,0-9.29,5.71-9.29,12.08
			c0,6.19,3.36,11.74,9.25,11.74c5.93,0,9.29-5.46,9.29-12.04C142.75,111.191,139.74,105.171,133.5,105.171z M133.5,105.171
			c-6.19,0-9.29,5.71-9.29,12.08c0,6.19,3.36,11.74,9.25,11.74c5.93,0,9.29-5.46,9.29-12.04
			C142.75,111.191,139.74,105.171,133.5,105.171z M179.98,105.341c-1.93,0-3.39,0.17-4.38,0.38v22.88c0.94,0.17,2.32,0.22,3.78,0.22
			c8,0,12.34-4.48,12.34-12.3C191.76,109.681,187.9,105.341,179.98,105.341z M179.98,105.341c-1.93,0-3.39,0.17-4.38,0.38v22.88
			c0.94,0.17,2.32,0.22,3.78,0.22c8,0,12.34-4.48,12.34-12.3C191.76,109.681,187.9,105.341,179.98,105.341z M133.5,105.171
			c-6.19,0-9.29,5.71-9.29,12.08c0,6.19,3.36,11.74,9.25,11.74c5.93,0,9.29-5.46,9.29-12.04
			C142.75,111.191,139.74,105.171,133.5,105.171z M133.5,105.171c-6.19,0-9.29,5.71-9.29,12.08c0,6.19,3.36,11.74,9.25,11.74
			c5.93,0,9.29-5.46,9.29-12.04C142.75,111.191,139.74,105.171,133.5,105.171z M179.98,105.341c-1.93,0-3.39,0.17-4.38,0.38v22.88
			c0.94,0.17,2.32,0.22,3.78,0.22c8,0,12.34-4.48,12.34-12.3C191.76,109.681,187.9,105.341,179.98,105.341z M179.98,105.341
			c-1.93,0-3.39,0.17-4.38,0.38v22.88c0.94,0.17,2.32,0.22,3.78,0.22c8,0,12.34-4.48,12.34-12.3
			C191.76,109.681,187.9,105.341,179.98,105.341z M133.5,105.171c-6.19,0-9.29,5.71-9.29,12.08c0,6.19,3.36,11.74,9.25,11.74
			c5.93,0,9.29-5.46,9.29-12.04C142.75,111.191,139.74,105.171,133.5,105.171z M133.5,105.171c-6.19,0-9.29,5.71-9.29,12.08
			c0,6.19,3.36,11.74,9.25,11.74c5.93,0,9.29-5.46,9.29-12.04C142.75,111.191,139.74,105.171,133.5,105.171z M179.98,105.341
			c-1.93,0-3.39,0.17-4.38,0.38v22.88c0.94,0.17,2.32,0.22,3.78,0.22c8,0,12.34-4.48,12.34-12.3
			C191.76,109.681,187.9,105.341,179.98,105.341z M179.98,105.341c-1.93,0-3.39,0.17-4.38,0.38v22.88c0.94,0.17,2.32,0.22,3.78,0.22
			c8,0,12.34-4.48,12.34-12.3C191.76,109.681,187.9,105.341,179.98,105.341z M133.5,105.171c-6.19,0-9.29,5.71-9.29,12.08
			c0,6.19,3.36,11.74,9.25,11.74c5.93,0,9.29-5.46,9.29-12.04C142.75,111.191,139.74,105.171,133.5,105.171z M133.5,105.171
			c-6.19,0-9.29,5.71-9.29,12.08c0,6.19,3.36,11.74,9.25,11.74c5.93,0,9.29-5.46,9.29-12.04
			C142.75,111.191,139.74,105.171,133.5,105.171z M133.5,105.171c-6.19,0-9.29,5.71-9.29,12.08c0,6.19,3.36,11.74,9.25,11.74
			c5.93,0,9.29-5.46,9.29-12.04C142.75,111.191,139.74,105.171,133.5,105.171z" />
        <path fill="#33D33F" d="M214.85,65.551c-12.77,1.74-28.54,3-46.03,3.6c-6.05,0.21-12.31,0.34-18.73,0.38
			c39.4,2.42,70.61,35.15,70.61,75.18c0,41.61-33.72,75.33-75.32,75.33c-41.62,0-75.34-33.72-75.34-75.33
			c0-40.03,31.21-72.76,70.63-75.18c-6.42-0.04-12.69-0.17-18.75-0.38c-17.49-0.6-33.26-1.86-46.03-3.6
			c-21.98,19.3-35.85,47.61-35.85,79.16c0,58.17,47.15,105.33,105.34,105.33c58.17,0,105.32-47.16,105.32-105.33
			C250.7,113.161,236.83,84.851,214.85,65.551z M242.11,155.081l-6.74-4.89l-6.75,4.89l2.58-7.92l-6.73-4.9h8.33l2.57-7.92
			l2.57,7.92h8.35l-6.75,4.9L242.11,155.081z M229.38,118.751l2.57-7.92l2.59,7.92h8.33l-6.74,4.9l2.56,7.92l-6.74-4.89l-6.73,4.89
			l2.57-7.92l-6.74-4.9H229.38z M56.38,118.751l2.57-7.92l2.59,7.92h8.33l-6.74,4.9l2.56,7.92l-6.74-4.89l-6.73,4.89l2.57-7.92
			l-6.74-4.9H56.38z M54.13,142.261l2.57-7.92l2.59,7.92h8.33l-1.32,0.96l-5.42,3.94l2.56,7.92l-6.74-4.89l-6.73,4.89l2.57-7.92
			l-6.74-4.9H54.13z M65.69,177.321l-6.74-4.89l-6.73,4.89l2.57-7.92l-6.74-4.9h8.33l2.57-7.92l2.59,7.92h7.23
			c0.05,0.22,0.11,0.45,0.18,0.67l-5.82,4.23L65.69,177.321z M238.69,177.321l-6.74-4.89l-6.75,4.89l2.59-7.92l-5.97-4.34
			c0.06-0.18,0.1-0.37,0.15-0.56h7.41l2.57-7.92l2.57,7.92h8.35l-6.75,4.9L238.69,177.321z M196.27,52.481
			c-15,1.27-32.38,1.99-50.9,1.99c-18.52,0-35.9-0.72-50.9-1.99c-4.65,2.57-9.09,5.48-13.28,8.72c18.06,2.17,40.69,3.35,64.18,3.35
			c23.49,0,46.12-1.18,64.18-3.35C205.36,57.961,200.92,55.041,196.27,52.481z M180.23,45.291c-0.89-0.31-1.79-0.61-2.69-0.9h-27.68
			c-1.49-0.01-2.99-0.01-4.49-0.01s-3,0-4.49,0.01h-27.67c-0.9,0.29-1.8,0.59-2.69,0.9c-2.46,0.85-4.87,1.8-7.23,2.84
			c13.09,0.87,27.42,1.34,42.08,1.34c14.67,0,29-0.47,42.09-1.34C185.1,47.091,182.68,46.141,180.23,45.291z" />
        <path fill="#FFDA00" d="M190.573,141.415c0,1.4-0.58,2.58-1.59,3.11c-1.3,0.73-2.28,0.9-4.97,0.95v-6.88
			c0-0.79,0.31-1.01,1.43-1.01C188.943,137.585,190.573,138.785,190.573,141.415z" />
        <path fill="#FFDA00" d="M130.542,145.895c0,1.66-0.34,3.59-0.92,5.04c-0.25,0.7-0.74,1.4-1.37,2.05
			c-0.99,0.98-2.25,1.48-3.74,1.48c-1.27,0-2.53-0.5-3.54-1.37c-1.43-1.29-2.35-4.12-2.35-7.22c0-2.86,0.77-5.58,1.95-6.89
			c1.1-1.21,2.47-1.82,4-1.82c1.3,0,2.59,0.5,3.59,1.4C129.682,139.935,130.542,142.565,130.542,145.895z" />
        <g>
			<path fill="#FFCE00"
                d="M67.622,142.265l-1.32,0.96c0-0.32,0.01-0.64,0.01-0.96H67.622z" />
		</g>
        <path fill="#FFCE00"
            d="M69.872,164.505l-0.92,0.67c-0.07-0.22-0.13-0.45-0.18-0.67H69.872z" />
        <path fill="#FFCE00"
            d="M221.972,164.505c-0.05,0.19-0.09,0.38-0.15,0.56l-0.77-0.56H221.972z" />
        <g>
			<path fill="#FFFFFF" d="M116.222,116.355v13.93c-1.68,0.6-4.99,1.59-8.91,1.59c-4.38,0-7.99-1.12-10.83-3.83
				c-2.5-2.41-4.04-6.28-4.04-10.79c0.04-8.64,5.97-14.96,15.69-14.96c3.36,0,5.98,0.73,7.23,1.33l-0.91,3.05
				c-1.55-0.69-3.48-1.25-6.4-1.25c-7.06,0-11.66,4.39-11.66,11.66c0,7.35,4.43,11.69,11.18,11.69c2.45,0,4.13-0.34,4.99-0.77v-8.64
				h-5.89v-3.01H116.222z" />
            <path fill="#FFFFFF" d="M133.67,102.111c-7.74,0-13.46,6.02-13.46,15.22c0,8.78,5.38,14.71,13.03,14.71
				c7.4,0,13.46-5.29,13.46-15.26C146.7,108.181,141.58,102.111,133.67,102.111z M133.46,128.991c-5.89,0-9.25-5.55-9.25-11.74
				c0-6.37,3.1-12.08,9.29-12.08c6.24,0,9.25,6.02,9.25,11.78C142.75,123.531,139.39,128.991,133.46,128.991z" />
            <polygon fill="#FFFFFF" points="167.693,128.435 167.693,131.575 151.563,131.575 151.563,102.595 155.302,102.595
				155.302,128.435 			" />
            <path fill="#FFFFFF" d="M191.55,105.981c-2.54-2.36-6.36-3.61-11.74-3.61c-2.97,0-5.67,0.26-7.95,0.6v28.51
				c1.89,0.22,4.12,0.35,6.79,0.35c5.63,0,10.1-1.47,12.81-4.18c2.71-2.66,4.17-6.53,4.17-11.26
				C195.63,111.701,194.13,108.351,191.55,105.981z M179.38,128.821c-1.46,0-2.84-0.05-3.78-0.22v-22.88
				c0.99-0.21,2.45-0.38,4.38-0.38c7.92,0,11.78,4.34,11.74,11.18C191.72,124.341,187.38,128.821,179.38,128.821z" />
		</g>
	</g>
    <path fill="#FFE600"
        d="M145.37,44.381c-1.5,0-3,0-4.49,0.01h8.98C148.37,44.381,146.87,44.381,145.37,44.381z" />
    <path fill="#FFE600" d="M177.54,44.391h-27.68c10.45,0.07,20.69,0.38,30.37,0.9C179.34,44.981,178.44,44.681,177.54,44.391z
		 M110.52,45.291c9.68-0.52,19.91-0.83,30.36-0.9h-27.67C112.31,44.681,111.41,44.981,110.52,45.291z M145.38,69.381
		c-1.58,0-3.15,0.05-4.71,0.15c1.56,0.01,3.12,0.02,4.7,0.02c1.58,0,3.16-0.01,4.72-0.02C148.53,69.431,146.96,69.381,145.38,69.381
		z" />
</g>
</svg>
