<?xml version="1.0" encoding="utf-8"?><!-- Generator: Adobe Illustrator 17.0.0, SVG Export Plug-In . SVG Version: 6.00 Build 0)  -->
<!DOCTYPE svg PUBLIC "-//W3C//DTD SVG 1.1//EN" "http://www.w3.org/Graphics/SVG/1.1/DTD/svg11.dtd">
<svg version="1.1" id="Layer_1" xmlns="http://www.w3.org/2000/svg"
    xmlns:xlink="http://www.w3.org/1999/xlink" x="0px" y="0px" width="95.333px" height="96.667px"
    viewBox="0 0 95.333 96.667" enable-background="new 0 0 95.333 96.667" xml:space="preserve">
<g>
	<path fill="#349B0A" d="M77.031,37.448l2.356,1.182v-2.356L77.031,37.448z M79.387,47.778v-7.339L55.736,52.214v7.069l13.409-6.617
		c0.241-0.117,0.394-0.175,0.452-0.175h0.182l0.182,0.175c0,0.066,0.029,0.124,0.088,0.182c0.066,0.066,0.095,0.124,0.095,0.182
		l-0.547,0.999L55.736,76.857v7.252l23.651-11.782v-7.062l-13.774,6.792h-0.095c-0.241,0-0.357-0.182-0.357-0.54V71.24
		L79.387,47.778z M75.944,38.083h-8.521L51.57,46.056V49.5l3.531,1.809L78.57,39.622v-0.182L75.944,38.083z M55.101,23.587
		l-3.531,1.722v3.531l16.218,8.069h7.791l2.991-1.452v-0.182L55.101,23.587z M34.535,38.083h-8.426l-2.714,1.357v0.182
		l23.462,11.687l3.538-1.809v-3.443L34.535,38.083z M46.857,23.587L23.395,35.274v0.182l2.991,1.452h7.791l16.218-8.069v-3.531
		L46.857,23.587z M22.578,36.273v2.356l2.356-1.182L22.578,36.273z" />
    <g>
		<g>
			<polygon fill="#349B0A" points="23.323,41.117 23.323,41.198 23.264,45.159 23.264,45.349 22.826,74.559 22.578,74.559 
				22.578,41.227 23.198,41.139 			" />
		</g>
        <g>
			<polygon fill="#349B0A" points="46.784,52.907 46.784,55.445 46.106,56.868 44.143,55.876 42.582,55.088 23.483,45.465 
				23.264,45.349 22.578,45.006 22.578,41.256 23.323,41.154 23.417,41.139 23.556,41.205 45.354,52.192 			" />
		</g>
        <g>
			<polygon fill="#349B0A"
                points="46.781,52.887 46.781,84.107 42.582,84.107 42.582,52.193 45.353,52.193 			" />
		</g>
	</g>
    <g>
		<polygon fill="#349B0A"
            points="52.75,84.107 49.213,84.107 50.672,54.592 51.291,54.592 		" />
	</g>
    <g>
		<path fill="#349B0A" stroke="#349B0A" stroke-width="0.5" stroke-miterlimit="10" d="M39.664,67.49V55.555l-14.591-6.602v25.402
			l14.591,8.864V71.087c0.117,0.022,0.241,0.036,0.365,0.036s0.248-0.015,0.365-0.036v12.774l-0.554,0.314l-15.32-9.302
			l-0.175-0.314V48.391l0.518-0.336l15.32,6.931l0.212,0.336V67.49c-0.117-0.022-0.241-0.036-0.365-0.036
			S39.781,67.468,39.664,67.49z" />
	</g>
    <g>
		<path fill="#36B218" d="M39.934,69.918c-0.186-0.043-0.335-0.163-0.409-0.32c-0.007-0.012-0.01-0.022-0.012-0.033
			c0.157-0.029,0.29-0.144,0.328-0.311c0.037-0.162-0.03-0.329-0.164-0.425c0.007-0.008,0.018-0.011,0.025-0.019
			c0.136-0.109,0.327-0.156,0.514-0.113c0.2,0.046,0.36,0.183,0.431,0.356c-0.162,0.028-0.295,0.148-0.333,0.31
			c-0.039,0.167,0.029,0.333,0.162,0.43C40.333,69.91,40.135,69.964,39.934,69.918z" />
        <path fill="#36B218" d="M39.745,69.233c-0.03,0.132-0.135,0.225-0.258,0.249c-0.004-0.007-0.012-0.015-0.012-0.027
			c-0.007-0.011-0.008-0.017-0.009-0.027c-0.009-0.027-0.018-0.057-0.021-0.085c-0.006-0.014-0.006-0.026-0.006-0.041
			c0.046-0.011,0.087-0.042,0.106-0.086c0.027-0.065,0.007-0.137-0.046-0.177c0.006-0.011,0.012-0.025,0.02-0.035
			c0.018-0.024,0.033-0.048,0.053-0.068c0.008-0.007,0.016-0.018,0.027-0.025c0.005-0.008,0.014-0.009,0.019-0.014
			C39.722,68.968,39.775,69.101,39.745,69.233z" />
        <path fill="#36B218" d="M40.392,69.382c-0.03,0.132,0.023,0.261,0.123,0.337c0.007-0.005,0.017-0.008,0.023-0.019
			c0.011-0.007,0.015-0.012,0.02-0.02c0.02-0.02,0.041-0.043,0.056-0.067c0.011-0.01,0.017-0.021,0.023-0.035
			c-0.036-0.03-0.06-0.075-0.058-0.124c0.004-0.07,0.054-0.126,0.118-0.139c0-0.012,0-0.028-0.003-0.041
			c-0.006-0.029-0.008-0.057-0.018-0.084c-0.004-0.01-0.007-0.023-0.014-0.034c-0.001-0.009-0.009-0.014-0.011-0.021
			C40.528,69.154,40.422,69.25,40.392,69.382z" />
        <path fill="#09D121"
            d="M39.678,68.829c-0.007,0.008-0.018,0.011-0.025,0.019c0.007-0.008,0.013-0.012,0.02-0.021L39.678,68.829z" />
        <path fill="#09D121" d="M39.507,69.569c-0.007-0.012-0.009-0.027-0.011-0.038c0.001,0.015,0.009,0.027,0.017,0.034L39.507,69.569z
			" />
	</g>
    <g>
		<path fill="#36B218" d="M50.992,53.095c-0.275,0-0.522-0.12-0.677-0.317c-0.014-0.014-0.021-0.028-0.028-0.042
			c0.212-0.092,0.36-0.296,0.36-0.543c0-0.24-0.148-0.451-0.367-0.543c0.007-0.014,0.021-0.021,0.028-0.035
			c0.155-0.197,0.409-0.324,0.684-0.324c0.296,0,0.564,0.141,0.719,0.36c-0.219,0.092-0.367,0.303-0.367,0.543
			c0,0.247,0.148,0.458,0.367,0.55C51.549,52.954,51.288,53.095,50.992,53.095z" />
        <path fill="#36B218" d="M50.505,52.194c0,0.195-0.117,0.359-0.281,0.432c-0.009-0.009-0.022-0.017-0.026-0.035
			c-0.013-0.013-0.017-0.022-0.022-0.035c-0.022-0.035-0.043-0.074-0.056-0.112c-0.013-0.017-0.017-0.035-0.022-0.056
			c0.061-0.03,0.108-0.086,0.121-0.156c0.017-0.099-0.035-0.195-0.121-0.234c0.004-0.017,0.009-0.039,0.017-0.056
			c0.017-0.039,0.03-0.078,0.052-0.112c0.009-0.013,0.017-0.03,0.03-0.043c0.004-0.013,0.017-0.017,0.022-0.026
			C50.388,51.831,50.505,52,50.505,52.194z" />
        <path fill="#36B218" d="M51.461,52.194c0,0.195,0.117,0.359,0.281,0.432c0.009-0.009,0.022-0.017,0.026-0.035
			c0.013-0.013,0.017-0.022,0.022-0.035c0.022-0.035,0.043-0.074,0.056-0.112c0.013-0.017,0.017-0.035,0.022-0.056
			c-0.061-0.03-0.108-0.086-0.121-0.156c-0.017-0.099,0.035-0.195,0.121-0.234c-0.004-0.017-0.009-0.039-0.017-0.056
			c-0.017-0.039-0.03-0.078-0.052-0.112c-0.009-0.013-0.017-0.03-0.03-0.043c-0.004-0.013-0.017-0.017-0.022-0.026
			C51.578,51.831,51.461,52,51.461,52.194z" />
        <path fill="#09D121"
            d="M50.28,51.649c-0.007,0.014-0.021,0.021-0.028,0.035c0.007-0.014,0.014-0.021,0.021-0.035H50.28z" />
        <path fill="#09D121"
            d="M50.28,52.743c-0.014-0.014-0.021-0.035-0.028-0.049c0.007,0.021,0.021,0.035,0.035,0.042L50.28,52.743z" />
	</g>
    <g>
		<path fill="#349B0A" d="M38.039,68.757c-0.052,0.109-0.16,0.184-0.28,0.21c0.004-0.014,0.001-0.037,0.007-0.059
			c-0.01-0.085,0.006-0.18,0.03-0.273c0.029-0.114,0.07-0.211,0.128-0.311C38.061,68.422,38.112,68.6,38.039,68.757z" />
        <path fill="#349B0A" d="M36.975,68.338c-0.065,0.108-0.156,0.204-0.259,0.264l-0.583-0.24l-11.489-4.809l-0.065-0.036
			c-0.207-0.072-0.285-0.288-0.207-0.48c0.078-0.168,0.272-0.252,0.454-0.204c0.026,0,0.052,0.012,0.065,0.024l11.605,4.845
			l0.584,0.24C37.079,68.075,37.053,68.206,36.975,68.338z" />
        <path fill="#349B0A" d="M37.922,68.326c-0.052,0.096-0.091,0.192-0.13,0.312c-0.026,0.096-0.039,0.18-0.026,0.276
			c0,0.012,0,0.036-0.013,0.048c-0.052,0.012-0.117,0.012-0.169,0c-0.013,0-0.039-0.012-0.065-0.024l-0.545-0.228
			c0.091-0.06,0.169-0.156,0.233-0.264c0.065-0.12,0.104-0.264,0.117-0.396l0.519,0.216C37.87,68.278,37.896,68.29,37.922,68.326z" />
	</g>
</g>
</svg>
