<?xml version="1.0" encoding="utf-8"?><!-- Generator: Adobe Illustrator 17.0.0, SVG Export Plug-In . SVG Version: 6.00 Build 0)  -->
<!DOCTYPE svg PUBLIC "-//W3C//DTD SVG 1.1//EN" "http://www.w3.org/Graphics/SVG/1.1/DTD/svg11.dtd">
<svg version="1.1" id="Layer_1" xmlns="http://www.w3.org/2000/svg"
	xmlns:xlink="http://www.w3.org/1999/xlink" x="0px" y="0px" width="300px" height="300px"
	viewBox="0 0 300 300" enable-background="new 0 0 300 300" xml:space="preserve">
<g>
	<path fill="#BCBCBC" d="M129.959,143.853c-1-0.9-2.29-1.4-3.58-1.4c-1.54,0-2.91,0.61-4,1.82c-1.18,1.31-1.96,4.03-1.96,6.89
		c0,3.1,0.92,5.93,2.35,7.22c1.01,0.87,2.27,1.37,3.55,1.37c1.49,0,2.75-0.5,3.73-1.48c0.64-0.65,1.12-1.35,1.37-2.05
		c0.59-1.45,0.92-3.38,0.92-5.04C132.339,147.853,131.479,145.223,129.959,143.853z M129.959,143.853c-1-0.9-2.29-1.4-3.58-1.4
		c-1.54,0-2.91,0.61-4,1.82c-1.18,1.31-1.96,4.03-1.96,6.89c0,3.1,0.92,5.93,2.35,7.22c1.01,0.87,2.27,1.37,3.55,1.37
		c1.49,0,2.75-0.5,3.73-1.48c0.64-0.65,1.12-1.35,1.37-2.05c0.59-1.45,0.92-3.38,0.92-5.04
		C132.339,147.853,131.479,145.223,129.959,143.853z M129.959,143.853c-1-0.9-2.29-1.4-3.58-1.4c-1.54,0-2.91,0.61-4,1.82
		c-1.18,1.31-1.96,4.03-1.96,6.89c0,3.1,0.92,5.93,2.35,7.22c1.01,0.87,2.27,1.37,3.55,1.37c1.49,0,2.75-0.5,3.73-1.48
		c0.64-0.65,1.12-1.35,1.37-2.05c0.59-1.45,0.92-3.38,0.92-5.04C132.339,147.853,131.479,145.223,129.959,143.853z M187.249,142.873
		c-1.12,0-1.43,0.22-1.43,1.01v6.88c2.69-0.05,3.67-0.22,4.96-0.95c1.01-0.53,1.6-1.71,1.6-3.11
		C192.379,144.073,190.749,142.873,187.249,142.873z M187.249,142.873c-1.12,0-1.43,0.22-1.43,1.01v6.88
		c2.69-0.05,3.67-0.22,4.96-0.95c1.01-0.53,1.6-1.71,1.6-3.11C192.379,144.073,190.749,142.873,187.249,142.873z M129.959,143.853
		c-1-0.9-2.29-1.4-3.58-1.4c-1.54,0-2.91,0.61-4,1.82c-1.18,1.31-1.96,4.03-1.96,6.89c0,3.1,0.92,5.93,2.35,7.22
		c1.01,0.87,2.27,1.37,3.55,1.37c1.49,0,2.75-0.5,3.73-1.48c0.64-0.65,1.12-1.35,1.37-2.05c0.59-1.45,0.92-3.38,0.92-5.04
		C132.339,147.853,131.479,145.223,129.959,143.853z M129.959,143.853c-1-0.9-2.29-1.4-3.58-1.4c-1.54,0-2.91,0.61-4,1.82
		c-1.18,1.31-1.96,4.03-1.96,6.89c0,3.1,0.92,5.93,2.35,7.22c1.01,0.87,2.27,1.37,3.55,1.37c1.49,0,2.75-0.5,3.73-1.48
		c0.64-0.65,1.12-1.35,1.37-2.05c0.59-1.45,0.92-3.38,0.92-5.04C132.339,147.853,131.479,145.223,129.959,143.853z M187.249,142.873
		c-1.12,0-1.43,0.22-1.43,1.01v6.88c2.69-0.05,3.67-0.22,4.96-0.95c1.01-0.53,1.6-1.71,1.6-3.11
		C192.379,144.073,190.749,142.873,187.249,142.873z M187.249,142.873c-1.12,0-1.43,0.22-1.43,1.01v6.88
		c2.69-0.05,3.67-0.22,4.96-0.95c1.01-0.53,1.6-1.71,1.6-3.11C192.379,144.073,190.749,142.873,187.249,142.873z M129.959,143.853
		c-1-0.9-2.29-1.4-3.58-1.4c-1.54,0-2.91,0.61-4,1.82c-1.18,1.31-1.96,4.03-1.96,6.89c0,3.1,0.92,5.93,2.35,7.22
		c1.01,0.87,2.27,1.37,3.55,1.37c1.49,0,2.75-0.5,3.73-1.48c0.64-0.65,1.12-1.35,1.37-2.05c0.59-1.45,0.92-3.38,0.92-5.04
		C132.339,147.853,131.479,145.223,129.959,143.853z M129.959,143.853c-1-0.9-2.29-1.4-3.58-1.4c-1.54,0-2.91,0.61-4,1.82
		c-1.18,1.31-1.96,4.03-1.96,6.89c0,3.1,0.92,5.93,2.35,7.22c1.01,0.87,2.27,1.37,3.55,1.37c1.49,0,2.75-0.5,3.73-1.48
		c0.64-0.65,1.12-1.35,1.37-2.05c0.59-1.45,0.92-3.38,0.92-5.04C132.339,147.853,131.479,145.223,129.959,143.853z M187.249,142.873
		c-1.12,0-1.43,0.22-1.43,1.01v6.88c2.69-0.05,3.67-0.22,4.96-0.95c1.01-0.53,1.6-1.71,1.6-3.11
		C192.379,144.073,190.749,142.873,187.249,142.873z M187.249,142.873c-1.12,0-1.43,0.22-1.43,1.01v6.88
		c2.69-0.05,3.67-0.22,4.96-0.95c1.01-0.53,1.6-1.71,1.6-3.11C192.379,144.073,190.749,142.873,187.249,142.873z M129.959,143.853
		c-1-0.9-2.29-1.4-3.58-1.4c-1.54,0-2.91,0.61-4,1.82c-1.18,1.31-1.96,4.03-1.96,6.89c0,3.1,0.92,5.93,2.35,7.22
		c1.01,0.87,2.27,1.37,3.55,1.37c1.49,0,2.75-0.5,3.73-1.48c0.64-0.65,1.12-1.35,1.37-2.05c0.59-1.45,0.92-3.38,0.92-5.04
		C132.339,147.853,131.479,145.223,129.959,143.853z M129.959,143.853c-1-0.9-2.29-1.4-3.58-1.4c-1.54,0-2.91,0.61-4,1.82
		c-1.18,1.31-1.96,4.03-1.96,6.89c0,3.1,0.92,5.93,2.35,7.22c1.01,0.87,2.27,1.37,3.55,1.37c1.49,0,2.75-0.5,3.73-1.48
		c0.64-0.65,1.12-1.35,1.37-2.05c0.59-1.45,0.92-3.38,0.92-5.04C132.339,147.853,131.479,145.223,129.959,143.853z M187.249,142.873
		c-1.12,0-1.43,0.22-1.43,1.01v6.88c2.69-0.05,3.67-0.22,4.96-0.95c1.01-0.53,1.6-1.71,1.6-3.11
		C192.379,144.073,190.749,142.873,187.249,142.873z M187.249,142.873c-1.12,0-1.43,0.22-1.43,1.01v6.88
		c2.69-0.05,3.67-0.22,4.96-0.95c1.01-0.53,1.6-1.71,1.6-3.11C192.379,144.073,190.749,142.873,187.249,142.873z M129.959,143.853
		c-1-0.9-2.29-1.4-3.58-1.4c-1.54,0-2.91,0.61-4,1.82c-1.18,1.31-1.96,4.03-1.96,6.89c0,3.1,0.92,5.93,2.35,7.22
		c1.01,0.87,2.27,1.37,3.55,1.37c1.49,0,2.75-0.5,3.73-1.48c0.64-0.65,1.12-1.35,1.37-2.05c0.59-1.45,0.92-3.38,0.92-5.04
		C132.339,147.853,131.479,145.223,129.959,143.853z M129.959,143.853c-1-0.9-2.29-1.4-3.58-1.4c-1.54,0-2.91,0.61-4,1.82
		c-1.18,1.31-1.96,4.03-1.96,6.89c0,3.1,0.92,5.93,2.35,7.22c1.01,0.87,2.27,1.37,3.55,1.37c1.49,0,2.75-0.5,3.73-1.48
		c0.64-0.65,1.12-1.35,1.37-2.05c0.59-1.45,0.92-3.38,0.92-5.04C132.339,147.853,131.479,145.223,129.959,143.853z M187.249,142.873
		c-1.12,0-1.43,0.22-1.43,1.01v6.88c2.69-0.05,3.67-0.22,4.96-0.95c1.01-0.53,1.6-1.71,1.6-3.11
		C192.379,144.073,190.749,142.873,187.249,142.873z M187.249,142.873c-1.12,0-1.43,0.22-1.43,1.01v6.88
		c2.69-0.05,3.67-0.22,4.96-0.95c1.01-0.53,1.6-1.71,1.6-3.11C192.379,144.073,190.749,142.873,187.249,142.873z M129.959,143.853
		c-1-0.9-2.29-1.4-3.58-1.4c-1.54,0-2.91,0.61-4,1.82c-1.18,1.31-1.96,4.03-1.96,6.89c0,3.1,0.92,5.93,2.35,7.22
		c1.01,0.87,2.27,1.37,3.55,1.37c1.49,0,2.75-0.5,3.73-1.48c0.64-0.65,1.12-1.35,1.37-2.05c0.59-1.45,0.92-3.38,0.92-5.04
		C132.339,147.853,131.479,145.223,129.959,143.853z M129.959,143.853c-1-0.9-2.29-1.4-3.58-1.4c-1.54,0-2.91,0.61-4,1.82
		c-1.18,1.31-1.96,4.03-1.96,6.89c0,3.1,0.92,5.93,2.35,7.22c1.01,0.87,2.27,1.37,3.55,1.37c1.49,0,2.75-0.5,3.73-1.48
		c0.64-0.65,1.12-1.35,1.37-2.05c0.59-1.45,0.92-3.38,0.92-5.04C132.339,147.853,131.479,145.223,129.959,143.853z M187.249,142.873
		c-1.12,0-1.43,0.22-1.43,1.01v6.88c2.69-0.05,3.67-0.22,4.96-0.95c1.01-0.53,1.6-1.71,1.6-3.11
		C192.379,144.073,190.749,142.873,187.249,142.873z M187.249,142.873c-1.12,0-1.43,0.22-1.43,1.01v6.88
		c2.69-0.05,3.67-0.22,4.96-0.95c1.01-0.53,1.6-1.71,1.6-3.11C192.379,144.073,190.749,142.873,187.249,142.873z M129.959,143.853
		c-1-0.9-2.29-1.4-3.58-1.4c-1.54,0-2.91,0.61-4,1.82c-1.18,1.31-1.96,4.03-1.96,6.89c0,3.1,0.92,5.93,2.35,7.22
		c1.01,0.87,2.27,1.37,3.55,1.37c1.49,0,2.75-0.5,3.73-1.48c0.64-0.65,1.12-1.35,1.37-2.05c0.59-1.45,0.92-3.38,0.92-5.04
		C132.339,147.853,131.479,145.223,129.959,143.853z M129.959,143.853c-1-0.9-2.29-1.4-3.58-1.4c-1.54,0-2.91,0.61-4,1.82
		c-1.18,1.31-1.96,4.03-1.96,6.89c0,3.1,0.92,5.93,2.35,7.22c1.01,0.87,2.27,1.37,3.55,1.37c1.49,0,2.75-0.5,3.73-1.48
		c0.64-0.65,1.12-1.35,1.37-2.05c0.59-1.45,0.92-3.38,0.92-5.04C132.339,147.853,131.479,145.223,129.959,143.853z M187.249,142.873
		c-1.12,0-1.43,0.22-1.43,1.01v6.88c2.69-0.05,3.67-0.22,4.96-0.95c1.01-0.53,1.6-1.71,1.6-3.11
		C192.379,144.073,190.749,142.873,187.249,142.873z M187.249,142.873c-1.12,0-1.43,0.22-1.43,1.01v6.88
		c2.69-0.05,3.67-0.22,4.96-0.95c1.01-0.53,1.6-1.71,1.6-3.11C192.379,144.073,190.749,142.873,187.249,142.873z M129.959,143.853
		c-1-0.9-2.29-1.4-3.58-1.4c-1.54,0-2.91,0.61-4,1.82c-1.18,1.31-1.96,4.03-1.96,6.89c0,3.1,0.92,5.93,2.35,7.22
		c1.01,0.87,2.27,1.37,3.55,1.37c1.49,0,2.75-0.5,3.73-1.48c0.64-0.65,1.12-1.35,1.37-2.05c0.59-1.45,0.92-3.38,0.92-5.04
		C132.339,147.853,131.479,145.223,129.959,143.853z M129.959,143.853c-1-0.9-2.29-1.4-3.58-1.4c-1.54,0-2.91,0.61-4,1.82
		c-1.18,1.31-1.96,4.03-1.96,6.89c0,3.1,0.92,5.93,2.35,7.22c1.01,0.87,2.27,1.37,3.55,1.37c1.49,0,2.75-0.5,3.73-1.48
		c0.64-0.65,1.12-1.35,1.37-2.05c0.59-1.45,0.92-3.38,0.92-5.04C132.339,147.853,131.479,145.223,129.959,143.853z M187.249,142.873
		c-1.12,0-1.43,0.22-1.43,1.01v6.88c2.69-0.05,3.67-0.22,4.96-0.95c1.01-0.53,1.6-1.71,1.6-3.11
		C192.379,144.073,190.749,142.873,187.249,142.873z M187.249,142.873c-1.12,0-1.43,0.22-1.43,1.01v6.88
		c2.69-0.05,3.67-0.22,4.96-0.95c1.01-0.53,1.6-1.71,1.6-3.11C192.379,144.073,190.749,142.873,187.249,142.873z M129.959,143.853
		c-1-0.9-2.29-1.4-3.58-1.4c-1.54,0-2.91,0.61-4,1.82c-1.18,1.31-1.96,4.03-1.96,6.89c0,3.1,0.92,5.93,2.35,7.22
		c1.01,0.87,2.27,1.37,3.55,1.37c1.49,0,2.75-0.5,3.73-1.48c0.64-0.65,1.12-1.35,1.37-2.05c0.59-1.45,0.92-3.38,0.92-5.04
		C132.339,147.853,131.479,145.223,129.959,143.853z M147.179,70.903c-42.87,0-77.77,34.09-79.06,76.65
		c-0.01,0.32-0.02,0.64-0.02,0.96c-0.02,0.49-0.02,0.99-0.02,1.49c0,43.68,35.41,79.09,79.1,79.09c43.68,0,79.09-35.41,79.09-79.09
		C226.269,106.313,190.859,70.903,147.179,70.903z M145.499,159.843v0.53h-6.58v-0.53c2.3-0.14,2.66-0.62,2.72-3.59v-12.35
		c-1.12-1.31-1.51-1.54-2.72-1.54v-0.53h4.79l10.78,13.55v-9.43c-0.08-2.97-0.45-3.45-2.69-3.59v-0.53h6.58v0.53
		c-2.21,0.2-2.57,0.68-2.66,3.59v14.73h-0.47l-12.38-15.4v10.97C142.929,159.143,143.349,159.723,145.499,159.843z M135.539,151.213
		c0,5.66-3.81,9.55-9.33,9.55c-2.46,0-4.95-1.09-6.58-2.86c-1.51-1.59-2.41-4.17-2.41-6.8c0-5.66,3.81-9.66,9.16-9.66
		c2.69,0,5.04,1.01,6.8,2.94C134.719,146.033,135.539,148.443,135.539,151.213z M97.429,159.953l12.23-17.05h-6.18
		c-3.22,0.08-4.23,0.89-4.71,3.72h-0.73l0.56-4.79h14.73v0.42l-12.09,17.05h7.19c3.03-0.11,3.98-0.86,4.82-3.86h0.64l-0.67,4.93
		h-15.79V159.953z M161.239,142.363v-0.53h14.87l0.08,4.01h-0.7c-0.45-2.5-1.01-2.89-4.25-2.94h-3.78c-0.79,0-0.9,0.11-0.93,0.95
		v6.21h4.31c2.36-0.05,2.75-0.39,3.08-2.66h0.65v6.5h-0.65c-0.36-2.3-0.72-2.63-3.08-2.69h-4.31v6.92c0,1.09,0.03,1.12,2.94,1.2
		h0.76c4-0.03,5.26-0.73,6.61-3.69h0.78l-1.26,4.73h-15.12v-0.53c2.02-0.12,2.38-0.51,2.44-2.52v-12.44
		C163.619,142.873,163.279,142.503,161.239,142.363z M198.559,160.373h-4.51l-6.66-8.63l-1.57,0.06v5.52
		c0.03,2.04,0.37,2.38,2.52,2.52v0.53h-7.75v-0.53c2.1-0.17,2.35-0.45,2.38-2.83v-12.13c-0.03-2.04-0.31-2.29-2.38-2.52v-0.53h7.73
		c2.6,0,4.95,0.73,6.02,1.88c0.72,0.81,1.09,1.85,1.09,3.05c0,2.58-1.52,3.98-5.07,4.68l5.77,7.08c0.81,0.95,1.37,1.23,2.43,1.32
		V160.373z M192.379,146.703c0-2.63-1.63-3.83-5.13-3.83c-1.12,0-1.43,0.22-1.43,1.01v6.88c2.69-0.05,3.67-0.22,4.96-0.95
		C191.789,149.283,192.379,148.103,192.379,146.703z M122.379,144.273c-1.18,1.31-1.96,4.03-1.96,6.89c0,3.1,0.92,5.93,2.35,7.22
		c1.01,0.87,2.27,1.37,3.55,1.37c1.49,0,2.75-0.5,3.73-1.48c0.64-0.65,1.12-1.35,1.37-2.05c0.59-1.45,0.92-3.38,0.92-5.04
		c0-3.33-0.86-5.96-2.38-7.33c-1-0.9-2.29-1.4-3.58-1.4C124.839,142.453,123.469,143.063,122.379,144.273z M129.959,143.853
		c-1-0.9-2.29-1.4-3.58-1.4c-1.54,0-2.91,0.61-4,1.82c-1.18,1.31-1.96,4.03-1.96,6.89c0,3.1,0.92,5.93,2.35,7.22
		c1.01,0.87,2.27,1.37,3.55,1.37c1.49,0,2.75-0.5,3.73-1.48c0.64-0.65,1.12-1.35,1.37-2.05c0.59-1.45,0.92-3.38,0.92-5.04
		C132.339,147.853,131.479,145.223,129.959,143.853z M187.249,142.873c-1.12,0-1.43,0.22-1.43,1.01v6.88
		c2.69-0.05,3.67-0.22,4.96-0.95c1.01-0.53,1.6-1.71,1.6-3.11C192.379,144.073,190.749,142.873,187.249,142.873z M187.249,142.873
		c-1.12,0-1.43,0.22-1.43,1.01v6.88c2.69-0.05,3.67-0.22,4.96-0.95c1.01-0.53,1.6-1.71,1.6-3.11
		C192.379,144.073,190.749,142.873,187.249,142.873z M129.959,143.853c-1-0.9-2.29-1.4-3.58-1.4c-1.54,0-2.91,0.61-4,1.82
		c-1.18,1.31-1.96,4.03-1.96,6.89c0,3.1,0.92,5.93,2.35,7.22c1.01,0.87,2.27,1.37,3.55,1.37c1.49,0,2.75-0.5,3.73-1.48
		c0.64-0.65,1.12-1.35,1.37-2.05c0.59-1.45,0.92-3.38,0.92-5.04C132.339,147.853,131.479,145.223,129.959,143.853z M129.959,143.853
		c-1-0.9-2.29-1.4-3.58-1.4c-1.54,0-2.91,0.61-4,1.82c-1.18,1.31-1.96,4.03-1.96,6.89c0,3.1,0.92,5.93,2.35,7.22
		c1.01,0.87,2.27,1.37,3.55,1.37c1.49,0,2.75-0.5,3.73-1.48c0.64-0.65,1.12-1.35,1.37-2.05c0.59-1.45,0.92-3.38,0.92-5.04
		C132.339,147.853,131.479,145.223,129.959,143.853z M187.249,142.873c-1.12,0-1.43,0.22-1.43,1.01v6.88
		c2.69-0.05,3.67-0.22,4.96-0.95c1.01-0.53,1.6-1.71,1.6-3.11C192.379,144.073,190.749,142.873,187.249,142.873z M187.249,142.873
		c-1.12,0-1.43,0.22-1.43,1.01v6.88c2.69-0.05,3.67-0.22,4.96-0.95c1.01-0.53,1.6-1.71,1.6-3.11
		C192.379,144.073,190.749,142.873,187.249,142.873z M129.959,143.853c-1-0.9-2.29-1.4-3.58-1.4c-1.54,0-2.91,0.61-4,1.82
		c-1.18,1.31-1.96,4.03-1.96,6.89c0,3.1,0.92,5.93,2.35,7.22c1.01,0.87,2.27,1.37,3.55,1.37c1.49,0,2.75-0.5,3.73-1.48
		c0.64-0.65,1.12-1.35,1.37-2.05c0.59-1.45,0.92-3.38,0.92-5.04C132.339,147.853,131.479,145.223,129.959,143.853z M129.959,143.853
		c-1-0.9-2.29-1.4-3.58-1.4c-1.54,0-2.91,0.61-4,1.82c-1.18,1.31-1.96,4.03-1.96,6.89c0,3.1,0.92,5.93,2.35,7.22
		c1.01,0.87,2.27,1.37,3.55,1.37c1.49,0,2.75-0.5,3.73-1.48c0.64-0.65,1.12-1.35,1.37-2.05c0.59-1.45,0.92-3.38,0.92-5.04
		C132.339,147.853,131.479,145.223,129.959,143.853z M187.249,142.873c-1.12,0-1.43,0.22-1.43,1.01v6.88
		c2.69-0.05,3.67-0.22,4.96-0.95c1.01-0.53,1.6-1.71,1.6-3.11C192.379,144.073,190.749,142.873,187.249,142.873z M187.249,142.873
		c-1.12,0-1.43,0.22-1.43,1.01v6.88c2.69-0.05,3.67-0.22,4.96-0.95c1.01-0.53,1.6-1.71,1.6-3.11
		C192.379,144.073,190.749,142.873,187.249,142.873z M129.959,143.853c-1-0.9-2.29-1.4-3.58-1.4c-1.54,0-2.91,0.61-4,1.82
		c-1.18,1.31-1.96,4.03-1.96,6.89c0,3.1,0.92,5.93,2.35,7.22c1.01,0.87,2.27,1.37,3.55,1.37c1.49,0,2.75-0.5,3.73-1.48
		c0.64-0.65,1.12-1.35,1.37-2.05c0.59-1.45,0.92-3.38,0.92-5.04C132.339,147.853,131.479,145.223,129.959,143.853z M129.959,143.853
		c-1-0.9-2.29-1.4-3.58-1.4c-1.54,0-2.91,0.61-4,1.82c-1.18,1.31-1.96,4.03-1.96,6.89c0,3.1,0.92,5.93,2.35,7.22
		c1.01,0.87,2.27,1.37,3.55,1.37c1.49,0,2.75-0.5,3.73-1.48c0.64-0.65,1.12-1.35,1.37-2.05c0.59-1.45,0.92-3.38,0.92-5.04
		C132.339,147.853,131.479,145.223,129.959,143.853z M187.249,142.873c-1.12,0-1.43,0.22-1.43,1.01v6.88
		c2.69-0.05,3.67-0.22,4.96-0.95c1.01-0.53,1.6-1.71,1.6-3.11C192.379,144.073,190.749,142.873,187.249,142.873z M187.249,142.873
		c-1.12,0-1.43,0.22-1.43,1.01v6.88c2.69-0.05,3.67-0.22,4.96-0.95c1.01-0.53,1.6-1.71,1.6-3.11
		C192.379,144.073,190.749,142.873,187.249,142.873z M129.959,143.853c-1-0.9-2.29-1.4-3.58-1.4c-1.54,0-2.91,0.61-4,1.82
		c-1.18,1.31-1.96,4.03-1.96,6.89c0,3.1,0.92,5.93,2.35,7.22c1.01,0.87,2.27,1.37,3.55,1.37c1.49,0,2.75-0.5,3.73-1.48
		c0.64-0.65,1.12-1.35,1.37-2.05c0.59-1.45,0.92-3.38,0.92-5.04C132.339,147.853,131.479,145.223,129.959,143.853z M129.959,143.853
		c-1-0.9-2.29-1.4-3.58-1.4c-1.54,0-2.91,0.61-4,1.82c-1.18,1.31-1.96,4.03-1.96,6.89c0,3.1,0.92,5.93,2.35,7.22
		c1.01,0.87,2.27,1.37,3.55,1.37c1.49,0,2.75-0.5,3.73-1.48c0.64-0.65,1.12-1.35,1.37-2.05c0.59-1.45,0.92-3.38,0.92-5.04
		C132.339,147.853,131.479,145.223,129.959,143.853z M187.249,142.873c-1.12,0-1.43,0.22-1.43,1.01v6.88
		c2.69-0.05,3.67-0.22,4.96-0.95c1.01-0.53,1.6-1.71,1.6-3.11C192.379,144.073,190.749,142.873,187.249,142.873z M187.249,142.873
		c-1.12,0-1.43,0.22-1.43,1.01v6.88c2.69-0.05,3.67-0.22,4.96-0.95c1.01-0.53,1.6-1.71,1.6-3.11
		C192.379,144.073,190.749,142.873,187.249,142.873z M129.959,143.853c-1-0.9-2.29-1.4-3.58-1.4c-1.54,0-2.91,0.61-4,1.82
		c-1.18,1.31-1.96,4.03-1.96,6.89c0,3.1,0.92,5.93,2.35,7.22c1.01,0.87,2.27,1.37,3.55,1.37c1.49,0,2.75-0.5,3.73-1.48
		c0.64-0.65,1.12-1.35,1.37-2.05c0.59-1.45,0.92-3.38,0.92-5.04C132.339,147.853,131.479,145.223,129.959,143.853z M129.959,143.853
		c-1-0.9-2.29-1.4-3.58-1.4c-1.54,0-2.91,0.61-4,1.82c-1.18,1.31-1.96,4.03-1.96,6.89c0,3.1,0.92,5.93,2.35,7.22
		c1.01,0.87,2.27,1.37,3.55,1.37c1.49,0,2.75-0.5,3.73-1.48c0.64-0.65,1.12-1.35,1.37-2.05c0.59-1.45,0.92-3.38,0.92-5.04
		C132.339,147.853,131.479,145.223,129.959,143.853z M187.249,142.873c-1.12,0-1.43,0.22-1.43,1.01v6.88
		c2.69-0.05,3.67-0.22,4.96-0.95c1.01-0.53,1.6-1.71,1.6-3.11C192.379,144.073,190.749,142.873,187.249,142.873z M187.249,142.873
		c-1.12,0-1.43,0.22-1.43,1.01v6.88c2.69-0.05,3.67-0.22,4.96-0.95c1.01-0.53,1.6-1.71,1.6-3.11
		C192.379,144.073,190.749,142.873,187.249,142.873z M129.959,143.853c-1-0.9-2.29-1.4-3.58-1.4c-1.54,0-2.91,0.61-4,1.82
		c-1.18,1.31-1.96,4.03-1.96,6.89c0,3.1,0.92,5.93,2.35,7.22c1.01,0.87,2.27,1.37,3.55,1.37c1.49,0,2.75-0.5,3.73-1.48
		c0.64-0.65,1.12-1.35,1.37-2.05c0.59-1.45,0.92-3.38,0.92-5.04C132.339,147.853,131.479,145.223,129.959,143.853z M129.959,143.853
		c-1-0.9-2.29-1.4-3.58-1.4c-1.54,0-2.91,0.61-4,1.82c-1.18,1.31-1.96,4.03-1.96,6.89c0,3.1,0.92,5.93,2.35,7.22
		c1.01,0.87,2.27,1.37,3.55,1.37c1.49,0,2.75-0.5,3.73-1.48c0.64-0.65,1.12-1.35,1.37-2.05c0.59-1.45,0.92-3.38,0.92-5.04
		C132.339,147.853,131.479,145.223,129.959,143.853z M187.249,142.873c-1.12,0-1.43,0.22-1.43,1.01v6.88
		c2.69-0.05,3.67-0.22,4.96-0.95c1.01-0.53,1.6-1.71,1.6-3.11C192.379,144.073,190.749,142.873,187.249,142.873z M187.249,142.873
		c-1.12,0-1.43,0.22-1.43,1.01v6.88c2.69-0.05,3.67-0.22,4.96-0.95c1.01-0.53,1.6-1.71,1.6-3.11
		C192.379,144.073,190.749,142.873,187.249,142.873z M129.959,143.853c-1-0.9-2.29-1.4-3.58-1.4c-1.54,0-2.91,0.61-4,1.82
		c-1.18,1.31-1.96,4.03-1.96,6.89c0,3.1,0.92,5.93,2.35,7.22c1.01,0.87,2.27,1.37,3.55,1.37c1.49,0,2.75-0.5,3.73-1.48
		c0.64-0.65,1.12-1.35,1.37-2.05c0.59-1.45,0.92-3.38,0.92-5.04C132.339,147.853,131.479,145.223,129.959,143.853z M129.959,143.853
		c-1-0.9-2.29-1.4-3.58-1.4c-1.54,0-2.91,0.61-4,1.82c-1.18,1.31-1.96,4.03-1.96,6.89c0,3.1,0.92,5.93,2.35,7.22
		c1.01,0.87,2.27,1.37,3.55,1.37c1.49,0,2.75-0.5,3.73-1.48c0.64-0.65,1.12-1.35,1.37-2.05c0.59-1.45,0.92-3.38,0.92-5.04
		C132.339,147.853,131.479,145.223,129.959,143.853z M187.249,142.873c-1.12,0-1.43,0.22-1.43,1.01v6.88
		c2.69-0.05,3.67-0.22,4.96-0.95c1.01-0.53,1.6-1.71,1.6-3.11C192.379,144.073,190.749,142.873,187.249,142.873z M187.249,142.873
		c-1.12,0-1.43,0.22-1.43,1.01v6.88c2.69-0.05,3.67-0.22,4.96-0.95c1.01-0.53,1.6-1.71,1.6-3.11
		C192.379,144.073,190.749,142.873,187.249,142.873z M129.959,143.853c-1-0.9-2.29-1.4-3.58-1.4c-1.54,0-2.91,0.61-4,1.82
		c-1.18,1.31-1.96,4.03-1.96,6.89c0,3.1,0.92,5.93,2.35,7.22c1.01,0.87,2.27,1.37,3.55,1.37c1.49,0,2.75-0.5,3.73-1.48
		c0.64-0.65,1.12-1.35,1.37-2.05c0.59-1.45,0.92-3.38,0.92-5.04C132.339,147.853,131.479,145.223,129.959,143.853z M129.959,143.853
		c-1-0.9-2.29-1.4-3.58-1.4c-1.54,0-2.91,0.61-4,1.82c-1.18,1.31-1.96,4.03-1.96,6.89c0,3.1,0.92,5.93,2.35,7.22
		c1.01,0.87,2.27,1.37,3.55,1.37c1.49,0,2.75-0.5,3.73-1.48c0.64-0.65,1.12-1.35,1.37-2.05c0.59-1.45,0.92-3.38,0.92-5.04
		C132.339,147.853,131.479,145.223,129.959,143.853z M129.959,143.853c-1-0.9-2.29-1.4-3.58-1.4c-1.54,0-2.91,0.61-4,1.82
		c-1.18,1.31-1.96,4.03-1.96,6.89c0,3.1,0.92,5.93,2.35,7.22c1.01,0.87,2.27,1.37,3.55,1.37c1.49,0,2.75-0.5,3.73-1.48
		c0.64-0.65,1.12-1.35,1.37-2.05c0.59-1.45,0.92-3.38,0.92-5.04C132.339,147.853,131.479,145.223,129.959,143.853z" />
	<path fill="#33D33F" d="M135.819,57.853c-0.91,0.1-1.35,0.71-1.38,1.89l3.04-0.35C137.129,58.123,136.729,57.743,135.819,57.853z
		 M135.819,57.853c-0.91,0.1-1.35,0.71-1.38,1.89l3.04-0.35C137.129,58.123,136.729,57.743,135.819,57.853z M135.819,57.853
		c-0.91,0.1-1.35,0.71-1.38,1.89l3.04-0.35C137.129,58.123,136.729,57.743,135.819,57.853z M135.819,57.853
		c-0.91,0.1-1.35,0.71-1.38,1.89l3.04-0.35C137.129,58.123,136.729,57.743,135.819,57.853z M135.819,57.853
		c-0.91,0.1-1.35,0.71-1.38,1.89l3.04-0.35C137.129,58.123,136.729,57.743,135.819,57.853z M157.609,57.623
		c-1.07-0.12-1.86,0.73-2.02,2.15c-0.11,1.06,0.01,2.13,0.34,2.95c0.25,0.63,0.76,1.05,1.34,1.11c1.12,0.13,1.9-0.8,2.09-2.5
		C159.589,59.293,158.859,57.763,157.609,57.623z M135.819,57.853c-0.91,0.1-1.35,0.71-1.38,1.89l3.04-0.35
		C137.129,58.123,136.729,57.743,135.819,57.853z M157.609,57.623c-1.07-0.12-1.86,0.73-2.02,2.15c-0.11,1.06,0.01,2.13,0.34,2.95
		c0.25,0.63,0.76,1.05,1.34,1.11c1.12,0.13,1.9-0.8,2.09-2.5C159.589,59.293,158.859,57.763,157.609,57.623z M135.819,57.853
		c-0.91,0.1-1.35,0.71-1.38,1.89l3.04-0.35C137.129,58.123,136.729,57.743,135.819,57.853z M157.609,57.623
		c-1.07-0.12-1.86,0.73-2.02,2.15c-0.11,1.06,0.01,2.13,0.34,2.95c0.25,0.63,0.76,1.05,1.34,1.11c1.12,0.13,1.9-0.8,2.09-2.5
		C159.589,59.293,158.859,57.763,157.609,57.623z M178.869,62.573c-0.86-0.3-1.53,0.05-2.07,1.09l2.88,1.03
		C179.929,63.393,179.729,62.883,178.869,62.573z M135.819,57.853c-0.91,0.1-1.35,0.71-1.38,1.89l3.04-0.35
		C137.129,58.123,136.729,57.743,135.819,57.853z M157.609,57.623c-1.07-0.12-1.86,0.73-2.02,2.15c-0.11,1.06,0.01,2.13,0.34,2.95
		c0.25,0.63,0.76,1.05,1.34,1.11c1.12,0.13,1.9-0.8,2.09-2.5C159.589,59.293,158.859,57.763,157.609,57.623z M178.869,62.573
		c-0.86-0.3-1.53,0.05-2.07,1.09l2.88,1.03C179.929,63.393,179.729,62.883,178.869,62.573z M135.819,57.853
		c-0.91,0.1-1.35,0.71-1.38,1.89l3.04-0.35C137.129,58.123,136.729,57.743,135.819,57.853z M157.609,57.623
		c-1.07-0.12-1.86,0.73-2.02,2.15c-0.11,1.06,0.01,2.13,0.34,2.95c0.25,0.63,0.76,1.05,1.34,1.11c1.12,0.13,1.9-0.8,2.09-2.5
		C159.589,59.293,158.859,57.763,157.609,57.623z M178.869,62.573c-0.86-0.3-1.53,0.05-2.07,1.09l2.88,1.03
		C179.929,63.393,179.729,62.883,178.869,62.573z M135.819,57.853c-0.91,0.1-1.35,0.71-1.38,1.89l3.04-0.35
		C137.129,58.123,136.729,57.743,135.819,57.853z M157.609,57.623c-1.07-0.12-1.86,0.73-2.02,2.15c-0.11,1.06,0.01,2.13,0.34,2.95
		c0.25,0.63,0.76,1.05,1.34,1.11c1.12,0.13,1.9-0.8,2.09-2.5C159.589,59.293,158.859,57.763,157.609,57.623z M178.869,62.573
		c-0.86-0.3-1.53,0.05-2.07,1.09l2.88,1.03C179.929,63.393,179.729,62.883,178.869,62.573z M135.819,57.853
		c-0.91,0.1-1.35,0.71-1.38,1.89l3.04-0.35C137.129,58.123,136.729,57.743,135.819,57.853z M157.609,57.623
		c-1.07-0.12-1.86,0.73-2.02,2.15c-0.11,1.06,0.01,2.13,0.34,2.95c0.25,0.63,0.76,1.05,1.34,1.11c1.12,0.13,1.9-0.8,2.09-2.5
		C159.589,59.293,158.859,57.763,157.609,57.623z M178.869,62.573c-0.86-0.3-1.53,0.05-2.07,1.09l2.88,1.03
		C179.929,63.393,179.729,62.883,178.869,62.573z M135.819,57.853c-0.91,0.1-1.35,0.71-1.38,1.89l3.04-0.35
		C137.129,58.123,136.729,57.743,135.819,57.853z M157.609,57.623c-1.07-0.12-1.86,0.73-2.02,2.15c-0.11,1.06,0.01,2.13,0.34,2.95
		c0.25,0.63,0.76,1.05,1.34,1.11c1.12,0.13,1.9-0.8,2.09-2.5C159.589,59.293,158.859,57.763,157.609,57.623z M178.869,62.573
		c-0.86-0.3-1.53,0.05-2.07,1.09l2.88,1.03C179.929,63.393,179.729,62.883,178.869,62.573z M135.819,57.853
		c-0.91,0.1-1.35,0.71-1.38,1.89l3.04-0.35C137.129,58.123,136.729,57.743,135.819,57.853z M157.609,57.623
		c-1.07-0.12-1.86,0.73-2.02,2.15c-0.11,1.06,0.01,2.13,0.34,2.95c0.25,0.63,0.76,1.05,1.34,1.11c1.12,0.13,1.9-0.8,2.09-2.5
		C159.589,59.293,158.859,57.763,157.609,57.623z M178.869,62.573c-0.86-0.3-1.53,0.05-2.07,1.09l2.88,1.03
		C179.929,63.393,179.729,62.883,178.869,62.573z M135.819,57.853c-0.91,0.1-1.35,0.71-1.38,1.89l3.04-0.35
		C137.129,58.123,136.729,57.743,135.819,57.853z M157.609,57.623c-1.07-0.12-1.86,0.73-2.02,2.15c-0.11,1.06,0.01,2.13,0.34,2.95
		c0.25,0.63,0.76,1.05,1.34,1.11c1.12,0.13,1.9-0.8,2.09-2.5C159.589,59.293,158.859,57.763,157.609,57.623z M178.869,62.573
		c-0.86-0.3-1.53,0.05-2.07,1.09l2.88,1.03C179.929,63.393,179.729,62.883,178.869,62.573z M128.029,233.213
		c-0.89-0.21-1.52,0.21-1.94,1.31l2.98,0.7C129.169,233.913,128.919,233.423,128.029,233.213z M135.819,57.853
		c-0.91,0.1-1.35,0.71-1.38,1.89l3.04-0.35C137.129,58.123,136.729,57.743,135.819,57.853z M157.609,57.623
		c-1.07-0.12-1.86,0.73-2.02,2.15c-0.11,1.06,0.01,2.13,0.34,2.95c0.25,0.63,0.76,1.05,1.34,1.11c1.12,0.13,1.9-0.8,2.09-2.5
		C159.589,59.293,158.859,57.763,157.609,57.623z M178.869,62.573c-0.86-0.3-1.53,0.05-2.07,1.09l2.88,1.03
		C179.929,63.393,179.729,62.883,178.869,62.573z M128.029,233.213c-0.89-0.21-1.52,0.21-1.94,1.31l2.98,0.7
		C129.169,233.913,128.919,233.423,128.029,233.213z M135.819,57.853c-0.91,0.1-1.35,0.71-1.38,1.89l3.04-0.35
		C137.129,58.123,136.729,57.743,135.819,57.853z M157.609,57.623c-1.07-0.12-1.86,0.73-2.02,2.15c-0.11,1.06,0.01,2.13,0.34,2.95
		c0.25,0.63,0.76,1.05,1.34,1.11c1.12,0.13,1.9-0.8,2.09-2.5C159.589,59.293,158.859,57.763,157.609,57.623z M178.869,62.573
		c-0.86-0.3-1.53,0.05-2.07,1.09l2.88,1.03C179.929,63.393,179.729,62.883,178.869,62.573z M128.029,233.213
		c-0.89-0.21-1.52,0.21-1.94,1.31l2.98,0.7C129.169,233.913,128.919,233.423,128.029,233.213z M135.819,57.853
		c-0.91,0.1-1.35,0.71-1.38,1.89l3.04-0.35C137.129,58.123,136.729,57.743,135.819,57.853z M148.649,235.303
		c-1.08,0.02-1.75,0.96-1.72,2.39c0.02,1.06,0.28,2.11,0.72,2.88c0.32,0.59,0.88,0.94,1.47,0.93c1.12-0.02,1.78-1.04,1.75-2.75
		C150.829,236.703,149.909,235.273,148.649,235.303z M157.609,57.623c-1.07-0.12-1.86,0.73-2.02,2.15
		c-0.11,1.06,0.01,2.13,0.34,2.95c0.25,0.63,0.76,1.05,1.34,1.11c1.12,0.13,1.9-0.8,2.09-2.5
		C159.589,59.293,158.859,57.763,157.609,57.623z M178.869,62.573c-0.86-0.3-1.53,0.05-2.07,1.09l2.88,1.03
		C179.929,63.393,179.729,62.883,178.869,62.573z M148.649,235.303c-1.08,0.02-1.75,0.96-1.72,2.39c0.02,1.06,0.28,2.11,0.72,2.88
		c0.32,0.59,0.88,0.94,1.47,0.93c1.12-0.02,1.78-1.04,1.75-2.75C150.829,236.703,149.909,235.273,148.649,235.303z M128.029,233.213
		c-0.89-0.21-1.52,0.21-1.94,1.31l2.98,0.7C129.169,233.913,128.919,233.423,128.029,233.213z M135.819,57.853
		c-0.91,0.1-1.35,0.71-1.38,1.89l3.04-0.35C137.129,58.123,136.729,57.743,135.819,57.853z M157.609,57.623
		c-1.07-0.12-1.86,0.73-2.02,2.15c-0.11,1.06,0.01,2.13,0.34,2.95c0.25,0.63,0.76,1.05,1.34,1.11c1.12,0.13,1.9-0.8,2.09-2.5
		C159.589,59.293,158.859,57.763,157.609,57.623z M178.869,62.573c-0.86-0.3-1.53,0.05-2.07,1.09l2.88,1.03
		C179.929,63.393,179.729,62.883,178.869,62.573z M128.029,233.213c-0.89-0.21-1.52,0.21-1.94,1.31l2.98,0.7
		C129.169,233.913,128.919,233.423,128.029,233.213z M135.819,57.853c-0.91,0.1-1.35,0.71-1.38,1.89l3.04-0.35
		C137.129,58.123,136.729,57.743,135.819,57.853z M148.649,235.303c-1.08,0.02-1.75,0.96-1.72,2.39c0.02,1.06,0.28,2.11,0.72,2.88
		c0.32,0.59,0.88,0.94,1.47,0.93c1.12-0.02,1.78-1.04,1.75-2.75C150.829,236.703,149.909,235.273,148.649,235.303z M157.609,57.623
		c-1.07-0.12-1.86,0.73-2.02,2.15c-0.11,1.06,0.01,2.13,0.34,2.95c0.25,0.63,0.76,1.05,1.34,1.11c1.12,0.13,1.9-0.8,2.09-2.5
		C159.589,59.293,158.859,57.763,157.609,57.623z M169.249,232.453c-0.88,0.25-1.22,0.92-1.07,2.09l2.95-0.82
		C170.589,232.513,170.129,232.203,169.249,232.453z M178.869,62.573c-0.86-0.3-1.53,0.05-2.07,1.09l2.88,1.03
		C179.929,63.393,179.729,62.883,178.869,62.573z M169.249,232.453c-0.88,0.25-1.22,0.92-1.07,2.09l2.95-0.82
		C170.589,232.513,170.129,232.203,169.249,232.453z M148.649,235.303c-1.08,0.02-1.75,0.96-1.72,2.39
		c0.02,1.06,0.28,2.11,0.72,2.88c0.32,0.59,0.88,0.94,1.47,0.93c1.12-0.02,1.78-1.04,1.75-2.75
		C150.829,236.703,149.909,235.273,148.649,235.303z M128.029,233.213c-0.89-0.21-1.52,0.21-1.94,1.31l2.98,0.7
		C129.169,233.913,128.919,233.423,128.029,233.213z M135.819,57.853c-0.91,0.1-1.35,0.71-1.38,1.89l3.04-0.35
		C137.129,58.123,136.729,57.743,135.819,57.853z M157.609,57.623c-1.07-0.12-1.86,0.73-2.02,2.15c-0.11,1.06,0.01,2.13,0.34,2.95
		c0.25,0.63,0.76,1.05,1.34,1.11c1.12,0.13,1.9-0.8,2.09-2.5C159.589,59.293,158.859,57.763,157.609,57.623z M178.869,62.573
		c-0.86-0.3-1.53,0.05-2.07,1.09l2.88,1.03C179.929,63.393,179.729,62.883,178.869,62.573z M128.029,233.213
		c-0.89-0.21-1.52,0.21-1.94,1.31l2.98,0.7C129.169,233.913,128.919,233.423,128.029,233.213z M135.819,57.853
		c-0.91,0.1-1.35,0.71-1.38,1.89l3.04-0.35C137.129,58.123,136.729,57.743,135.819,57.853z M148.649,235.303
		c-1.08,0.02-1.75,0.96-1.72,2.39c0.02,1.06,0.28,2.11,0.72,2.88c0.32,0.59,0.88,0.94,1.47,0.93c1.12-0.02,1.78-1.04,1.75-2.75
		C150.829,236.703,149.909,235.273,148.649,235.303z M157.609,57.623c-1.07-0.12-1.86,0.73-2.02,2.15
		c-0.11,1.06,0.01,2.13,0.34,2.95c0.25,0.63,0.76,1.05,1.34,1.11c1.12,0.13,1.9-0.8,2.09-2.5
		C159.589,59.293,158.859,57.763,157.609,57.623z M169.249,232.453c-0.88,0.25-1.22,0.92-1.07,2.09l2.95-0.82
		C170.589,232.513,170.129,232.203,169.249,232.453z M178.869,62.573c-0.86-0.3-1.53,0.05-2.07,1.09l2.88,1.03
		C179.929,63.393,179.729,62.883,178.869,62.573z M169.249,232.453c-0.88,0.25-1.22,0.92-1.07,2.09l2.95-0.82
		C170.589,232.513,170.129,232.203,169.249,232.453z M148.649,235.303c-1.08,0.02-1.75,0.96-1.72,2.39
		c0.02,1.06,0.28,2.11,0.72,2.88c0.32,0.59,0.88,0.94,1.47,0.93c1.12-0.02,1.78-1.04,1.75-2.75
		C150.829,236.703,149.909,235.273,148.649,235.303z M128.029,233.213c-0.89-0.21-1.52,0.21-1.94,1.31l2.98,0.7
		C129.169,233.913,128.919,233.423,128.029,233.213z M135.819,57.853c-0.91,0.1-1.35,0.71-1.38,1.89l3.04-0.35
		C137.129,58.123,136.729,57.743,135.819,57.853z M157.609,57.623c-1.07-0.12-1.86,0.73-2.02,2.15c-0.11,1.06,0.01,2.13,0.34,2.95
		c0.25,0.63,0.76,1.05,1.34,1.11c1.12,0.13,1.9-0.8,2.09-2.5C159.589,59.293,158.859,57.763,157.609,57.623z M178.869,62.573
		c-0.86-0.3-1.53,0.05-2.07,1.09l2.88,1.03C179.929,63.393,179.729,62.883,178.869,62.573z M128.029,233.213
		c-0.89-0.21-1.52,0.21-1.94,1.31l2.98,0.7C129.169,233.913,128.919,233.423,128.029,233.213z M135.819,57.853
		c-0.91,0.1-1.35,0.71-1.38,1.89l3.04-0.35C137.129,58.123,136.729,57.743,135.819,57.853z M148.649,235.303
		c-1.08,0.02-1.75,0.96-1.72,2.39c0.02,1.06,0.28,2.11,0.72,2.88c0.32,0.59,0.88,0.94,1.47,0.93c1.12-0.02,1.78-1.04,1.75-2.75
		C150.829,236.703,149.909,235.273,148.649,235.303z M157.609,57.623c-1.07-0.12-1.86,0.73-2.02,2.15
		c-0.11,1.06,0.01,2.13,0.34,2.95c0.25,0.63,0.76,1.05,1.34,1.11c1.12,0.13,1.9-0.8,2.09-2.5
		C159.589,59.293,158.859,57.763,157.609,57.623z M169.249,232.453c-0.88,0.25-1.22,0.92-1.07,2.09l2.95-0.82
		C170.589,232.513,170.129,232.203,169.249,232.453z M178.869,62.573c-0.86-0.3-1.53,0.05-2.07,1.09l2.88,1.03
		C179.929,63.393,179.729,62.883,178.869,62.573z M169.249,232.453c-0.88,0.25-1.22,0.92-1.07,2.09l2.95-0.82
		C170.589,232.513,170.129,232.203,169.249,232.453z M148.649,235.303c-1.08,0.02-1.75,0.96-1.72,2.39
		c0.02,1.06,0.28,2.11,0.72,2.88c0.32,0.59,0.88,0.94,1.47,0.93c1.12-0.02,1.78-1.04,1.75-2.75
		C150.829,236.703,149.909,235.273,148.649,235.303z M128.029,233.213c-0.89-0.21-1.52,0.21-1.94,1.31l2.98,0.7
		C129.169,233.913,128.919,233.423,128.029,233.213z M135.819,57.853c-0.91,0.1-1.35,0.71-1.38,1.89l3.04-0.35
		C137.129,58.123,136.729,57.743,135.819,57.853z M157.609,57.623c-1.07-0.12-1.86,0.73-2.02,2.15c-0.11,1.06,0.01,2.13,0.34,2.95
		c0.25,0.63,0.76,1.05,1.34,1.11c1.12,0.13,1.9-0.8,2.09-2.5C159.589,59.293,158.859,57.763,157.609,57.623z M178.869,62.573
		c-0.86-0.3-1.53,0.05-2.07,1.09l2.88,1.03C179.929,63.393,179.729,62.883,178.869,62.573z M128.029,233.213
		c-0.89-0.21-1.52,0.21-1.94,1.31l2.98,0.7C129.169,233.913,128.919,233.423,128.029,233.213z M135.819,57.853
		c-0.91,0.1-1.35,0.71-1.38,1.89l3.04-0.35C137.129,58.123,136.729,57.743,135.819,57.853z M148.649,235.303
		c-1.08,0.02-1.75,0.96-1.72,2.39c0.02,1.06,0.28,2.11,0.72,2.88c0.32,0.59,0.88,0.94,1.47,0.93c1.12-0.02,1.78-1.04,1.75-2.75
		C150.829,236.703,149.909,235.273,148.649,235.303z M157.609,57.623c-1.07-0.12-1.86,0.73-2.02,2.15
		c-0.11,1.06,0.01,2.13,0.34,2.95c0.25,0.63,0.76,1.05,1.34,1.11c1.12,0.13,1.9-0.8,2.09-2.5
		C159.589,59.293,158.859,57.763,157.609,57.623z M169.249,232.453c-0.88,0.25-1.22,0.92-1.07,2.09l2.95-0.82
		C170.589,232.513,170.129,232.203,169.249,232.453z M178.869,62.573c-0.86-0.3-1.53,0.05-2.07,1.09l2.88,1.03
		C179.929,63.393,179.729,62.883,178.869,62.573z M169.249,232.453c-0.88,0.25-1.22,0.92-1.07,2.09l2.95-0.82
		C170.589,232.513,170.129,232.203,169.249,232.453z M148.649,235.303c-1.08,0.02-1.75,0.96-1.72,2.39
		c0.02,1.06,0.28,2.11,0.72,2.88c0.32,0.59,0.88,0.94,1.47,0.93c1.12-0.02,1.78-1.04,1.75-2.75
		C150.829,236.703,149.909,235.273,148.649,235.303z M128.029,233.213c-0.89-0.21-1.52,0.21-1.94,1.31l2.98,0.7
		C129.169,233.913,128.919,233.423,128.029,233.213z M135.819,57.853c-0.91,0.1-1.35,0.71-1.38,1.89l3.04-0.35
		C137.129,58.123,136.729,57.743,135.819,57.853z M157.609,57.623c-1.07-0.12-1.86,0.73-2.02,2.15c-0.11,1.06,0.01,2.13,0.34,2.95
		c0.25,0.63,0.76,1.05,1.34,1.11c1.12,0.13,1.9-0.8,2.09-2.5C159.589,59.293,158.859,57.763,157.609,57.623z M178.869,62.573
		c-0.86-0.3-1.53,0.05-2.07,1.09l2.88,1.03C179.929,63.393,179.729,62.883,178.869,62.573z M147.179,44.673
		c-58.18,0-105.34,47.16-105.34,105.33s47.16,105.33,105.34,105.33c58.17,0,105.33-47.16,105.33-105.33
		S205.349,44.673,147.179,44.673z M147.179,225.333c-41.61,0-75.34-33.72-75.34-75.33c0-41.61,33.73-75.33,75.34-75.33
		c41.6,0,75.33,33.72,75.33,75.33C222.509,191.613,188.779,225.333,147.179,225.333z M175.279,64.643c0.41-1.16,1.14-2.03,2.01-2.37
		c0.71-0.29,1.47-0.31,2.17-0.06c0.74,0.26,1.28,0.79,1.53,1.45c0.19,0.57,0.18,1.03-0.03,1.99l-4.35-1.54
		c-0.28,0.88-0.35,1.37-0.28,2c0.12,0.95,0.58,1.57,1.39,1.86c0.9,0.32,1.66,0.13,2.72-0.71l0.19,0.18c-1.14,1.32-2.5,1.78-3.84,1.3
		C175.169,68.163,174.579,66.593,175.279,64.643z M161.969,64.363c0.8,0.18,1.04,0.02,1.26-0.79l0.86-3.7
		c0.16-0.7,0.08-0.97-0.3-1.05c-0.16-0.04-0.29-0.06-0.48-0.05l0.06-0.25c0.82-0.04,1.36-0.09,2.2-0.19l0.09,0.06l-0.25,1.09
		c1.43-0.65,1.87-0.75,2.53-0.6c0.79,0.19,1.19,0.7,1.26,1.59c0.99-0.66,1.82-0.87,2.67-0.68c1.12,0.27,1.49,1.27,1.09,3l-0.7,3.01
		c-0.13,0.57-0.02,0.83,0.43,1.01l0.38,0.12l-0.06,0.22l-3.2-0.75l0.05-0.22c0.87,0.11,0.98,0.03,1.21-0.82l0.72-3.09
		c0.28-1.21,0.11-1.67-0.73-1.86c-0.68-0.16-1.21-0.01-1.8,0.52l-0.85,3.69c-0.19,0.94-0.04,1.22,0.78,1.41l-0.05,0.22l-3.27-0.76
		l0.05-0.22c0.83,0.15,1.01,0.02,1.23-0.81l0.74-3.17c0.23-1.02,0.03-1.61-0.61-1.76c-0.51-0.12-1.2-0.01-1.64,0.24
		c-0.13,0.08-0.28,0.2-0.29,0.22l-0.95,4.13c-0.12,0.58,0.07,0.8,0.82,0.99l-0.06,0.22l-3.24-0.76L161.969,64.363z M154.169,60.353
		c0.23-2.06,1.73-3.34,3.68-3.12c1.91,0.21,3.13,1.76,2.91,3.73c-0.23,2.07-1.83,3.48-3.71,3.27S153.949,62.383,154.169,60.353z
		 M147.539,57.463c0.63-0.52,1.4-0.81,2.13-0.79c1.26,0.03,2.3,0.76,2.28,1.6c-0.01,0.34-0.33,0.62-0.72,0.61
		c-0.33-0.01-0.59-0.27-0.7-0.71l-0.09-0.33c-0.13-0.57-0.33-0.72-0.87-0.74c-1.21-0.02-2.06,1.01-2.09,2.57
		c-0.04,1.72,0.88,2.94,2.26,2.97c0.85,0.02,1.4-0.32,2.14-1.36l0.21,0.14c-0.47,0.88-0.77,1.29-1.18,1.63
		c-0.55,0.45-1.15,0.67-1.83,0.66c-1.66-0.04-2.82-1.46-2.77-3.39C146.329,59.123,146.779,58.113,147.539,57.463z M142.929,53.383
		l0.06,0.03l0.43,8.94c0.06,0.84,0.23,0.98,1.18,0.98l0.01,0.23l-3.54,0.17l-0.01-0.23c0.93-0.1,1.13-0.32,1.1-1.13l-0.34-7.15
		c-0.03-0.7-0.19-0.91-0.67-0.88c-0.12,0-0.3,0.03-0.47,0.05h-0.09l-0.01-0.24C141.629,53.853,142.179,53.663,142.929,53.383z
		 M134.269,58.273c0.5-0.58,1.17-0.92,1.92-1.01c0.77-0.09,1.5,0.14,2.01,0.63c0.42,0.43,0.62,0.85,0.85,1.8l-4.59,0.53
		c0.14,0.92,0.3,1.39,0.63,1.92c0.53,0.8,1.22,1.16,2.07,1.06c0.96-0.11,1.55-0.61,2.13-1.83l0.25,0.08
		c-0.44,1.68-1.45,2.69-2.87,2.85c-1.71,0.2-2.93-0.96-3.17-3.01C133.359,60.063,133.639,58.963,134.269,58.273z M121.209,56.993
		l0.07,0.28c-0.73,0.23-0.92,0.37-0.84,0.69c0.04,0.16,0.15,0.39,0.32,0.63l3.39,5l0.59-4.49l-0.76-1.08
		c-0.77-1.05-0.95-1.15-1.78-0.97l-0.07-0.28l3.9-0.91l0.07,0.27c-0.79,0.2-1.09,0.43-1.01,0.78c0.04,0.16,0.19,0.42,0.4,0.69
		c0.04,0.05,0.11,0.16,0.27,0.4l3.1,4.53l0.66-5.38c0.05-0.45,0.05-0.86-0.02-1.15c-0.09-0.4-0.39-0.5-1.15-0.4l-0.07-0.27
		l2.89-0.68l0.07,0.28c-0.74,0.32-0.87,0.49-0.97,1.32c-0.59,4.76-0.62,5.09-0.98,9.21l-0.22,0.05l-3.79-5.63l-0.79,6.71l-0.22,0.05
		l-4.66-7.18c-0.87-1.24-1.15-1.45-1.91-1.35l-0.07-0.28L121.209,56.993z M58.509,155.483l-6.74,4.89l2.57-7.92l-6.74-4.9h8.33
		l2.58-7.92l2.58,7.92h8.33l-1.32,0.96l-5.42,3.94l2.57,7.92L58.509,155.483z M118.389,237.263l-0.21-0.08l-0.02-6.79l-4.39,5.14
		l-0.21-0.08l0.11-8.56c-0.03-1.52-0.15-1.85-0.84-2.18l0.1-0.27l3.45,1.28l-0.1,0.27c-0.74-0.21-0.97-0.2-1.09,0.11
		c-0.05,0.15-0.09,0.41-0.08,0.7l0.05,6.04l2.98-3.4l-0.03-1.32c-0.06-1.31-0.15-1.48-0.95-1.8l0.1-0.26l3.75,1.4l-0.1,0.26
		c-0.76-0.27-1.14-0.25-1.26,0.09c-0.06,0.16-0.08,0.45-0.06,0.8c0.01,0.06,0.01,0.19,0.01,0.48l0.07,5.49l3.53-4.11
		c0.29-0.34,0.52-0.69,0.62-0.97c0.14-0.38-0.05-0.63-0.74-0.97l0.1-0.26l2.78,1.03l-0.1,0.27c-0.8-0.14-1-0.07-1.54,0.56
		C121.189,233.773,120.979,234.033,118.389,237.263z M130.449,236.043l-4.5-1.06c-0.18,0.92-0.19,1.41-0.06,2.02
		c0.23,0.94,0.76,1.51,1.59,1.7c0.94,0.22,1.66-0.06,2.62-1l0.21,0.15c-0.98,1.44-2.28,2.04-3.66,1.72
		c-1.68-0.39-2.44-1.9-1.97-3.91c0.28-1.2,0.92-2.14,1.75-2.58c0.67-0.37,1.41-0.47,2.14-0.3c0.76,0.18,1.36,0.64,1.68,1.27
		C130.509,234.603,130.549,235.063,130.449,236.043z M135.139,240.783l-0.03,0.22l-3.5-0.55l0.04-0.22c0.92,0.09,1.16-0.09,1.3-0.89
		l1.1-7.07c0.11-0.69-0.01-0.92-0.48-1c-0.12-0.01-0.3-0.03-0.46-0.04l-0.09-0.01l0.03-0.24c1.09-0.09,1.67-0.16,2.46-0.28
		l0.06,0.03l-1.38,8.85C134.079,240.413,134.219,240.593,135.139,240.783z M140.949,240.643c0.85,0.07,1.41-0.25,2.21-1.24l0.2,0.15
		c-0.52,0.85-0.83,1.24-1.26,1.56c-0.57,0.42-1.19,0.61-1.86,0.56c-1.66-0.12-2.74-1.6-2.59-3.53c0.09-1.2,0.58-2.18,1.38-2.78
		c0.65-0.5,1.44-0.74,2.17-0.68c1.26,0.09,2.25,0.87,2.19,1.71c-0.03,0.35-0.36,0.61-0.75,0.58c-0.33-0.03-0.58-0.3-0.67-0.74
		l-0.06-0.34c-0.11-0.58-0.29-0.74-0.83-0.78c-1.21-0.1-2.11,0.89-2.23,2.44C138.719,239.273,139.569,240.543,140.949,240.643z
		 M148.949,241.923c-1.89,0.04-3.32-1.43-3.36-3.47c-0.04-2.07,1.29-3.54,3.25-3.58c1.92-0.03,3.33,1.35,3.37,3.33
		C152.249,240.283,150.839,241.893,148.949,241.923z M162.879,240.443l-0.04-0.22c0.85-0.22,0.92-0.33,0.82-1.21l-0.46-3.13
		c-0.19-1.23-0.51-1.59-1.36-1.47c-0.7,0.11-1.13,0.44-1.48,1.15l0.56,3.73c0.17,0.95,0.41,1.16,1.24,1.03l0.03,0.22l-3.32,0.5
		l-0.03-0.22c0.82-0.17,0.95-0.36,0.85-1.21l-0.48-3.21c-0.15-1.04-0.56-1.51-1.21-1.42c-0.52,0.08-1.12,0.43-1.44,0.83
		c-0.09,0.11-0.18,0.28-0.18,0.31l0.62,4.18c0.11,0.59,0.37,0.72,1.13,0.62l0.03,0.23l-3.29,0.49l-0.04-0.23
		c0.82-0.12,0.98-0.35,0.89-1.19l-0.56-3.75c-0.11-0.71-0.28-0.93-0.66-0.87c-0.17,0.02-0.3,0.06-0.47,0.13l-0.04-0.25
		c0.76-0.34,1.24-0.58,1.98-0.98l0.11,0.01l0.17,1.11c1.08-1.13,1.46-1.38,2.12-1.48c0.8-0.12,1.37,0.21,1.76,1.01
		c0.67-0.98,1.37-1.48,2.23-1.61c1.15-0.17,1.86,0.64,2.12,2.39l0.45,3.05c0.09,0.58,0.29,0.78,0.77,0.78l0.39-0.02l0.04,0.22
		L162.879,240.443z M171.109,238.693c-1.67,0.47-3.05-0.48-3.61-2.48c-0.33-1.18-0.23-2.32,0.28-3.1c0.42-0.64,1.02-1.09,1.74-1.3
		c0.76-0.21,1.51-0.09,2.08,0.31c0.49,0.36,0.76,0.74,1.14,1.65l-4.46,1.24c0.28,0.89,0.51,1.32,0.93,1.8
		c0.65,0.71,1.39,0.95,2.21,0.72c0.92-0.26,1.43-0.85,1.82-2.14l0.25,0.03C173.319,237.153,172.479,238.313,171.109,238.693z
		 M237.179,155.483l-6.75,4.89l2.58-7.92l-6.74-4.9h8.33l2.58-7.92l2.57,7.92h8.34l-6.75,4.9l2.58,7.92L237.179,155.483z
		 M178.869,62.573c-0.86-0.3-1.53,0.05-2.07,1.09l2.88,1.03C179.929,63.393,179.729,62.883,178.869,62.573z M169.249,232.453
		c-0.88,0.25-1.22,0.92-1.07,2.09l2.95-0.82C170.589,232.513,170.129,232.203,169.249,232.453z M157.269,63.833
		c1.12,0.13,1.9-0.8,2.09-2.5c0.23-2.04-0.5-3.57-1.75-3.71c-1.07-0.12-1.86,0.73-2.02,2.15c-0.11,1.06,0.01,2.13,0.34,2.95
		C156.179,63.353,156.689,63.773,157.269,63.833z M148.649,235.303c-1.08,0.02-1.75,0.96-1.72,2.39c0.02,1.06,0.28,2.11,0.72,2.88
		c0.32,0.59,0.88,0.94,1.47,0.93c1.12-0.02,1.78-1.04,1.75-2.75C150.829,236.703,149.909,235.273,148.649,235.303z M135.819,57.853
		c-0.91,0.1-1.35,0.71-1.38,1.89l3.04-0.35C137.129,58.123,136.729,57.743,135.819,57.853z M128.029,233.213
		c-0.89-0.21-1.52,0.21-1.94,1.31l2.98,0.7C129.169,233.913,128.919,233.423,128.029,233.213z M178.869,62.573
		c-0.86-0.3-1.53,0.05-2.07,1.09l2.88,1.03C179.929,63.393,179.729,62.883,178.869,62.573z M157.609,57.623
		c-1.07-0.12-1.86,0.73-2.02,2.15c-0.11,1.06,0.01,2.13,0.34,2.95c0.25,0.63,0.76,1.05,1.34,1.11c1.12,0.13,1.9-0.8,2.09-2.5
		C159.589,59.293,158.859,57.763,157.609,57.623z M135.819,57.853c-0.91,0.1-1.35,0.71-1.38,1.89l3.04-0.35
		C137.129,58.123,136.729,57.743,135.819,57.853z M128.029,233.213c-0.89-0.21-1.52,0.21-1.94,1.31l2.98,0.7
		C129.169,233.913,128.919,233.423,128.029,233.213z M148.649,235.303c-1.08,0.02-1.75,0.96-1.72,2.39
		c0.02,1.06,0.28,2.11,0.72,2.88c0.32,0.59,0.88,0.94,1.47,0.93c1.12-0.02,1.78-1.04,1.75-2.75
		C150.829,236.703,149.909,235.273,148.649,235.303z M169.249,232.453c-0.88,0.25-1.22,0.92-1.07,2.09l2.95-0.82
		C170.589,232.513,170.129,232.203,169.249,232.453z M178.869,62.573c-0.86-0.3-1.53,0.05-2.07,1.09l2.88,1.03
		C179.929,63.393,179.729,62.883,178.869,62.573z M169.249,232.453c-0.88,0.25-1.22,0.92-1.07,2.09l2.95-0.82
		C170.589,232.513,170.129,232.203,169.249,232.453z M157.609,57.623c-1.07-0.12-1.86,0.73-2.02,2.15
		c-0.11,1.06,0.01,2.13,0.34,2.95c0.25,0.63,0.76,1.05,1.34,1.11c1.12,0.13,1.9-0.8,2.09-2.5
		C159.589,59.293,158.859,57.763,157.609,57.623z M148.649,235.303c-1.08,0.02-1.75,0.96-1.72,2.39c0.02,1.06,0.28,2.11,0.72,2.88
		c0.32,0.59,0.88,0.94,1.47,0.93c1.12-0.02,1.78-1.04,1.75-2.75C150.829,236.703,149.909,235.273,148.649,235.303z M135.819,57.853
		c-0.91,0.1-1.35,0.71-1.38,1.89l3.04-0.35C137.129,58.123,136.729,57.743,135.819,57.853z M128.029,233.213
		c-0.89-0.21-1.52,0.21-1.94,1.31l2.98,0.7C129.169,233.913,128.919,233.423,128.029,233.213z M178.869,62.573
		c-0.86-0.3-1.53,0.05-2.07,1.09l2.88,1.03C179.929,63.393,179.729,62.883,178.869,62.573z M157.609,57.623
		c-1.07-0.12-1.86,0.73-2.02,2.15c-0.11,1.06,0.01,2.13,0.34,2.95c0.25,0.63,0.76,1.05,1.34,1.11c1.12,0.13,1.9-0.8,2.09-2.5
		C159.589,59.293,158.859,57.763,157.609,57.623z M135.819,57.853c-0.91,0.1-1.35,0.71-1.38,1.89l3.04-0.35
		C137.129,58.123,136.729,57.743,135.819,57.853z M128.029,233.213c-0.89-0.21-1.52,0.21-1.94,1.31l2.98,0.7
		C129.169,233.913,128.919,233.423,128.029,233.213z M148.649,235.303c-1.08,0.02-1.75,0.96-1.72,2.39
		c0.02,1.06,0.28,2.11,0.72,2.88c0.32,0.59,0.88,0.94,1.47,0.93c1.12-0.02,1.78-1.04,1.75-2.75
		C150.829,236.703,149.909,235.273,148.649,235.303z M169.249,232.453c-0.88,0.25-1.22,0.92-1.07,2.09l2.95-0.82
		C170.589,232.513,170.129,232.203,169.249,232.453z M178.869,62.573c-0.86-0.3-1.53,0.05-2.07,1.09l2.88,1.03
		C179.929,63.393,179.729,62.883,178.869,62.573z M169.249,232.453c-0.88,0.25-1.22,0.92-1.07,2.09l2.95-0.82
		C170.589,232.513,170.129,232.203,169.249,232.453z M157.609,57.623c-1.07-0.12-1.86,0.73-2.02,2.15
		c-0.11,1.06,0.01,2.13,0.34,2.95c0.25,0.63,0.76,1.05,1.34,1.11c1.12,0.13,1.9-0.8,2.09-2.5
		C159.589,59.293,158.859,57.763,157.609,57.623z M148.649,235.303c-1.08,0.02-1.75,0.96-1.72,2.39c0.02,1.06,0.28,2.11,0.72,2.88
		c0.32,0.59,0.88,0.94,1.47,0.93c1.12-0.02,1.78-1.04,1.75-2.75C150.829,236.703,149.909,235.273,148.649,235.303z M135.819,57.853
		c-0.91,0.1-1.35,0.71-1.38,1.89l3.04-0.35C137.129,58.123,136.729,57.743,135.819,57.853z M128.029,233.213
		c-0.89-0.21-1.52,0.21-1.94,1.31l2.98,0.7C129.169,233.913,128.919,233.423,128.029,233.213z M178.869,62.573
		c-0.86-0.3-1.53,0.05-2.07,1.09l2.88,1.03C179.929,63.393,179.729,62.883,178.869,62.573z M157.609,57.623
		c-1.07-0.12-1.86,0.73-2.02,2.15c-0.11,1.06,0.01,2.13,0.34,2.95c0.25,0.63,0.76,1.05,1.34,1.11c1.12,0.13,1.9-0.8,2.09-2.5
		C159.589,59.293,158.859,57.763,157.609,57.623z M135.819,57.853c-0.91,0.1-1.35,0.71-1.38,1.89l3.04-0.35
		C137.129,58.123,136.729,57.743,135.819,57.853z M128.029,233.213c-0.89-0.21-1.52,0.21-1.94,1.31l2.98,0.7
		C129.169,233.913,128.919,233.423,128.029,233.213z M148.649,235.303c-1.08,0.02-1.75,0.96-1.72,2.39
		c0.02,1.06,0.28,2.11,0.72,2.88c0.32,0.59,0.88,0.94,1.47,0.93c1.12-0.02,1.78-1.04,1.75-2.75
		C150.829,236.703,149.909,235.273,148.649,235.303z M169.249,232.453c-0.88,0.25-1.22,0.92-1.07,2.09l2.95-0.82
		C170.589,232.513,170.129,232.203,169.249,232.453z M178.869,62.573c-0.86-0.3-1.53,0.05-2.07,1.09l2.88,1.03
		C179.929,63.393,179.729,62.883,178.869,62.573z M169.249,232.453c-0.88,0.25-1.22,0.92-1.07,2.09l2.95-0.82
		C170.589,232.513,170.129,232.203,169.249,232.453z M157.609,57.623c-1.07-0.12-1.86,0.73-2.02,2.15
		c-0.11,1.06,0.01,2.13,0.34,2.95c0.25,0.63,0.76,1.05,1.34,1.11c1.12,0.13,1.9-0.8,2.09-2.5
		C159.589,59.293,158.859,57.763,157.609,57.623z M148.649,235.303c-1.08,0.02-1.75,0.96-1.72,2.39c0.02,1.06,0.28,2.11,0.72,2.88
		c0.32,0.59,0.88,0.94,1.47,0.93c1.12-0.02,1.78-1.04,1.75-2.75C150.829,236.703,149.909,235.273,148.649,235.303z M135.819,57.853
		c-0.91,0.1-1.35,0.71-1.38,1.89l3.04-0.35C137.129,58.123,136.729,57.743,135.819,57.853z M128.029,233.213
		c-0.89-0.21-1.52,0.21-1.94,1.31l2.98,0.7C129.169,233.913,128.919,233.423,128.029,233.213z M178.869,62.573
		c-0.86-0.3-1.53,0.05-2.07,1.09l2.88,1.03C179.929,63.393,179.729,62.883,178.869,62.573z M157.609,57.623
		c-1.07-0.12-1.86,0.73-2.02,2.15c-0.11,1.06,0.01,2.13,0.34,2.95c0.25,0.63,0.76,1.05,1.34,1.11c1.12,0.13,1.9-0.8,2.09-2.5
		C159.589,59.293,158.859,57.763,157.609,57.623z M135.819,57.853c-0.91,0.1-1.35,0.71-1.38,1.89l3.04-0.35
		C137.129,58.123,136.729,57.743,135.819,57.853z M128.029,233.213c-0.89-0.21-1.52,0.21-1.94,1.31l2.98,0.7
		C129.169,233.913,128.919,233.423,128.029,233.213z M148.649,235.303c-1.08,0.02-1.75,0.96-1.72,2.39
		c0.02,1.06,0.28,2.11,0.72,2.88c0.32,0.59,0.88,0.94,1.47,0.93c1.12-0.02,1.78-1.04,1.75-2.75
		C150.829,236.703,149.909,235.273,148.649,235.303z M169.249,232.453c-0.88,0.25-1.22,0.92-1.07,2.09l2.95-0.82
		C170.589,232.513,170.129,232.203,169.249,232.453z M178.869,62.573c-0.86-0.3-1.53,0.05-2.07,1.09l2.88,1.03
		C179.929,63.393,179.729,62.883,178.869,62.573z M169.249,232.453c-0.88,0.25-1.22,0.92-1.07,2.09l2.95-0.82
		C170.589,232.513,170.129,232.203,169.249,232.453z M157.609,57.623c-1.07-0.12-1.86,0.73-2.02,2.15
		c-0.11,1.06,0.01,2.13,0.34,2.95c0.25,0.63,0.76,1.05,1.34,1.11c1.12,0.13,1.9-0.8,2.09-2.5
		C159.589,59.293,158.859,57.763,157.609,57.623z M148.649,235.303c-1.08,0.02-1.75,0.96-1.72,2.39c0.02,1.06,0.28,2.11,0.72,2.88
		c0.32,0.59,0.88,0.94,1.47,0.93c1.12-0.02,1.78-1.04,1.75-2.75C150.829,236.703,149.909,235.273,148.649,235.303z M135.819,57.853
		c-0.91,0.1-1.35,0.71-1.38,1.89l3.04-0.35C137.129,58.123,136.729,57.743,135.819,57.853z M128.029,233.213
		c-0.89-0.21-1.52,0.21-1.94,1.31l2.98,0.7C129.169,233.913,128.919,233.423,128.029,233.213z M178.869,62.573
		c-0.86-0.3-1.53,0.05-2.07,1.09l2.88,1.03C179.929,63.393,179.729,62.883,178.869,62.573z M157.609,57.623
		c-1.07-0.12-1.86,0.73-2.02,2.15c-0.11,1.06,0.01,2.13,0.34,2.95c0.25,0.63,0.76,1.05,1.34,1.11c1.12,0.13,1.9-0.8,2.09-2.5
		C159.589,59.293,158.859,57.763,157.609,57.623z M135.819,57.853c-0.91,0.1-1.35,0.71-1.38,1.89l3.04-0.35
		C137.129,58.123,136.729,57.743,135.819,57.853z M128.029,233.213c-0.89-0.21-1.52,0.21-1.94,1.31l2.98,0.7
		C129.169,233.913,128.919,233.423,128.029,233.213z M148.649,235.303c-1.08,0.02-1.75,0.96-1.72,2.39
		c0.02,1.06,0.28,2.11,0.72,2.88c0.32,0.59,0.88,0.94,1.47,0.93c1.12-0.02,1.78-1.04,1.75-2.75
		C150.829,236.703,149.909,235.273,148.649,235.303z M178.869,62.573c-0.86-0.3-1.53,0.05-2.07,1.09l2.88,1.03
		C179.929,63.393,179.729,62.883,178.869,62.573z M157.609,57.623c-1.07-0.12-1.86,0.73-2.02,2.15c-0.11,1.06,0.01,2.13,0.34,2.95
		c0.25,0.63,0.76,1.05,1.34,1.11c1.12,0.13,1.9-0.8,2.09-2.5C159.589,59.293,158.859,57.763,157.609,57.623z M148.649,235.303
		c-1.08,0.02-1.75,0.96-1.72,2.39c0.02,1.06,0.28,2.11,0.72,2.88c0.32,0.59,0.88,0.94,1.47,0.93c1.12-0.02,1.78-1.04,1.75-2.75
		C150.829,236.703,149.909,235.273,148.649,235.303z M135.819,57.853c-0.91,0.1-1.35,0.71-1.38,1.89l3.04-0.35
		C137.129,58.123,136.729,57.743,135.819,57.853z M128.029,233.213c-0.89-0.21-1.52,0.21-1.94,1.31l2.98,0.7
		C129.169,233.913,128.919,233.423,128.029,233.213z M178.869,62.573c-0.86-0.3-1.53,0.05-2.07,1.09l2.88,1.03
		C179.929,63.393,179.729,62.883,178.869,62.573z M157.609,57.623c-1.07-0.12-1.86,0.73-2.02,2.15c-0.11,1.06,0.01,2.13,0.34,2.95
		c0.25,0.63,0.76,1.05,1.34,1.11c1.12,0.13,1.9-0.8,2.09-2.5C159.589,59.293,158.859,57.763,157.609,57.623z M135.819,57.853
		c-0.91,0.1-1.35,0.71-1.38,1.89l3.04-0.35C137.129,58.123,136.729,57.743,135.819,57.853z M128.029,233.213
		c-0.89-0.21-1.52,0.21-1.94,1.31l2.98,0.7C129.169,233.913,128.919,233.423,128.029,233.213z M178.869,62.573
		c-0.86-0.3-1.53,0.05-2.07,1.09l2.88,1.03C179.929,63.393,179.729,62.883,178.869,62.573z M157.609,57.623
		c-1.07-0.12-1.86,0.73-2.02,2.15c-0.11,1.06,0.01,2.13,0.34,2.95c0.25,0.63,0.76,1.05,1.34,1.11c1.12,0.13,1.9-0.8,2.09-2.5
		C159.589,59.293,158.859,57.763,157.609,57.623z M135.819,57.853c-0.91,0.1-1.35,0.71-1.38,1.89l3.04-0.35
		C137.129,58.123,136.729,57.743,135.819,57.853z M128.029,233.213c-0.89-0.21-1.52,0.21-1.94,1.31l2.98,0.7
		C129.169,233.913,128.919,233.423,128.029,233.213z M178.869,62.573c-0.86-0.3-1.53,0.05-2.07,1.09l2.88,1.03
		C179.929,63.393,179.729,62.883,178.869,62.573z M157.609,57.623c-1.07-0.12-1.86,0.73-2.02,2.15c-0.11,1.06,0.01,2.13,0.34,2.95
		c0.25,0.63,0.76,1.05,1.34,1.11c1.12,0.13,1.9-0.8,2.09-2.5C159.589,59.293,158.859,57.763,157.609,57.623z M135.819,57.853
		c-0.91,0.1-1.35,0.71-1.38,1.89l3.04-0.35C137.129,58.123,136.729,57.743,135.819,57.853z M178.869,62.573
		c-0.86-0.3-1.53,0.05-2.07,1.09l2.88,1.03C179.929,63.393,179.729,62.883,178.869,62.573z M157.609,57.623
		c-1.07-0.12-1.86,0.73-2.02,2.15c-0.11,1.06,0.01,2.13,0.34,2.95c0.25,0.63,0.76,1.05,1.34,1.11c1.12,0.13,1.9-0.8,2.09-2.5
		C159.589,59.293,158.859,57.763,157.609,57.623z M135.819,57.853c-0.91,0.1-1.35,0.71-1.38,1.89l3.04-0.35
		C137.129,58.123,136.729,57.743,135.819,57.853z M178.869,62.573c-0.86-0.3-1.53,0.05-2.07,1.09l2.88,1.03
		C179.929,63.393,179.729,62.883,178.869,62.573z M157.609,57.623c-1.07-0.12-1.86,0.73-2.02,2.15c-0.11,1.06,0.01,2.13,0.34,2.95
		c0.25,0.63,0.76,1.05,1.34,1.11c1.12,0.13,1.9-0.8,2.09-2.5C159.589,59.293,158.859,57.763,157.609,57.623z M135.819,57.853
		c-0.91,0.1-1.35,0.71-1.38,1.89l3.04-0.35C137.129,58.123,136.729,57.743,135.819,57.853z M178.869,62.573
		c-0.86-0.3-1.53,0.05-2.07,1.09l2.88,1.03C179.929,63.393,179.729,62.883,178.869,62.573z M157.609,57.623
		c-1.07-0.12-1.86,0.73-2.02,2.15c-0.11,1.06,0.01,2.13,0.34,2.95c0.25,0.63,0.76,1.05,1.34,1.11c1.12,0.13,1.9-0.8,2.09-2.5
		C159.589,59.293,158.859,57.763,157.609,57.623z M135.819,57.853c-0.91,0.1-1.35,0.71-1.38,1.89l3.04-0.35
		C137.129,58.123,136.729,57.743,135.819,57.853z M178.869,62.573c-0.86-0.3-1.53,0.05-2.07,1.09l2.88,1.03
		C179.929,63.393,179.729,62.883,178.869,62.573z M157.609,57.623c-1.07-0.12-1.86,0.73-2.02,2.15c-0.11,1.06,0.01,2.13,0.34,2.95
		c0.25,0.63,0.76,1.05,1.34,1.11c1.12,0.13,1.9-0.8,2.09-2.5C159.589,59.293,158.859,57.763,157.609,57.623z M135.819,57.853
		c-0.91,0.1-1.35,0.71-1.38,1.89l3.04-0.35C137.129,58.123,136.729,57.743,135.819,57.853z M178.869,62.573
		c-0.86-0.3-1.53,0.05-2.07,1.09l2.88,1.03C179.929,63.393,179.729,62.883,178.869,62.573z M157.609,57.623
		c-1.07-0.12-1.86,0.73-2.02,2.15c-0.11,1.06,0.01,2.13,0.34,2.95c0.25,0.63,0.76,1.05,1.34,1.11c1.12,0.13,1.9-0.8,2.09-2.5
		C159.589,59.293,158.859,57.763,157.609,57.623z M135.819,57.853c-0.91,0.1-1.35,0.71-1.38,1.89l3.04-0.35
		C137.129,58.123,136.729,57.743,135.819,57.853z M178.869,62.573c-0.86-0.3-1.53,0.05-2.07,1.09l2.88,1.03
		C179.929,63.393,179.729,62.883,178.869,62.573z M157.609,57.623c-1.07-0.12-1.86,0.73-2.02,2.15c-0.11,1.06,0.01,2.13,0.34,2.95
		c0.25,0.63,0.76,1.05,1.34,1.11c1.12,0.13,1.9-0.8,2.09-2.5C159.589,59.293,158.859,57.763,157.609,57.623z M135.819,57.853
		c-0.91,0.1-1.35,0.71-1.38,1.89l3.04-0.35C137.129,58.123,136.729,57.743,135.819,57.853z M178.869,62.573
		c-0.86-0.3-1.53,0.05-2.07,1.09l2.88,1.03C179.929,63.393,179.729,62.883,178.869,62.573z M157.609,57.623
		c-1.07-0.12-1.86,0.73-2.02,2.15c-0.11,1.06,0.01,2.13,0.34,2.95c0.25,0.63,0.76,1.05,1.34,1.11c1.12,0.13,1.9-0.8,2.09-2.5
		C159.589,59.293,158.859,57.763,157.609,57.623z M135.819,57.853c-0.91,0.1-1.35,0.71-1.38,1.89l3.04-0.35
		C137.129,58.123,136.729,57.743,135.819,57.853z M157.609,57.623c-1.07-0.12-1.86,0.73-2.02,2.15c-0.11,1.06,0.01,2.13,0.34,2.95
		c0.25,0.63,0.76,1.05,1.34,1.11c1.12,0.13,1.9-0.8,2.09-2.5C159.589,59.293,158.859,57.763,157.609,57.623z M135.819,57.853
		c-0.91,0.1-1.35,0.71-1.38,1.89l3.04-0.35C137.129,58.123,136.729,57.743,135.819,57.853z M157.609,57.623
		c-1.07-0.12-1.86,0.73-2.02,2.15c-0.11,1.06,0.01,2.13,0.34,2.95c0.25,0.63,0.76,1.05,1.34,1.11c1.12,0.13,1.9-0.8,2.09-2.5
		C159.589,59.293,158.859,57.763,157.609,57.623z M135.819,57.853c-0.91,0.1-1.35,0.71-1.38,1.89l3.04-0.35
		C137.129,58.123,136.729,57.743,135.819,57.853z M135.819,57.853c-0.91,0.1-1.35,0.71-1.38,1.89l3.04-0.35
		C137.129,58.123,136.729,57.743,135.819,57.853z M135.819,57.853c-0.91,0.1-1.35,0.71-1.38,1.89l3.04-0.35
		C137.129,58.123,136.729,57.743,135.819,57.853z" />
	<g>
		<path fill="#FFCE00" d="M69.419,147.553l-1.32,0.96c0-0.32,0.01-0.64,0.02-0.96H69.419z" />
	</g>
</g>
</svg>
