<?xml version="1.0" encoding="utf-8"?><!-- Generator: Adobe Illustrator 17.0.0, SVG Export Plug-In . SVG Version: 6.00 Build 0)  -->
<!DOCTYPE svg PUBLIC "-//W3C//DTD SVG 1.1//EN" "http://www.w3.org/Graphics/SVG/1.1/DTD/svg11.dtd">
<svg version="1.1" id="Layer_1" xmlns="http://www.w3.org/2000/svg"
    xmlns:xlink="http://www.w3.org/1999/xlink" x="0px" y="0px" width="300px" height="300px"
    viewBox="0 0 300 300" enable-background="new 0 0 300 300" xml:space="preserve">
<g>
	<path fill="#33D33F" d="M219.6,69.948c-0.84-0.75-1.69-1.47-2.55-2.18c-18.21-15.06-41.56-24.1-67.04-24.1
		c-58.19,0-105.34,47.16-105.34,105.33s47.15,105.33,105.34,105.33c58.17,0,105.32-47.16,105.32-105.33
		C255.33,117.508,241.51,89.238,219.6,69.948z M70.93,147.508l-5.42,3.94l2.56,7.92l-6.74-4.89l-6.73,4.89l2.57-7.92l-6.74-4.9h8.33
		l2.57-7.92l2.59,7.92h8.33L70.93,147.508z M150.01,224.328c-41.62,0-75.34-33.72-75.34-75.33c0-41.61,33.72-75.33,75.34-75.33
		c19.31,0,36.92,7.26,50.25,19.23c1.18,1.03,2.32,2.12,3.42,3.25c13.39,13.59,21.65,32.25,21.65,52.85
		C225.33,190.608,191.61,224.328,150.01,224.328z M240,154.478l-6.75,4.89l2.58-7.92l-6.73-4.9h8.33l2.57-7.92l2.57,7.92h8.35
		l-6.75,4.9l2.57,7.92L240,154.478z" />
    <text transform="matrix(1 0 0 1 118.3458 183.614)" fill="#33D33F"
        font-family="'NotoSerif-Regular'" font-size="106.0191">Z</text>
    <path fill="#FFCE00" stroke="#FFCE00" stroke-miterlimit="10" d="M176.264,91.415l14.144,33.438c0,0,35.099-90.928,71.982-81.943
		c0,0-16.388-3.279-19.2-0.286c-2.812,2.993-14.969,6.772-36.63,40.036s-12.339,34.483-15.743,32.529L180.071,89.26l-5.167-2.803
		L176.264,91.415z" />
</g>
</svg>
