<?xml version="1.0" encoding="utf-8"?>
<!-- Generator: Adobe Illustrator 17.0.0, SVG Export Plug-In . SVG Version: 6.00 Build 0)  -->
<!DOCTYPE svg PUBLIC "-//W3C//DTD SVG 1.1//EN" "http://www.w3.org/Graphics/SVG/1.1/DTD/svg11.dtd">
<svg version="1.1" id="Layer_1" xmlns="http://www.w3.org/2000/svg" xmlns:xlink="http://www.w3.org/1999/xlink" x="0px" y="0px"
	 width="100px" height="50px" viewBox="0 0 100 50" enable-background="new 0 0 100 50" xml:space="preserve">
<g>
	<path fill="#4FC618" d="M31.268,35.624V25.493h-3.773v-1.353h9.084v1.353h-3.791v10.131H31.268z"/>
	<path fill="#4FC618" d="M38.516,35.652V24.167h1.149v4.718h4.496v-4.718h1.149v11.485h-1.149v-5.413h-4.496v5.413H38.516z"/>
	<polygon fill="#4FC618" points="55.074,33.484 55.074,35.789 47.312,35.789 47.312,16.214 54.841,16.214 54.841,18.519 
		48.695,18.519 48.695,24.524 50.122,24.524 50.122,26.818 48.695,26.818 48.695,33.484 	"/>
	<polygon fill="#4FC618" points="95.391,16.214 95.391,35.789 87.629,35.789 87.629,33.484 94.008,33.484 94.008,18.519 
		87.862,18.519 87.862,16.214 	"/>
	<polyline fill="none" points="94.008,30.148 94.008,26.818 94.008,24.524 94.008,23.027 	"/>
	<polyline fill="none" points="50.122,28.689 50.122,26.818 50.122,24.524 50.122,23.471 	"/>
	<g>
		<path fill="#349B0A" d="M23.111,20.608l0.857,0.43v-0.857L23.111,20.608z M23.969,24.367v-2.67l-8.606,4.284v2.572l4.879-2.408
			c0.088-0.042,0.143-0.064,0.165-0.064h0.066l0.066,0.064c0,0.024,0.011,0.045,0.032,0.066c0.024,0.024,0.035,0.045,0.035,0.066
			l-0.199,0.364l-5.044,8.306v2.639l8.606-4.287v-2.57l-5.012,2.471h-0.035c-0.088,0-0.13-0.066-0.13-0.196v-0.101L23.969,24.367z
			 M22.716,20.839h-3.101l-5.768,2.901v1.253l1.285,0.658l8.54-4.253v-0.066L22.716,20.839z M15.132,15.564l-1.285,0.626v1.285
			l5.901,2.936h2.835l1.088-0.528v-0.066L15.132,15.564z M7.649,20.839H4.583l-0.987,0.494v0.066l8.537,4.253l1.287-0.658V23.74
			L7.649,20.839z M12.132,15.564l-8.537,4.253v0.066l1.088,0.528h2.835l5.901-2.936v-1.285L12.132,15.564z M3.298,20.181v0.857
			l0.857-0.43L3.298,20.181z"/>
		<g>
			<g>
				<polygon fill="#349B0A" points="3.569,21.943 3.569,21.972 3.547,23.414 3.547,23.483 3.388,34.112 3.298,34.112 3.298,21.983 
					3.524,21.951 				"/>
			</g>
			<g>
				<polygon fill="#349B0A" points="12.106,26.233 12.106,27.157 11.859,27.674 11.145,27.313 10.577,27.027 3.627,23.525 
					3.547,23.483 3.298,23.358 3.298,21.994 3.569,21.957 3.603,21.951 3.654,21.975 11.585,25.973 				"/>
			</g>
			<g>
				<polygon fill="#349B0A" points="12.104,26.226 12.104,37.586 10.577,37.586 10.577,25.973 11.585,25.973 				"/>
			</g>
		</g>
		<g>
			<polygon fill="#349B0A" points="14.276,37.586 12.989,37.586 13.52,26.846 13.745,26.846 			"/>
		</g>
		<g>
			<path fill="#349B0A" stroke="#349B0A" stroke-width="0.5" stroke-miterlimit="10" d="M9.515,31.539v-4.343l-5.309-2.402v9.243
				l5.309,3.225v-4.415c0.042,0.008,0.088,0.013,0.133,0.013s0.09-0.005,0.133-0.013v4.648L9.579,37.61l-5.575-3.385L3.94,34.112
				V24.59l0.188-0.122l5.575,2.522l0.077,0.122v4.428c-0.042-0.008-0.088-0.013-0.133-0.013S9.557,31.532,9.515,31.539z"/>
		</g>
		<g>
			<path fill="#36B218" d="M9.613,32.423c-0.068-0.016-0.122-0.059-0.149-0.117c-0.003-0.004-0.004-0.008-0.005-0.012
				c0.057-0.011,0.105-0.053,0.119-0.113c0.014-0.059-0.011-0.12-0.059-0.155c0.003-0.003,0.006-0.004,0.009-0.007
				c0.049-0.04,0.119-0.057,0.187-0.041c0.073,0.017,0.131,0.067,0.157,0.129c-0.059,0.01-0.108,0.054-0.121,0.113
				c-0.014,0.061,0.01,0.121,0.059,0.156C9.758,32.42,9.686,32.44,9.613,32.423z"/>
			<path fill="#36B218" d="M9.544,32.174c-0.011,0.048-0.049,0.082-0.094,0.091c-0.002-0.003-0.004-0.005-0.004-0.01
				c-0.002-0.004-0.003-0.006-0.003-0.01c-0.003-0.01-0.006-0.021-0.007-0.031c-0.002-0.005-0.002-0.01-0.002-0.015
				c0.017-0.004,0.032-0.015,0.039-0.031c0.01-0.024,0.003-0.05-0.017-0.064c0.002-0.004,0.004-0.009,0.007-0.013
				c0.006-0.009,0.012-0.017,0.019-0.025c0.003-0.003,0.006-0.006,0.01-0.009c0.002-0.003,0.005-0.003,0.007-0.005
				C9.536,32.077,9.555,32.126,9.544,32.174z"/>
			<path fill="#36B218" d="M9.78,32.228c-0.011,0.048,0.008,0.095,0.045,0.122c0.003-0.002,0.006-0.003,0.008-0.007
				c0.004-0.002,0.005-0.004,0.007-0.007c0.007-0.007,0.015-0.016,0.02-0.024c0.004-0.004,0.006-0.008,0.009-0.013
				c-0.013-0.011-0.022-0.027-0.021-0.045c0.001-0.025,0.02-0.046,0.043-0.051c0-0.005,0-0.01-0.001-0.015
				c-0.002-0.011-0.003-0.021-0.006-0.031c-0.001-0.004-0.003-0.008-0.005-0.012c0-0.003-0.003-0.005-0.004-0.008
				C9.829,32.145,9.791,32.18,9.78,32.228z"/>
			<polygon fill="#09D121" points="9.52,32.027 9.511,32.034 9.518,32.026 			"/>
			<path fill="#09D121" d="M9.458,32.296c-0.003-0.004-0.003-0.01-0.004-0.014c0.001,0.006,0.003,0.01,0.006,0.012L9.458,32.296z"/>
		</g>
		<g>
			<path fill="#36B218" d="M13.637,26.302c-0.1,0-0.19-0.044-0.246-0.115c-0.005-0.005-0.008-0.01-0.01-0.015
				c0.077-0.033,0.131-0.108,0.131-0.198c0-0.087-0.054-0.164-0.133-0.198c0.003-0.005,0.008-0.008,0.01-0.013
				c0.056-0.072,0.149-0.118,0.249-0.118c0.108,0,0.205,0.051,0.262,0.131c-0.08,0.033-0.133,0.11-0.133,0.198
				c0,0.09,0.054,0.167,0.133,0.2C13.84,26.25,13.745,26.302,13.637,26.302z"/>
			<path fill="#36B218" d="M13.459,25.974c0,0.071-0.042,0.131-0.102,0.157c-0.003-0.003-0.008-0.006-0.009-0.013
				c-0.005-0.005-0.006-0.008-0.008-0.013c-0.008-0.013-0.016-0.027-0.02-0.041c-0.005-0.006-0.006-0.013-0.008-0.02
				c0.022-0.011,0.039-0.031,0.044-0.057c0.006-0.036-0.013-0.071-0.044-0.085c0.002-0.006,0.003-0.014,0.006-0.02
				c0.006-0.014,0.011-0.028,0.019-0.041c0.003-0.005,0.006-0.011,0.011-0.016c0.002-0.005,0.006-0.006,0.008-0.009
				C13.417,25.842,13.459,25.903,13.459,25.974z"/>
			<path fill="#36B218" d="M13.807,25.974c0,0.071,0.042,0.131,0.102,0.157c0.003-0.003,0.008-0.006,0.009-0.013
				c0.005-0.005,0.006-0.008,0.008-0.013c0.008-0.013,0.016-0.027,0.02-0.041c0.005-0.006,0.006-0.013,0.008-0.02
				c-0.022-0.011-0.039-0.031-0.044-0.057c-0.006-0.036,0.013-0.071,0.044-0.085c-0.002-0.006-0.003-0.014-0.006-0.02
				c-0.006-0.014-0.011-0.028-0.019-0.041c-0.003-0.005-0.006-0.011-0.011-0.016c-0.002-0.005-0.006-0.006-0.008-0.009
				C13.85,25.842,13.807,25.903,13.807,25.974z"/>
			<path fill="#09D121" d="M13.378,25.776c-0.003,0.005-0.008,0.008-0.01,0.013c0.003-0.005,0.005-0.008,0.008-0.013H13.378z"/>
			<path fill="#09D121" d="M13.378,26.173c-0.005-0.005-0.008-0.013-0.01-0.018c0.003,0.008,0.008,0.013,0.013,0.015L13.378,26.173z
				"/>
		</g>
		<g>
			<path fill="#349B0A" d="M8.924,32.001c-0.019,0.04-0.058,0.067-0.102,0.076c0.001-0.005,0.001-0.014,0.003-0.021
				c-0.004-0.031,0.002-0.065,0.011-0.099c0.011-0.042,0.026-0.077,0.047-0.113C8.931,31.879,8.95,31.943,8.924,32.001z"/>
			<path fill="#349B0A" d="M8.536,31.848c-0.024,0.039-0.057,0.074-0.094,0.096L8.23,31.857l-4.18-1.75l-0.024-0.013
				c-0.075-0.026-0.104-0.105-0.075-0.175c0.028-0.061,0.099-0.092,0.165-0.074c0.009,0,0.019,0.004,0.024,0.009l4.223,1.763
				l0.212,0.087C8.574,31.752,8.565,31.8,8.536,31.848z"/>
			<path fill="#349B0A" d="M8.881,31.844c-0.019,0.035-0.033,0.07-0.047,0.113c-0.009,0.035-0.014,0.065-0.009,0.1
				c0,0.004,0,0.013-0.005,0.017c-0.019,0.004-0.042,0.004-0.061,0c-0.005,0-0.014-0.004-0.024-0.009l-0.198-0.083
				c0.033-0.022,0.061-0.057,0.085-0.096c0.024-0.044,0.038-0.096,0.042-0.144l0.189,0.079C8.862,31.826,8.871,31.831,8.881,31.844z
				"/>
		</g>
	</g>
	<text transform="matrix(1 0 0 1 48.9227 32.3176)" fill="#349B0A" font-family="'Suruma'" font-size="17.7646">ZONE</text>
</g>
</svg>
