<?xml version="1.0" encoding="utf-8"?><!-- Generator: Adobe Illustrator 17.0.0, SVG Export Plug-In . SVG Version: 6.00 Build 0)  -->
<!DOCTYPE svg PUBLIC "-//W3C//DTD SVG 1.1//EN" "http://www.w3.org/Graphics/SVG/1.1/DTD/svg11.dtd">
<svg version="1.1" id="Layer_1" xmlns="http://www.w3.org/2000/svg"
    xmlns:xlink="http://www.w3.org/1999/xlink" x="0px" y="0px" width="300px" height="300px"
    viewBox="0 0 300 300" enable-background="new 0 0 300 300" xml:space="preserve">
<g>
	<path fill="#90F4CE" d="M132.79,143.853c-1-0.9-2.29-1.4-3.59-1.4c-1.53,0-2.9,0.61-4,1.82c-1.18,1.31-1.95,4.03-1.95,6.89
		c0,3.1,0.92,5.93,2.35,7.22c1.01,0.87,2.27,1.37,3.54,1.37c1.49,0,2.75-0.5,3.74-1.48c0.63-0.65,1.12-1.35,1.37-2.05
		c0.58-1.45,0.92-3.38,0.92-5.04C135.17,147.853,134.31,145.223,132.79,143.853z M132.79,143.853c-1-0.9-2.29-1.4-3.59-1.4
		c-1.53,0-2.9,0.61-4,1.82c-1.18,1.31-1.95,4.03-1.95,6.89c0,3.1,0.92,5.93,2.35,7.22c1.01,0.87,2.27,1.37,3.54,1.37
		c1.49,0,2.75-0.5,3.74-1.48c0.63-0.65,1.12-1.35,1.37-2.05c0.58-1.45,0.92-3.38,0.92-5.04
		C135.17,147.853,134.31,145.223,132.79,143.853z M132.79,143.853c-1-0.9-2.29-1.4-3.59-1.4c-1.53,0-2.9,0.61-4,1.82
		c-1.18,1.31-1.95,4.03-1.95,6.89c0,3.1,0.92,5.93,2.35,7.22c1.01,0.87,2.27,1.37,3.54,1.37c1.49,0,2.75-0.5,3.74-1.48
		c0.63-0.65,1.12-1.35,1.37-2.05c0.58-1.45,0.92-3.38,0.92-5.04C135.17,147.853,134.31,145.223,132.79,143.853z M190.07,142.873
		c-1.12,0-1.43,0.22-1.43,1.01v6.88c2.69-0.05,3.67-0.22,4.97-0.95c1.01-0.53,1.59-1.71,1.59-3.11
		C195.2,144.073,193.57,142.873,190.07,142.873z M190.07,142.873c-1.12,0-1.43,0.22-1.43,1.01v6.88c2.69-0.05,3.67-0.22,4.97-0.95
		c1.01-0.53,1.59-1.71,1.59-3.11C195.2,144.073,193.57,142.873,190.07,142.873z M132.79,143.853c-1-0.9-2.29-1.4-3.59-1.4
		c-1.53,0-2.9,0.61-4,1.82c-1.18,1.31-1.95,4.03-1.95,6.89c0,3.1,0.92,5.93,2.35,7.22c1.01,0.87,2.27,1.37,3.54,1.37
		c1.49,0,2.75-0.5,3.74-1.48c0.63-0.65,1.12-1.35,1.37-2.05c0.58-1.45,0.92-3.38,0.92-5.04
		C135.17,147.853,134.31,145.223,132.79,143.853z M132.79,143.853c-1-0.9-2.29-1.4-3.59-1.4c-1.53,0-2.9,0.61-4,1.82
		c-1.18,1.31-1.95,4.03-1.95,6.89c0,3.1,0.92,5.93,2.35,7.22c1.01,0.87,2.27,1.37,3.54,1.37c1.49,0,2.75-0.5,3.74-1.48
		c0.63-0.65,1.12-1.35,1.37-2.05c0.58-1.45,0.92-3.38,0.92-5.04C135.17,147.853,134.31,145.223,132.79,143.853z M190.07,142.873
		c-1.12,0-1.43,0.22-1.43,1.01v6.88c2.69-0.05,3.67-0.22,4.97-0.95c1.01-0.53,1.59-1.71,1.59-3.11
		C195.2,144.073,193.57,142.873,190.07,142.873z M190.07,142.873c-1.12,0-1.43,0.22-1.43,1.01v6.88c2.69-0.05,3.67-0.22,4.97-0.95
		c1.01-0.53,1.59-1.71,1.59-3.11C195.2,144.073,193.57,142.873,190.07,142.873z M132.79,143.853c-1-0.9-2.29-1.4-3.59-1.4
		c-1.53,0-2.9,0.61-4,1.82c-1.18,1.31-1.95,4.03-1.95,6.89c0,3.1,0.92,5.93,2.35,7.22c1.01,0.87,2.27,1.37,3.54,1.37
		c1.49,0,2.75-0.5,3.74-1.48c0.63-0.65,1.12-1.35,1.37-2.05c0.58-1.45,0.92-3.38,0.92-5.04
		C135.17,147.853,134.31,145.223,132.79,143.853z M132.79,143.853c-1-0.9-2.29-1.4-3.59-1.4c-1.53,0-2.9,0.61-4,1.82
		c-1.18,1.31-1.95,4.03-1.95,6.89c0,3.1,0.92,5.93,2.35,7.22c1.01,0.87,2.27,1.37,3.54,1.37c1.49,0,2.75-0.5,3.74-1.48
		c0.63-0.65,1.12-1.35,1.37-2.05c0.58-1.45,0.92-3.38,0.92-5.04C135.17,147.853,134.31,145.223,132.79,143.853z M190.07,142.873
		c-1.12,0-1.43,0.22-1.43,1.01v6.88c2.69-0.05,3.67-0.22,4.97-0.95c1.01-0.53,1.59-1.71,1.59-3.11
		C195.2,144.073,193.57,142.873,190.07,142.873z M190.07,142.873c-1.12,0-1.43,0.22-1.43,1.01v6.88c2.69-0.05,3.67-0.22,4.97-0.95
		c1.01-0.53,1.59-1.71,1.59-3.11C195.2,144.073,193.57,142.873,190.07,142.873z M132.79,143.853c-1-0.9-2.29-1.4-3.59-1.4
		c-1.53,0-2.9,0.61-4,1.82c-1.18,1.31-1.95,4.03-1.95,6.89c0,3.1,0.92,5.93,2.35,7.22c1.01,0.87,2.27,1.37,3.54,1.37
		c1.49,0,2.75-0.5,3.74-1.48c0.63-0.65,1.12-1.35,1.37-2.05c0.58-1.45,0.92-3.38,0.92-5.04
		C135.17,147.853,134.31,145.223,132.79,143.853z M132.79,143.853c-1-0.9-2.29-1.4-3.59-1.4c-1.53,0-2.9,0.61-4,1.82
		c-1.18,1.31-1.95,4.03-1.95,6.89c0,3.1,0.92,5.93,2.35,7.22c1.01,0.87,2.27,1.37,3.54,1.37c1.49,0,2.75-0.5,3.74-1.48
		c0.63-0.65,1.12-1.35,1.37-2.05c0.58-1.45,0.92-3.38,0.92-5.04C135.17,147.853,134.31,145.223,132.79,143.853z M190.07,142.873
		c-1.12,0-1.43,0.22-1.43,1.01v6.88c2.69-0.05,3.67-0.22,4.97-0.95c1.01-0.53,1.59-1.71,1.59-3.11
		C195.2,144.073,193.57,142.873,190.07,142.873z M190.07,142.873c-1.12,0-1.43,0.22-1.43,1.01v6.88c2.69-0.05,3.67-0.22,4.97-0.95
		c1.01-0.53,1.59-1.71,1.59-3.11C195.2,144.073,193.57,142.873,190.07,142.873z M132.79,143.853c-1-0.9-2.29-1.4-3.59-1.4
		c-1.53,0-2.9,0.61-4,1.82c-1.18,1.31-1.95,4.03-1.95,6.89c0,3.1,0.92,5.93,2.35,7.22c1.01,0.87,2.27,1.37,3.54,1.37
		c1.49,0,2.75-0.5,3.74-1.48c0.63-0.65,1.12-1.35,1.37-2.05c0.58-1.45,0.92-3.38,0.92-5.04
		C135.17,147.853,134.31,145.223,132.79,143.853z M132.79,143.853c-1-0.9-2.29-1.4-3.59-1.4c-1.53,0-2.9,0.61-4,1.82
		c-1.18,1.31-1.95,4.03-1.95,6.89c0,3.1,0.92,5.93,2.35,7.22c1.01,0.87,2.27,1.37,3.54,1.37c1.49,0,2.75-0.5,3.74-1.48
		c0.63-0.65,1.12-1.35,1.37-2.05c0.58-1.45,0.92-3.38,0.92-5.04C135.17,147.853,134.31,145.223,132.79,143.853z M190.07,142.873
		c-1.12,0-1.43,0.22-1.43,1.01v6.88c2.69-0.05,3.67-0.22,4.97-0.95c1.01-0.53,1.59-1.71,1.59-3.11
		C195.2,144.073,193.57,142.873,190.07,142.873z M190.07,142.873c-1.12,0-1.43,0.22-1.43,1.01v6.88c2.69-0.05,3.67-0.22,4.97-0.95
		c1.01-0.53,1.59-1.71,1.59-3.11C195.2,144.073,193.57,142.873,190.07,142.873z M132.79,143.853c-1-0.9-2.29-1.4-3.59-1.4
		c-1.53,0-2.9,0.61-4,1.82c-1.18,1.31-1.95,4.03-1.95,6.89c0,3.1,0.92,5.93,2.35,7.22c1.01,0.87,2.27,1.37,3.54,1.37
		c1.49,0,2.75-0.5,3.74-1.48c0.63-0.65,1.12-1.35,1.37-2.05c0.58-1.45,0.92-3.38,0.92-5.04
		C135.17,147.853,134.31,145.223,132.79,143.853z M132.79,143.853c-1-0.9-2.29-1.4-3.59-1.4c-1.53,0-2.9,0.61-4,1.82
		c-1.18,1.31-1.95,4.03-1.95,6.89c0,3.1,0.92,5.93,2.35,7.22c1.01,0.87,2.27,1.37,3.54,1.37c1.49,0,2.75-0.5,3.74-1.48
		c0.63-0.65,1.12-1.35,1.37-2.05c0.58-1.45,0.92-3.38,0.92-5.04C135.17,147.853,134.31,145.223,132.79,143.853z M146.32,106.973
		c-2.01,0-3.45,0.19-4.12,0.38v11.81h4.27c4.46,0,7.29-2.45,7.29-6.15C153.76,108.843,150.74,107.013,146.32,106.973z
		 M176.9,106.873c-6.91,0-10.37,6.38-10.37,13.49c0,6.91,3.74,13.1,10.32,13.1c6.63,0,10.37-6.09,10.37-13.44
		C187.22,113.593,183.86,106.873,176.9,106.873z M190.07,142.873c-1.12,0-1.43,0.22-1.43,1.01v6.88c2.69-0.05,3.67-0.22,4.97-0.95
		c1.01-0.53,1.59-1.71,1.59-3.11C195.2,144.073,193.57,142.873,190.07,142.873z M190.07,142.873c-1.12,0-1.43,0.22-1.43,1.01v6.88
		c2.69-0.05,3.67-0.22,4.97-0.95c1.01-0.53,1.59-1.71,1.59-3.11C195.2,144.073,193.57,142.873,190.07,142.873z M176.9,106.873
		c-6.91,0-10.37,6.38-10.37,13.49c0,6.91,3.74,13.1,10.32,13.1c6.63,0,10.37-6.09,10.37-13.44
		C187.22,113.593,183.86,106.873,176.9,106.873z M132.79,143.853c-1-0.9-2.29-1.4-3.59-1.4c-1.53,0-2.9,0.61-4,1.82
		c-1.18,1.31-1.95,4.03-1.95,6.89c0,3.1,0.92,5.93,2.35,7.22c1.01,0.87,2.27,1.37,3.54,1.37c1.49,0,2.75-0.5,3.74-1.48
		c0.63-0.65,1.12-1.35,1.37-2.05c0.58-1.45,0.92-3.38,0.92-5.04C135.17,147.853,134.31,145.223,132.79,143.853z M146.32,106.973
		c-2.01,0-3.45,0.19-4.12,0.38v11.81h4.27c4.46,0,7.29-2.45,7.29-6.15C153.76,108.843,150.74,107.013,146.32,106.973z
		 M120.6,107.063c-1.83,0-3.22,0.15-3.94,0.34v12.58c0.91,0.24,2.06,0.33,3.46,0.33c5.04,0,8.11-2.45,8.11-6.91
		C128.23,109.133,125.2,107.063,120.6,107.063z M132.79,143.853c-1-0.9-2.29-1.4-3.59-1.4c-1.53,0-2.9,0.61-4,1.82
		c-1.18,1.31-1.95,4.03-1.95,6.89c0,3.1,0.92,5.93,2.35,7.22c1.01,0.87,2.27,1.37,3.54,1.37c1.49,0,2.75-0.5,3.74-1.48
		c0.63-0.65,1.12-1.35,1.37-2.05c0.58-1.45,0.92-3.38,0.92-5.04C135.17,147.853,134.31,145.223,132.79,143.853z M146.32,106.973
		c-2.01,0-3.45,0.19-4.12,0.38v11.81h4.27c4.46,0,7.29-2.45,7.29-6.15C153.76,108.843,150.74,107.013,146.32,106.973z
		 M176.9,106.873c-6.91,0-10.37,6.38-10.37,13.49c0,6.91,3.74,13.1,10.32,13.1c6.63,0,10.37-6.09,10.37-13.44
		C187.22,113.593,183.86,106.873,176.9,106.873z M190.07,142.873c-1.12,0-1.43,0.22-1.43,1.01v6.88c2.69-0.05,3.67-0.22,4.97-0.95
		c1.01-0.53,1.59-1.71,1.59-3.11C195.2,144.073,193.57,142.873,190.07,142.873z M190.07,142.873c-1.12,0-1.43,0.22-1.43,1.01v6.88
		c2.69-0.05,3.67-0.22,4.97-0.95c1.01-0.53,1.59-1.71,1.59-3.11C195.2,144.073,193.57,142.873,190.07,142.873z M176.9,106.873
		c-6.91,0-10.37,6.38-10.37,13.49c0,6.91,3.74,13.1,10.32,13.1c6.63,0,10.37-6.09,10.37-13.44
		C187.22,113.593,183.86,106.873,176.9,106.873z M120.6,107.063c-1.83,0-3.22,0.15-3.94,0.34v12.58c0.91,0.24,2.06,0.33,3.46,0.33
		c5.04,0,8.11-2.45,8.11-6.91C128.23,109.133,125.2,107.063,120.6,107.063z M132.79,143.853c-1-0.9-2.29-1.4-3.59-1.4
		c-1.53,0-2.9,0.61-4,1.82c-1.18,1.31-1.95,4.03-1.95,6.89c0,3.1,0.92,5.93,2.35,7.22c1.01,0.87,2.27,1.37,3.54,1.37
		c1.49,0,2.75-0.5,3.74-1.48c0.63-0.65,1.12-1.35,1.37-2.05c0.58-1.45,0.92-3.38,0.92-5.04
		C135.17,147.853,134.31,145.223,132.79,143.853z M146.32,106.973c-2.01,0-3.45,0.19-4.12,0.38v11.81h4.27
		c4.46,0,7.29-2.45,7.29-6.15C153.76,108.843,150.74,107.013,146.32,106.973z M120.6,107.063c-1.83,0-3.22,0.15-3.94,0.34v12.58
		c0.91,0.24,2.06,0.33,3.46,0.33c5.04,0,8.11-2.45,8.11-6.91C128.23,109.133,125.2,107.063,120.6,107.063z M132.79,143.853
		c-1-0.9-2.29-1.4-3.59-1.4c-1.53,0-2.9,0.61-4,1.82c-1.18,1.31-1.95,4.03-1.95,6.89c0,3.1,0.92,5.93,2.35,7.22
		c1.01,0.87,2.27,1.37,3.54,1.37c1.49,0,2.75-0.5,3.74-1.48c0.63-0.65,1.12-1.35,1.37-2.05c0.58-1.45,0.92-3.38,0.92-5.04
		C135.17,147.853,134.31,145.223,132.79,143.853z M146.32,106.973c-2.01,0-3.45,0.19-4.12,0.38v11.81h4.27
		c4.46,0,7.29-2.45,7.29-6.15C153.76,108.843,150.74,107.013,146.32,106.973z M176.9,106.873c-6.91,0-10.37,6.38-10.37,13.49
		c0,6.91,3.74,13.1,10.32,13.1c6.63,0,10.37-6.09,10.37-13.44C187.22,113.593,183.86,106.873,176.9,106.873z M190.07,142.873
		c-1.12,0-1.43,0.22-1.43,1.01v6.88c2.69-0.05,3.67-0.22,4.97-0.95c1.01-0.53,1.59-1.71,1.59-3.11
		C195.2,144.073,193.57,142.873,190.07,142.873z M190.07,142.873c-1.12,0-1.43,0.22-1.43,1.01v6.88c2.69-0.05,3.67-0.22,4.97-0.95
		c1.01-0.53,1.59-1.71,1.59-3.11C195.2,144.073,193.57,142.873,190.07,142.873z M176.9,106.873c-6.91,0-10.37,6.38-10.37,13.49
		c0,6.91,3.74,13.1,10.32,13.1c6.63,0,10.37-6.09,10.37-13.44C187.22,113.593,183.86,106.873,176.9,106.873z M120.6,107.063
		c-1.83,0-3.22,0.15-3.94,0.34v12.58c0.91,0.24,2.06,0.33,3.46,0.33c5.04,0,8.11-2.45,8.11-6.91
		C128.23,109.133,125.2,107.063,120.6,107.063z M132.79,143.853c-1-0.9-2.29-1.4-3.59-1.4c-1.53,0-2.9,0.61-4,1.82
		c-1.18,1.31-1.95,4.03-1.95,6.89c0,3.1,0.92,5.93,2.35,7.22c1.01,0.87,2.27,1.37,3.54,1.37c1.49,0,2.75-0.5,3.74-1.48
		c0.63-0.65,1.12-1.35,1.37-2.05c0.58-1.45,0.92-3.38,0.92-5.04C135.17,147.853,134.31,145.223,132.79,143.853z M146.32,106.973
		c-2.01,0-3.45,0.19-4.12,0.38v11.81h4.27c4.46,0,7.29-2.45,7.29-6.15C153.76,108.843,150.74,107.013,146.32,106.973z
		 M120.6,107.063c-1.83,0-3.22,0.15-3.94,0.34v12.58c0.91,0.24,2.06,0.33,3.46,0.33c5.04,0,8.11-2.45,8.11-6.91
		C128.23,109.133,125.2,107.063,120.6,107.063z M132.79,143.853c-1-0.9-2.29-1.4-3.59-1.4c-1.53,0-2.9,0.61-4,1.82
		c-1.18,1.31-1.95,4.03-1.95,6.89c0,3.1,0.92,5.93,2.35,7.22c1.01,0.87,2.27,1.37,3.54,1.37c1.49,0,2.75-0.5,3.74-1.48
		c0.63-0.65,1.12-1.35,1.37-2.05c0.58-1.45,0.92-3.38,0.92-5.04C135.17,147.853,134.31,145.223,132.79,143.853z M146.32,106.973
		c-2.01,0-3.45,0.19-4.12,0.38v11.81h4.27c4.46,0,7.29-2.45,7.29-6.15C153.76,108.843,150.74,107.013,146.32,106.973z
		 M176.9,106.873c-6.91,0-10.37,6.38-10.37,13.49c0,6.91,3.74,13.1,10.32,13.1c6.63,0,10.37-6.09,10.37-13.44
		C187.22,113.593,183.86,106.873,176.9,106.873z M190.07,142.873c-1.12,0-1.43,0.22-1.43,1.01v6.88c2.69-0.05,3.67-0.22,4.97-0.95
		c1.01-0.53,1.59-1.71,1.59-3.11C195.2,144.073,193.57,142.873,190.07,142.873z M190.07,142.873c-1.12,0-1.43,0.22-1.43,1.01v6.88
		c2.69-0.05,3.67-0.22,4.97-0.95c1.01-0.53,1.59-1.71,1.59-3.11C195.2,144.073,193.57,142.873,190.07,142.873z M176.9,106.873
		c-6.91,0-10.37,6.38-10.37,13.49c0,6.91,3.74,13.1,10.32,13.1c6.63,0,10.37-6.09,10.37-13.44
		C187.22,113.593,183.86,106.873,176.9,106.873z M120.6,107.063c-1.83,0-3.22,0.15-3.94,0.34v12.58c0.91,0.24,2.06,0.33,3.46,0.33
		c5.04,0,8.11-2.45,8.11-6.91C128.23,109.133,125.2,107.063,120.6,107.063z M132.79,143.853c-1-0.9-2.29-1.4-3.59-1.4
		c-1.53,0-2.9,0.61-4,1.82c-1.18,1.31-1.95,4.03-1.95,6.89c0,3.1,0.92,5.93,2.35,7.22c1.01,0.87,2.27,1.37,3.54,1.37
		c1.49,0,2.75-0.5,3.74-1.48c0.63-0.65,1.12-1.35,1.37-2.05c0.58-1.45,0.92-3.38,0.92-5.04
		C135.17,147.853,134.31,145.223,132.79,143.853z M146.32,106.973c-2.01,0-3.45,0.19-4.12,0.38v11.81h4.27
		c4.46,0,7.29-2.45,7.29-6.15C153.76,108.843,150.74,107.013,146.32,106.973z M120.6,107.063c-1.83,0-3.22,0.15-3.94,0.34v12.58
		c0.91,0.24,2.06,0.33,3.46,0.33c5.04,0,8.11-2.45,8.11-6.91C128.23,109.133,125.2,107.063,120.6,107.063z M132.79,143.853
		c-1-0.9-2.29-1.4-3.59-1.4c-1.53,0-2.9,0.61-4,1.82c-1.18,1.31-1.95,4.03-1.95,6.89c0,3.1,0.92,5.93,2.35,7.22
		c1.01,0.87,2.27,1.37,3.54,1.37c1.49,0,2.75-0.5,3.74-1.48c0.63-0.65,1.12-1.35,1.37-2.05c0.58-1.45,0.92-3.38,0.92-5.04
		C135.17,147.853,134.31,145.223,132.79,143.853z M146.32,106.973c-2.01,0-3.45,0.19-4.12,0.38v11.81h4.27
		c4.46,0,7.29-2.45,7.29-6.15C153.76,108.843,150.74,107.013,146.32,106.973z M176.9,106.873c-6.91,0-10.37,6.38-10.37,13.49
		c0,6.91,3.74,13.1,10.32,13.1c6.63,0,10.37-6.09,10.37-13.44C187.22,113.593,183.86,106.873,176.9,106.873z M190.07,142.873
		c-1.12,0-1.43,0.22-1.43,1.01v6.88c2.69-0.05,3.67-0.22,4.97-0.95c1.01-0.53,1.59-1.71,1.59-3.11
		C195.2,144.073,193.57,142.873,190.07,142.873z M190.07,142.873c-1.12,0-1.43,0.22-1.43,1.01v6.88c2.69-0.05,3.67-0.22,4.97-0.95
		c1.01-0.53,1.59-1.71,1.59-3.11C195.2,144.073,193.57,142.873,190.07,142.873z M176.9,106.873c-6.91,0-10.37,6.38-10.37,13.49
		c0,6.91,3.74,13.1,10.32,13.1c6.63,0,10.37-6.09,10.37-13.44C187.22,113.593,183.86,106.873,176.9,106.873z M120.6,107.063
		c-1.83,0-3.22,0.15-3.94,0.34v12.58c0.91,0.24,2.06,0.33,3.46,0.33c5.04,0,8.11-2.45,8.11-6.91
		C128.23,109.133,125.2,107.063,120.6,107.063z M132.79,143.853c-1-0.9-2.29-1.4-3.59-1.4c-1.53,0-2.9,0.61-4,1.82
		c-1.18,1.31-1.95,4.03-1.95,6.89c0,3.1,0.92,5.93,2.35,7.22c1.01,0.87,2.27,1.37,3.54,1.37c1.49,0,2.75-0.5,3.74-1.48
		c0.63-0.65,1.12-1.35,1.37-2.05c0.58-1.45,0.92-3.38,0.92-5.04C135.17,147.853,134.31,145.223,132.79,143.853z M146.32,106.973
		c-2.01,0-3.45,0.19-4.12,0.38v11.81h4.27c4.46,0,7.29-2.45,7.29-6.15C153.76,108.843,150.74,107.013,146.32,106.973z
		 M150.01,70.903c-42.88,0-77.77,34.09-79.07,76.65c0,0.32-0.01,0.64-0.01,0.96c-0.03,0.49-0.03,0.99-0.03,1.49
		c0,6.83,0.87,13.46,2.5,19.79c0.05,0.22,0.11,0.45,0.18,0.67c9.01,33.76,39.82,58.63,76.43,58.63c36.64,0,67.46-24.93,76.44-58.74
		c0.06-0.19,0.1-0.37,0.15-0.56c0.03-0.11,0.06-0.23,0.09-0.34c0.1-0.39,0.19-0.77,0.28-1.16c1.39-5.87,2.13-11.99,2.13-18.29
		C229.1,106.313,193.68,70.903,150.01,70.903z M148.32,159.843v0.53h-6.57v-0.53c2.3-0.14,2.65-0.62,2.71-3.59v-12.35
		c-1.11-1.31-1.51-1.54-2.71-1.54v-0.53h4.79l10.78,13.55v-9.43c-0.08-2.97-0.45-3.45-2.69-3.59v-0.53h6.57v0.53
		c-2.2,0.2-2.57,0.68-2.65,3.59v14.73h-0.48l-12.38-15.4v10.97C145.76,159.143,146.18,159.723,148.32,159.843z M156.6,127.463
		c1.05,4.52,1.82,7.64,2.49,8.88h-4.32c-0.53-0.91-1.25-3.69-2.16-7.72c-0.96-4.47-2.69-6.15-6.48-6.29h-3.93v14.01h-4.18v-31.92
		c2.11-0.43,5.14-0.67,8.02-0.67c4.46,0,7.34,0.82,9.36,2.64c1.63,1.44,2.54,3.65,2.54,6.14c0,4.28-2.69,7.11-6.1,8.26v0.15
		C154.34,121.803,155.83,124.103,156.6,127.463z M129.2,141.443c2.69,0,5.05,1.01,6.81,2.94c1.54,1.65,2.36,4.06,2.36,6.83
		c0,5.66-3.81,9.55-9.33,9.55c-2.47,0-4.96-1.09-6.59-2.86c-1.51-1.59-2.4-4.17-2.4-6.8
		C120.05,145.443,123.86,141.443,129.2,141.443z M120.02,123.673c-1.25,0-2.4-0.05-3.36-0.29v12.96h-4.18v-31.97
		c2.02-0.33,4.66-0.62,8.02-0.62c4.13,0,7.15,0.96,9.07,2.69c1.78,1.53,2.83,3.89,2.83,6.77c0,2.92-0.86,5.23-2.49,6.91
		C127.7,122.473,124.1,123.673,120.02,123.673z M100.26,159.953l12.23-17.05h-6.18c-3.23,0.08-4.24,0.89-4.71,3.72h-0.73l0.56-4.79
		h14.72v0.42l-12.08,17.05h7.19c3.03-0.11,3.98-0.86,4.81-3.86h0.64l-0.66,4.93h-15.79V159.953z M164.07,142.363v-0.53h14.86
		l0.08,4.01h-0.7c-0.44-2.5-1.01-2.89-4.24-2.94h-3.78c-0.79,0-0.91,0.11-0.93,0.95v6.21h4.31c2.35-0.05,2.75-0.39,3.07-2.66h0.65
		v6.5h-0.65c-0.36-2.3-0.72-2.63-3.07-2.69h-4.31v6.92c0,1.09,0.02,1.12,2.94,1.2h0.76c3.99-0.03,5.25-0.73,6.61-3.69h0.77
		l-1.26,4.73h-15.11v-0.53c2.01-0.12,2.37-0.51,2.44-2.52v-12.44C166.44,142.873,166.11,142.503,164.07,142.363z M176.61,136.873
		c-8.54,0-14.54-6.62-14.54-16.42c0-10.27,6.38-16.99,15.02-16.99c8.83,0,14.55,6.77,14.55,16.37
		C191.64,130.973,184.87,136.873,176.61,136.873z M201.38,160.373h-4.51l-6.66-8.63l-1.57,0.06v5.52c0.04,2.04,0.37,2.38,2.53,2.52
		v0.53h-7.75v-0.53c2.09-0.17,2.34-0.45,2.38-2.83v-12.13c-0.04-2.04-0.31-2.29-2.38-2.52v-0.53h7.72c2.6,0,4.96,0.73,6.03,1.88
		c0.71,0.81,1.08,1.85,1.08,3.05c0,2.58-1.51,3.98-5.07,4.68l5.77,7.08c0.81,0.95,1.37,1.23,2.43,1.32V160.373z M195.2,146.703
		c0-2.63-1.63-3.83-5.13-3.83c-1.12,0-1.43,0.22-1.43,1.01v6.88c2.69-0.05,3.67-0.22,4.97-0.95
		C194.62,149.283,195.2,148.103,195.2,146.703z M176.9,106.873c-6.91,0-10.37,6.38-10.37,13.49c0,6.91,3.74,13.1,10.32,13.1
		c6.63,0,10.37-6.09,10.37-13.44C187.22,113.593,183.86,106.873,176.9,106.873z M153.76,113.013c0-4.17-3.02-6-7.44-6.04
		c-2.01,0-3.45,0.19-4.12,0.38v11.81h4.27C150.93,119.163,153.76,116.713,153.76,113.013z M129.14,159.753
		c1.49,0,2.75-0.5,3.74-1.48c0.63-0.65,1.12-1.35,1.37-2.05c0.58-1.45,0.92-3.38,0.92-5.04c0-3.33-0.86-5.96-2.38-7.33
		c-1-0.9-2.29-1.4-3.59-1.4c-1.53,0-2.9,0.61-4,1.82c-1.18,1.31-1.95,4.03-1.95,6.89c0,3.1,0.92,5.93,2.35,7.22
		C126.61,159.253,127.87,159.753,129.14,159.753z M120.6,107.063c-1.83,0-3.22,0.15-3.94,0.34v12.58c0.91,0.24,2.06,0.33,3.46,0.33
		c5.04,0,8.11-2.45,8.11-6.91C128.23,109.133,125.2,107.063,120.6,107.063z M146.32,106.973c-2.01,0-3.45,0.19-4.12,0.38v11.81h4.27
		c4.46,0,7.29-2.45,7.29-6.15C153.76,108.843,150.74,107.013,146.32,106.973z M132.79,143.853c-1-0.9-2.29-1.4-3.59-1.4
		c-1.53,0-2.9,0.61-4,1.82c-1.18,1.31-1.95,4.03-1.95,6.89c0,3.1,0.92,5.93,2.35,7.22c1.01,0.87,2.27,1.37,3.54,1.37
		c1.49,0,2.75-0.5,3.74-1.48c0.63-0.65,1.12-1.35,1.37-2.05c0.58-1.45,0.92-3.38,0.92-5.04
		C135.17,147.853,134.31,145.223,132.79,143.853z M120.6,107.063c-1.83,0-3.22,0.15-3.94,0.34v12.58c0.91,0.24,2.06,0.33,3.46,0.33
		c5.04,0,8.11-2.45,8.11-6.91C128.23,109.133,125.2,107.063,120.6,107.063z M176.9,106.873c-6.91,0-10.37,6.38-10.37,13.49
		c0,6.91,3.74,13.1,10.32,13.1c6.63,0,10.37-6.09,10.37-13.44C187.22,113.593,183.86,106.873,176.9,106.873z M190.07,142.873
		c-1.12,0-1.43,0.22-1.43,1.01v6.88c2.69-0.05,3.67-0.22,4.97-0.95c1.01-0.53,1.59-1.71,1.59-3.11
		C195.2,144.073,193.57,142.873,190.07,142.873z M190.07,142.873c-1.12,0-1.43,0.22-1.43,1.01v6.88c2.69-0.05,3.67-0.22,4.97-0.95
		c1.01-0.53,1.59-1.71,1.59-3.11C195.2,144.073,193.57,142.873,190.07,142.873z M176.9,106.873c-6.91,0-10.37,6.38-10.37,13.49
		c0,6.91,3.74,13.1,10.32,13.1c6.63,0,10.37-6.09,10.37-13.44C187.22,113.593,183.86,106.873,176.9,106.873z M146.32,106.973
		c-2.01,0-3.45,0.19-4.12,0.38v11.81h4.27c4.46,0,7.29-2.45,7.29-6.15C153.76,108.843,150.74,107.013,146.32,106.973z
		 M132.79,143.853c-1-0.9-2.29-1.4-3.59-1.4c-1.53,0-2.9,0.61-4,1.82c-1.18,1.31-1.95,4.03-1.95,6.89c0,3.1,0.92,5.93,2.35,7.22
		c1.01,0.87,2.27,1.37,3.54,1.37c1.49,0,2.75-0.5,3.74-1.48c0.63-0.65,1.12-1.35,1.37-2.05c0.58-1.45,0.92-3.38,0.92-5.04
		C135.17,147.853,134.31,145.223,132.79,143.853z M120.6,107.063c-1.83,0-3.22,0.15-3.94,0.34v12.58c0.91,0.24,2.06,0.33,3.46,0.33
		c5.04,0,8.11-2.45,8.11-6.91C128.23,109.133,125.2,107.063,120.6,107.063z M146.32,106.973c-2.01,0-3.45,0.19-4.12,0.38v11.81h4.27
		c4.46,0,7.29-2.45,7.29-6.15C153.76,108.843,150.74,107.013,146.32,106.973z M132.79,143.853c-1-0.9-2.29-1.4-3.59-1.4
		c-1.53,0-2.9,0.61-4,1.82c-1.18,1.31-1.95,4.03-1.95,6.89c0,3.1,0.92,5.93,2.35,7.22c1.01,0.87,2.27,1.37,3.54,1.37
		c1.49,0,2.75-0.5,3.74-1.48c0.63-0.65,1.12-1.35,1.37-2.05c0.58-1.45,0.92-3.38,0.92-5.04
		C135.17,147.853,134.31,145.223,132.79,143.853z M120.6,107.063c-1.83,0-3.22,0.15-3.94,0.34v12.58c0.91,0.24,2.06,0.33,3.46,0.33
		c5.04,0,8.11-2.45,8.11-6.91C128.23,109.133,125.2,107.063,120.6,107.063z M176.9,106.873c-6.91,0-10.37,6.38-10.37,13.49
		c0,6.91,3.74,13.1,10.32,13.1c6.63,0,10.37-6.09,10.37-13.44C187.22,113.593,183.86,106.873,176.9,106.873z M190.07,142.873
		c-1.12,0-1.43,0.22-1.43,1.01v6.88c2.69-0.05,3.67-0.22,4.97-0.95c1.01-0.53,1.59-1.71,1.59-3.11
		C195.2,144.073,193.57,142.873,190.07,142.873z M190.07,142.873c-1.12,0-1.43,0.22-1.43,1.01v6.88c2.69-0.05,3.67-0.22,4.97-0.95
		c1.01-0.53,1.59-1.71,1.59-3.11C195.2,144.073,193.57,142.873,190.07,142.873z M176.9,106.873c-6.91,0-10.37,6.38-10.37,13.49
		c0,6.91,3.74,13.1,10.32,13.1c6.63,0,10.37-6.09,10.37-13.44C187.22,113.593,183.86,106.873,176.9,106.873z M146.32,106.973
		c-2.01,0-3.45,0.19-4.12,0.38v11.81h4.27c4.46,0,7.29-2.45,7.29-6.15C153.76,108.843,150.74,107.013,146.32,106.973z
		 M132.79,143.853c-1-0.9-2.29-1.4-3.59-1.4c-1.53,0-2.9,0.61-4,1.82c-1.18,1.31-1.95,4.03-1.95,6.89c0,3.1,0.92,5.93,2.35,7.22
		c1.01,0.87,2.27,1.37,3.54,1.37c1.49,0,2.75-0.5,3.74-1.48c0.63-0.65,1.12-1.35,1.37-2.05c0.58-1.45,0.92-3.38,0.92-5.04
		C135.17,147.853,134.31,145.223,132.79,143.853z M120.6,107.063c-1.83,0-3.22,0.15-3.94,0.34v12.58c0.91,0.24,2.06,0.33,3.46,0.33
		c5.04,0,8.11-2.45,8.11-6.91C128.23,109.133,125.2,107.063,120.6,107.063z M146.32,106.973c-2.01,0-3.45,0.19-4.12,0.38v11.81h4.27
		c4.46,0,7.29-2.45,7.29-6.15C153.76,108.843,150.74,107.013,146.32,106.973z M132.79,143.853c-1-0.9-2.29-1.4-3.59-1.4
		c-1.53,0-2.9,0.61-4,1.82c-1.18,1.31-1.95,4.03-1.95,6.89c0,3.1,0.92,5.93,2.35,7.22c1.01,0.87,2.27,1.37,3.54,1.37
		c1.49,0,2.75-0.5,3.74-1.48c0.63-0.65,1.12-1.35,1.37-2.05c0.58-1.45,0.92-3.38,0.92-5.04
		C135.17,147.853,134.31,145.223,132.79,143.853z M120.6,107.063c-1.83,0-3.22,0.15-3.94,0.34v12.58c0.91,0.24,2.06,0.33,3.46,0.33
		c5.04,0,8.11-2.45,8.11-6.91C128.23,109.133,125.2,107.063,120.6,107.063z M176.9,106.873c-6.91,0-10.37,6.38-10.37,13.49
		c0,6.91,3.74,13.1,10.32,13.1c6.63,0,10.37-6.09,10.37-13.44C187.22,113.593,183.86,106.873,176.9,106.873z M190.07,142.873
		c-1.12,0-1.43,0.22-1.43,1.01v6.88c2.69-0.05,3.67-0.22,4.97-0.95c1.01-0.53,1.59-1.71,1.59-3.11
		C195.2,144.073,193.57,142.873,190.07,142.873z M190.07,142.873c-1.12,0-1.43,0.22-1.43,1.01v6.88c2.69-0.05,3.67-0.22,4.97-0.95
		c1.01-0.53,1.59-1.71,1.59-3.11C195.2,144.073,193.57,142.873,190.07,142.873z M176.9,106.873c-6.91,0-10.37,6.38-10.37,13.49
		c0,6.91,3.74,13.1,10.32,13.1c6.63,0,10.37-6.09,10.37-13.44C187.22,113.593,183.86,106.873,176.9,106.873z M146.32,106.973
		c-2.01,0-3.45,0.19-4.12,0.38v11.81h4.27c4.46,0,7.29-2.45,7.29-6.15C153.76,108.843,150.74,107.013,146.32,106.973z
		 M132.79,143.853c-1-0.9-2.29-1.4-3.59-1.4c-1.53,0-2.9,0.61-4,1.82c-1.18,1.31-1.95,4.03-1.95,6.89c0,3.1,0.92,5.93,2.35,7.22
		c1.01,0.87,2.27,1.37,3.54,1.37c1.49,0,2.75-0.5,3.74-1.48c0.63-0.65,1.12-1.35,1.37-2.05c0.58-1.45,0.92-3.38,0.92-5.04
		C135.17,147.853,134.31,145.223,132.79,143.853z M120.6,107.063c-1.83,0-3.22,0.15-3.94,0.34v12.58c0.91,0.24,2.06,0.33,3.46,0.33
		c5.04,0,8.11-2.45,8.11-6.91C128.23,109.133,125.2,107.063,120.6,107.063z M146.32,106.973c-2.01,0-3.45,0.19-4.12,0.38v11.81h4.27
		c4.46,0,7.29-2.45,7.29-6.15C153.76,108.843,150.74,107.013,146.32,106.973z M132.79,143.853c-1-0.9-2.29-1.4-3.59-1.4
		c-1.53,0-2.9,0.61-4,1.82c-1.18,1.31-1.95,4.03-1.95,6.89c0,3.1,0.92,5.93,2.35,7.22c1.01,0.87,2.27,1.37,3.54,1.37
		c1.49,0,2.75-0.5,3.74-1.48c0.63-0.65,1.12-1.35,1.37-2.05c0.58-1.45,0.92-3.38,0.92-5.04
		C135.17,147.853,134.31,145.223,132.79,143.853z M120.6,107.063c-1.83,0-3.22,0.15-3.94,0.34v12.58c0.91,0.24,2.06,0.33,3.46,0.33
		c5.04,0,8.11-2.45,8.11-6.91C128.23,109.133,125.2,107.063,120.6,107.063z M176.9,106.873c-6.91,0-10.37,6.38-10.37,13.49
		c0,6.91,3.74,13.1,10.32,13.1c6.63,0,10.37-6.09,10.37-13.44C187.22,113.593,183.86,106.873,176.9,106.873z M190.07,142.873
		c-1.12,0-1.43,0.22-1.43,1.01v6.88c2.69-0.05,3.67-0.22,4.97-0.95c1.01-0.53,1.59-1.71,1.59-3.11
		C195.2,144.073,193.57,142.873,190.07,142.873z M190.07,142.873c-1.12,0-1.43,0.22-1.43,1.01v6.88c2.69-0.05,3.67-0.22,4.97-0.95
		c1.01-0.53,1.59-1.71,1.59-3.11C195.2,144.073,193.57,142.873,190.07,142.873z M176.9,106.873c-6.91,0-10.37,6.38-10.37,13.49
		c0,6.91,3.74,13.1,10.32,13.1c6.63,0,10.37-6.09,10.37-13.44C187.22,113.593,183.86,106.873,176.9,106.873z M146.32,106.973
		c-2.01,0-3.45,0.19-4.12,0.38v11.81h4.27c4.46,0,7.29-2.45,7.29-6.15C153.76,108.843,150.74,107.013,146.32,106.973z
		 M132.79,143.853c-1-0.9-2.29-1.4-3.59-1.4c-1.53,0-2.9,0.61-4,1.82c-1.18,1.31-1.95,4.03-1.95,6.89c0,3.1,0.92,5.93,2.35,7.22
		c1.01,0.87,2.27,1.37,3.54,1.37c1.49,0,2.75-0.5,3.74-1.48c0.63-0.65,1.12-1.35,1.37-2.05c0.58-1.45,0.92-3.38,0.92-5.04
		C135.17,147.853,134.31,145.223,132.79,143.853z M120.6,107.063c-1.83,0-3.22,0.15-3.94,0.34v12.58c0.91,0.24,2.06,0.33,3.46,0.33
		c5.04,0,8.11-2.45,8.11-6.91C128.23,109.133,125.2,107.063,120.6,107.063z M132.79,143.853c-1-0.9-2.29-1.4-3.59-1.4
		c-1.53,0-2.9,0.61-4,1.82c-1.18,1.31-1.95,4.03-1.95,6.89c0,3.1,0.92,5.93,2.35,7.22c1.01,0.87,2.27,1.37,3.54,1.37
		c1.49,0,2.75-0.5,3.74-1.48c0.63-0.65,1.12-1.35,1.37-2.05c0.58-1.45,0.92-3.38,0.92-5.04
		C135.17,147.853,134.31,145.223,132.79,143.853z M176.9,106.873c-6.91,0-10.37,6.38-10.37,13.49c0,6.91,3.74,13.1,10.32,13.1
		c6.63,0,10.37-6.09,10.37-13.44C187.22,113.593,183.86,106.873,176.9,106.873z M190.07,142.873c-1.12,0-1.43,0.22-1.43,1.01v6.88
		c2.69-0.05,3.67-0.22,4.97-0.95c1.01-0.53,1.59-1.71,1.59-3.11C195.2,144.073,193.57,142.873,190.07,142.873z M190.07,142.873
		c-1.12,0-1.43,0.22-1.43,1.01v6.88c2.69-0.05,3.67-0.22,4.97-0.95c1.01-0.53,1.59-1.71,1.59-3.11
		C195.2,144.073,193.57,142.873,190.07,142.873z M176.9,106.873c-6.91,0-10.37,6.38-10.37,13.49c0,6.91,3.74,13.1,10.32,13.1
		c6.63,0,10.37-6.09,10.37-13.44C187.22,113.593,183.86,106.873,176.9,106.873z M132.79,143.853c-1-0.9-2.29-1.4-3.59-1.4
		c-1.53,0-2.9,0.61-4,1.82c-1.18,1.31-1.95,4.03-1.95,6.89c0,3.1,0.92,5.93,2.35,7.22c1.01,0.87,2.27,1.37,3.54,1.37
		c1.49,0,2.75-0.5,3.74-1.48c0.63-0.65,1.12-1.35,1.37-2.05c0.58-1.45,0.92-3.38,0.92-5.04
		C135.17,147.853,134.31,145.223,132.79,143.853z M132.79,143.853c-1-0.9-2.29-1.4-3.59-1.4c-1.53,0-2.9,0.61-4,1.82
		c-1.18,1.31-1.95,4.03-1.95,6.89c0,3.1,0.92,5.93,2.35,7.22c1.01,0.87,2.27,1.37,3.54,1.37c1.49,0,2.75-0.5,3.74-1.48
		c0.63-0.65,1.12-1.35,1.37-2.05c0.58-1.45,0.92-3.38,0.92-5.04C135.17,147.853,134.31,145.223,132.79,143.853z M190.07,142.873
		c-1.12,0-1.43,0.22-1.43,1.01v6.88c2.69-0.05,3.67-0.22,4.97-0.95c1.01-0.53,1.59-1.71,1.59-3.11
		C195.2,144.073,193.57,142.873,190.07,142.873z M190.07,142.873c-1.12,0-1.43,0.22-1.43,1.01v6.88c2.69-0.05,3.67-0.22,4.97-0.95
		c1.01-0.53,1.59-1.71,1.59-3.11C195.2,144.073,193.57,142.873,190.07,142.873z M132.79,143.853c-1-0.9-2.29-1.4-3.59-1.4
		c-1.53,0-2.9,0.61-4,1.82c-1.18,1.31-1.95,4.03-1.95,6.89c0,3.1,0.92,5.93,2.35,7.22c1.01,0.87,2.27,1.37,3.54,1.37
		c1.49,0,2.75-0.5,3.74-1.48c0.63-0.65,1.12-1.35,1.37-2.05c0.58-1.45,0.92-3.38,0.92-5.04
		C135.17,147.853,134.31,145.223,132.79,143.853z M132.79,143.853c-1-0.9-2.29-1.4-3.59-1.4c-1.53,0-2.9,0.61-4,1.82
		c-1.18,1.31-1.95,4.03-1.95,6.89c0,3.1,0.92,5.93,2.35,7.22c1.01,0.87,2.27,1.37,3.54,1.37c1.49,0,2.75-0.5,3.74-1.48
		c0.63-0.65,1.12-1.35,1.37-2.05c0.58-1.45,0.92-3.38,0.92-5.04C135.17,147.853,134.31,145.223,132.79,143.853z M190.07,142.873
		c-1.12,0-1.43,0.22-1.43,1.01v6.88c2.69-0.05,3.67-0.22,4.97-0.95c1.01-0.53,1.59-1.71,1.59-3.11
		C195.2,144.073,193.57,142.873,190.07,142.873z M190.07,142.873c-1.12,0-1.43,0.22-1.43,1.01v6.88c2.69-0.05,3.67-0.22,4.97-0.95
		c1.01-0.53,1.59-1.71,1.59-3.11C195.2,144.073,193.57,142.873,190.07,142.873z M132.79,143.853c-1-0.9-2.29-1.4-3.59-1.4
		c-1.53,0-2.9,0.61-4,1.82c-1.18,1.31-1.95,4.03-1.95,6.89c0,3.1,0.92,5.93,2.35,7.22c1.01,0.87,2.27,1.37,3.54,1.37
		c1.49,0,2.75-0.5,3.74-1.48c0.63-0.65,1.12-1.35,1.37-2.05c0.58-1.45,0.92-3.38,0.92-5.04
		C135.17,147.853,134.31,145.223,132.79,143.853z M132.79,143.853c-1-0.9-2.29-1.4-3.59-1.4c-1.53,0-2.9,0.61-4,1.82
		c-1.18,1.31-1.95,4.03-1.95,6.89c0,3.1,0.92,5.93,2.35,7.22c1.01,0.87,2.27,1.37,3.54,1.37c1.49,0,2.75-0.5,3.74-1.48
		c0.63-0.65,1.12-1.35,1.37-2.05c0.58-1.45,0.92-3.38,0.92-5.04C135.17,147.853,134.31,145.223,132.79,143.853z M190.07,142.873
		c-1.12,0-1.43,0.22-1.43,1.01v6.88c2.69-0.05,3.67-0.22,4.97-0.95c1.01-0.53,1.59-1.71,1.59-3.11
		C195.2,144.073,193.57,142.873,190.07,142.873z M190.07,142.873c-1.12,0-1.43,0.22-1.43,1.01v6.88c2.69-0.05,3.67-0.22,4.97-0.95
		c1.01-0.53,1.59-1.71,1.59-3.11C195.2,144.073,193.57,142.873,190.07,142.873z M132.79,143.853c-1-0.9-2.29-1.4-3.59-1.4
		c-1.53,0-2.9,0.61-4,1.82c-1.18,1.31-1.95,4.03-1.95,6.89c0,3.1,0.92,5.93,2.35,7.22c1.01,0.87,2.27,1.37,3.54,1.37
		c1.49,0,2.75-0.5,3.74-1.48c0.63-0.65,1.12-1.35,1.37-2.05c0.58-1.45,0.92-3.38,0.92-5.04
		C135.17,147.853,134.31,145.223,132.79,143.853z M132.79,143.853c-1-0.9-2.29-1.4-3.59-1.4c-1.53,0-2.9,0.61-4,1.82
		c-1.18,1.31-1.95,4.03-1.95,6.89c0,3.1,0.92,5.93,2.35,7.22c1.01,0.87,2.27,1.37,3.54,1.37c1.49,0,2.75-0.5,3.74-1.48
		c0.63-0.65,1.12-1.35,1.37-2.05c0.58-1.45,0.92-3.38,0.92-5.04C135.17,147.853,134.31,145.223,132.79,143.853z M190.07,142.873
		c-1.12,0-1.43,0.22-1.43,1.01v6.88c2.69-0.05,3.67-0.22,4.97-0.95c1.01-0.53,1.59-1.71,1.59-3.11
		C195.2,144.073,193.57,142.873,190.07,142.873z M190.07,142.873c-1.12,0-1.43,0.22-1.43,1.01v6.88c2.69-0.05,3.67-0.22,4.97-0.95
		c1.01-0.53,1.59-1.71,1.59-3.11C195.2,144.073,193.57,142.873,190.07,142.873z M132.79,143.853c-1-0.9-2.29-1.4-3.59-1.4
		c-1.53,0-2.9,0.61-4,1.82c-1.18,1.31-1.95,4.03-1.95,6.89c0,3.1,0.92,5.93,2.35,7.22c1.01,0.87,2.27,1.37,3.54,1.37
		c1.49,0,2.75-0.5,3.74-1.48c0.63-0.65,1.12-1.35,1.37-2.05c0.58-1.45,0.92-3.38,0.92-5.04
		C135.17,147.853,134.31,145.223,132.79,143.853z M132.79,143.853c-1-0.9-2.29-1.4-3.59-1.4c-1.53,0-2.9,0.61-4,1.82
		c-1.18,1.31-1.95,4.03-1.95,6.89c0,3.1,0.92,5.93,2.35,7.22c1.01,0.87,2.27,1.37,3.54,1.37c1.49,0,2.75-0.5,3.74-1.48
		c0.63-0.65,1.12-1.35,1.37-2.05c0.58-1.45,0.92-3.38,0.92-5.04C135.17,147.853,134.31,145.223,132.79,143.853z M132.79,143.853
		c-1-0.9-2.29-1.4-3.59-1.4c-1.53,0-2.9,0.61-4,1.82c-1.18,1.31-1.95,4.03-1.95,6.89c0,3.1,0.92,5.93,2.35,7.22
		c1.01,0.87,2.27,1.37,3.54,1.37c1.49,0,2.75-0.5,3.74-1.48c0.63-0.65,1.12-1.35,1.37-2.05c0.58-1.45,0.92-3.38,0.92-5.04
		C135.17,147.853,134.31,145.223,132.79,143.853z" />
    <path fill="#33D33F" d="M150.01,44.673c-58.19,0-105.34,47.16-105.34,105.33s47.15,105.33,105.34,105.33
		c58.17,0,105.32-47.16,105.32-105.33S208.18,44.673,150.01,44.673z M237.43,147.553l2.57-7.92l2.57,7.92h8.35l-6.75,4.9l2.57,7.92
		l-6.74-4.89l-6.75,4.89l2.58-7.92l-6.73-4.9H237.43z M150.01,225.333c-41.62,0-75.34-33.72-75.34-75.33
		c0-41.61,33.72-75.33,75.34-75.33c41.6,0,75.32,33.72,75.32,75.33C225.33,191.613,191.61,225.333,150.01,225.333z M58.76,147.553
		l2.57-7.92l2.59,7.92h8.33l-1.32,0.96l-5.42,3.94l2.56,7.92l-6.74-4.89l-6.73,4.89l2.57-7.92l-6.74-4.9H58.76z M70.32,182.613
		l-6.74-4.89l-6.73,4.89l2.57-7.92l-6.74-4.9h8.33l2.57-7.92l2.59,7.92h7.23c0.05,0.22,0.11,0.45,0.18,0.67l-5.82,4.23
		L70.32,182.613z M243.32,182.613l-6.74-4.89l-6.75,4.89l2.59-7.92l-5.97-4.34c0.06-0.19,0.1-0.37,0.15-0.56h7.41l2.57-7.92
		l2.57,7.92h8.35l-6.75,4.9L243.32,182.613z" />
    <g>
		<path fill="#FFCE00" d="M72.25,147.553l-1.32,0.96c0-0.32,0.01-0.64,0.01-0.96H72.25z" />
	</g>
    <path fill="#FFCE00" d="M74.5,169.793l-0.92,0.67c-0.07-0.22-0.13-0.45-0.18-0.67H74.5z" />
    <path fill="#FFCE00" d="M226.6,169.793c-0.05,0.19-0.09,0.37-0.15,0.56l-0.77-0.56H226.6z" />
</g>
</svg>
