<?xml version="1.0" encoding="utf-8"?><!-- Generator: Adobe Illustrator 17.0.0, SVG Export Plug-In . SVG Version: 6.00 Build 0)  -->
<!DOCTYPE svg PUBLIC "-//W3C//DTD SVG 1.1//EN" "http://www.w3.org/Graphics/SVG/1.1/DTD/svg11.dtd">
<svg version="1.1" id="Layer_1" xmlns="http://www.w3.org/2000/svg"
    xmlns:xlink="http://www.w3.org/1999/xlink" x="0px" y="0px" width="300px" height="300px"
    viewBox="0 0 300 300" enable-background="new 0 0 300 300" xml:space="preserve">
<g>
	<polygon fill="#33D33F"
        points="254.334,89.019 254.978,209.865 150.645,270.846 45.666,210.981 45.022,90.135 149.355,29.154 	" />
    <polygon fill="#00FF4E"
        points="247.702,102.19 240.255,210.708 142.553,258.517 52.298,197.81 59.745,89.292 157.447,41.483 	" />
    <polygon fill="#00FF12"
        points="240.83,110.383 229.725,208.853 138.894,248.47 59.17,189.617 70.275,91.147 161.106,51.53 	" />
    <polygon fill="#00FF7F" points="234.858,116.551 221.397,206.765 136.539,240.214 65.142,183.449 78.603,93.235 163.461,59.786
		" />
    <polygon fill="#FFFF00" points="150,15.606 179.672,106.926 275.692,106.926 198.01,163.365 227.682,254.686 150,198.247
		72.318,254.686 101.99,163.365 24.309,106.926 120.328,106.926 	" />
    <g>
		
			<polygon fill="#FFFFFF" stroke="#FFFFFF" stroke-width="10" stroke-linecap="round"
                stroke-linejoin="round" stroke-miterlimit="10" points="
			174.368,174.71 123.163,174.71 171.898,127.297 125.633,127.297 125.633,125.29 176.837,125.29 128.102,172.703 174.368,172.703 
					" />
	</g>
</g>
</svg>
