<?xml version="1.0" encoding="utf-8"?><!-- Generator: Adobe Illustrator 17.0.0, SVG Export Plug-In . SVG Version: 6.00 Build 0)  -->
<!DOCTYPE svg PUBLIC "-//W3C//DTD SVG 1.1//EN" "http://www.w3.org/Graphics/SVG/1.1/DTD/svg11.dtd">
<svg version="1.1" id="Layer_1" xmlns="http://www.w3.org/2000/svg"
    xmlns:xlink="http://www.w3.org/1999/xlink" x="0px" y="0px" width="300px" height="300px"
    viewBox="0 0 300 300" enable-background="new 0 0 300 300" xml:space="preserve">
<g>
	<path fill="#3FFF00" d="M139.77,147.433c-0.5-2.18-1.47-3.68-3.09-4.24v-0.1c2.22-0.74,3.96-2.58,3.96-5.36
		c0-1.62-0.59-3.05-1.65-3.99c-1.31-1.18-3.18-1.71-6.08-1.71c-1.87,0-3.83,0.15-5.2,0.43v20.74h2.71v-9.11h2.55
		c2.47,0.1,3.59,1.19,4.21,4.09c0.59,2.61,1.06,4.42,1.4,5.02h2.81C140.95,152.383,140.46,150.363,139.77,147.433z M133.19,142.043
		h-2.77v-7.67c0.43-0.13,1.37-0.25,2.68-0.25c2.87,0.03,4.83,1.21,4.83,3.92C137.93,140.453,136.09,142.043,133.19,142.043z" />
    <rect x="144.48" y="132.183" fill="#3FFF00" width="2.71" height="21.02" />
    <polygon fill="#3FFF00" points="154.64,134.463 154.64,141.443 162.59,141.443 162.59,143.693 154.64,143.693 154.64,153.203
		151.93,153.203 151.93,132.183 163.25,132.183 163.25,134.463 	" />
    <rect x="167.12" y="132.183" fill="#3FFF00" width="2.71" height="21.02" />
    <polygon fill="#3FFF00" points="186.38,150.923 186.38,153.203 174.57,153.203 174.57,132.183 185.92,132.183 185.92,134.463
		177.28,134.463 177.28,141.103 185.45,141.103 185.45,143.343 177.28,143.343 177.28,150.923 	" />
    <path fill="#3FFF00" d="M204.19,134.653c-1.84-1.72-4.62-2.62-8.51-2.62c-2.15,0-4.12,0.19-5.77,0.43v20.67
		c1.37,0.16,2.99,0.25,4.92,0.25c4.09,0,7.33-1.06,9.29-3.02c1.97-1.93,3.03-4.74,3.03-8.17
		C207.15,138.793,206.06,136.363,204.19,134.653z M195.36,151.203c-1.06,0-2.05-0.03-2.74-0.16v-16.58
		c0.72-0.16,1.78-0.28,3.18-0.28c5.74,0,8.54,3.15,8.51,8.1C204.31,147.963,201.16,151.203,195.36,151.203z" />
    <polygon fill="#3FFF00" points="124.18,150.923 124.18,153.203 112.36,153.203 112.36,132.183 123.71,132.183 123.71,134.463
		115.08,134.463 115.08,141.103 123.24,141.103 123.24,143.343 115.08,143.343 115.08,150.923 	" />
    <path fill="#3FFF00" d="M110.08,132.183l-7.51,21.02h-2.99l-6.86-21.02h2.93l3.27,10.35c0.91,2.84,1.69,5.4,2.25,7.86h0.06
		c0.59-2.43,1.47-5.08,2.4-7.82l3.56-10.39H110.08z" />
    <path fill="#33D33F" d="M150.01,43.673c-58.19,0-105.34,47.16-105.34,105.33s47.15,105.33,105.34,105.33
		c58.17,0,105.32-47.16,105.32-105.33S208.18,43.673,150.01,43.673z M70.94,147.503l-0.01,0.01l-5.42,3.94l2.56,7.91v0.01
		l-6.74-4.89l-6.73,4.89v-0.01l2.57-7.91l-6.73-4.9h8.32v-0.01l2.57-7.91l2.59,7.91v0.01h8.32L70.94,147.503z M150.01,224.333
		c-41.62,0-75.34-33.72-75.34-75.33c0-41.61,33.72-75.33,75.34-75.33c41.6,0,75.32,33.72,75.32,75.33
		C225.33,190.613,191.61,224.333,150.01,224.333z M246.74,159.373l-6.74-4.89l-6.75,4.89v-0.01l2.58-7.91l-6.72-4.9h8.32v-0.01
		l2.57-7.91l2.57,7.91v0.01h8.34l-6.74,4.9l2.57,7.91V159.373z" />
    <polygon fill="#FFCE00" points="156.437,108.928 160.841,122.449 149.335,114.101 137.812,122.449 142.216,108.928 130.71,100.563
		144.931,100.563 149.335,87.042 153.722,100.563 167.96,100.563 	" />
    <g>
		<path fill="#33D33F" d="M162.96,165.543c-0.17-0.16-0.35-0.31-0.52-0.45c-3.76-3.11-8.58-4.97-13.83-4.97
			c-12,0-21.73,9.72-21.73,21.72s9.73,21.72,21.73,21.72s21.72-9.72,21.72-21.72C170.33,175.343,167.48,169.513,162.96,165.543z
			 M132.3,181.533l-1.12,0.82l0.53,1.63l-1.39-1.01l-1.39,1.01l0.53-1.63l-1.39-1.01h1.72l0.53-1.64l0.53,1.64h1.72L132.3,181.533z
			 M148.61,197.383c-8.58,0-15.54-6.96-15.54-15.54c0-8.58,6.96-15.54,15.54-15.54c3.98,0,7.61,1.5,10.36,3.97
			c0.25,0.21,0.48,0.44,0.71,0.67c2.76,2.8,4.46,6.65,4.46,10.9C164.14,190.423,157.19,197.383,148.61,197.383z M167.17,182.973
			l-1.39,1.01l0.53-1.63l-1.39-1.01h1.72l0.53-1.64l0.53,1.64h1.72l-1.39,1.01l0.53,1.63L167.17,182.973z" />
        <text transform="matrix(1 0 0 1 142.0796 188.9816)" fill="#33D33F"
            font-family="'NotoSerif-Regular'" font-size="21.8643">Z</text>
        <path fill="#FFCE00" stroke="#FFCE00" stroke-miterlimit="10" d="M154.023,169.968l2.917,6.896c0,0,7.238-18.752,14.845-16.899
			c0,0-3.38-0.676-3.96-0.059c-0.58,0.617-3.087,1.397-7.554,8.257s-2.545,7.111-3.247,6.709l-2.216-5.347l-1.066-0.578
			L154.023,169.968z" />
	</g>
</g>
</svg>
